<?xml version="1.0" encoding="UTF-8" standalone="no"?>
<!-- Created with Inkscape (http://www.inkscape.org/) -->
<svg
   xmlns:dc="http://purl.org/dc/elements/1.1/"
   xmlns:cc="http://creativecommons.org/ns#"
   xmlns:rdf="http://www.w3.org/1999/02/22-rdf-syntax-ns#"
   xmlns:svg="http://www.w3.org/2000/svg"
   xmlns="http://www.w3.org/2000/svg"
   xmlns:sodipodi="http://sodipodi.sourceforge.net/DTD/sodipodi-0.dtd"
   xmlns:inkscape="http://www.inkscape.org/namespaces/inkscape"
   width="426.5"
   height="128"
   id="logo_svg"
   sodipodi:version="0.32"
   inkscape:version="0.46"
   sodipodi:docname="logo.svg"
   inkscape:output_extension="org.inkscape.output.svg.inkscape"
   version="1.0"
   style="enable-background:new">
  <defs
     id="defs35">
    <inkscape:perspective
       sodipodi:type="inkscape:persp3d"
       inkscape:vp_x="0 : 64 : 1"
       inkscape:vp_y="0 : 1000 : 0"
       inkscape:vp_z="426.5 : 64 : 1"
       inkscape:persp3d-origin="213.25 : 42.666667 : 1"
       id="perspective37" />
  </defs>
  <sodipodi:namedview
     id="base"
     pagecolor="#ffffff"
     bordercolor="#666666"
     borderopacity="1.0"
     gridtolerance="10000"
     guidetolerance="10"
     objecttolerance="10"
     inkscape:pageopacity="0.0"
     inkscape:pageshadow="2"
     inkscape:zoom="2.8284272"
     inkscape:cx="206.23355"
     inkscape:cy="72.87142"
     inkscape:document-units="px"
     inkscape:current-layer="layer1"
     showgrid="false" />
  <metadata
     id="metadata">
    <rdf:RDF>
      <cc:Work
         rdf:about="">
        <dc:format>image/svg+xml</dc:format>
        <dc:type
           rdf:resource="http://purl.org/dc/dcmitype/StillImage" />
      </cc:Work>
    </rdf:RDF>
  </metadata>
  <g
     inkscape:label="Logo"
     inkscape:groupmode="layer"
     id="layer1"
     style="opacity:1">
    <path
       style="fill:#000000;fill-opacity:1;fill-rule:evenodd;stroke:#000000;stroke-width:3;stroke-linecap:butt;stroke-linejoin:miter;stroke-miterlimit:4;stroke-dasharray:none;stroke-opacity:1"
       d="M 122.63326,36.181132 C 110.96688,42.326975 78.991716,33.81687 78.418556,41.436336 C 79.713776,52.975497 79.829476,61.482828 79.655996,74.670355 C 80.723556,92.435954 83.788056,96.963354 86.550286,104.19206 C 87.436086,107.73527 78.076296,109.08099 74.529476,109.67213 C 70.033416,110.42147 65.786926,111.41583 61.447999,112.50056 C 59.462919,112.99683 56.927894,113.88941 54.730485,114.62188 C 53.053434,115.1809 54.730485,111.08635 54.730485,109.31858 C 52.343662,95.997064 54.421162,82.442984 54.730485,69.013501 C 54.224259,59.144182 54.091353,48.841827 51.194951,39.315016 C 48.676639,35.44931 10.196913,41.138332 8.4149912,37.547249 C 7.4196172,25.534492 4.6034352,13.913075 2.0510293,2.1919098 C 15.482624,6.1796847 29.636236,7.0168697 43.106116,10.962725 C 55.035922,12.507677 70.874376,11.522076 82.307646,9.6165307 C 94.800676,7.5343587 109.04376,4.3132297 121.55208,4.3132297 C 124.80499,4.3132297 123.46267,9.3238377 122.96629,12.798512 C 121.89935,21.959111 122.45391,26.994302 122.63326,36.181132 z"
       id="t_outline"
       sodipodi:nodetypes="ccccsssccccccsscc" />
    <path
       style="fill:#98fc66;fill-opacity:1;fill-rule:evenodd;stroke:#000000;stroke-width:0.25;stroke-miterlimit:4;stroke-dasharray:none;stroke-opacity:1"
       d="M 4.0891812,4.4816887 C 6.4495782,15.112599 8.6979682,25.909177 9.8860562,36.739502 C 14.880171,37.642049 20.017566,37.054024 25.064663,37.013977 C 32.966043,36.844519 40.917346,35.954467 48.800119,36.825439 C 50.657529,37.020382 52.662721,38.002147 52.932931,40.052002 C 55.779284,50.441139 55.952471,61.337202 55.940744,72.044189 C 55.812769,84.245144 54.225959,96.528204 56.081369,108.66137 C 56.192951,110.00874 55.919481,111.34268 55.690744,112.66137 C 63.957396,109.95564 72.608046,108.72543 81.050116,106.77075 C 82.456836,106.30223 84.052036,105.90553 85.050116,104.73169 C 82.786236,98.792174 80.330496,92.843514 79.437966,86.486234 C 77.737486,76.501157 78.395116,66.283887 77.928656,56.193132 C 77.838036,51.191357 77.395356,46.214049 76.956366,41.255127 C 77.376636,38.116932 80.936246,37.024417 83.651686,36.880127 C 94.724136,36.051319 105.8973,37.973482 116.91731,36.419189 C 118.35604,36.165957 119.77652,35.775939 121.11262,35.200439 C 120.89471,26.366587 120.58076,17.469602 122.01887,8.7160637 C 122.06372,7.8086317 122.20974,6.7708137 121.88606,5.9348137 C 109.41363,5.7586217 97.232556,8.7365637 84.949786,10.646954 C 72.854396,12.882662 60.498074,13.471587 48.221994,12.911377 C 41.568441,12.571287 35.269004,10.237242 28.729806,9.2473137 C 20.485191,7.6316087 12.179041,6.4027367 4.0501182,4.2785637 L 4.0891812,4.4816887 z"
       id="t_1" />
    <path
       style="fill:#339900;fill-opacity:1;fill-rule:evenodd;stroke:none;stroke-width:0.25;stroke-miterlimit:4;stroke-dasharray:none;stroke-opacity:1"
       d="M 6.9563682,7.5520017 C 8.8476962,16.595632 10.598033,25.755099 11.792306,34.872314 C 23.737166,35.591057 35.740449,33.764144 47.696909,34.666594 C 50.550849,34.857707 54.091719,35.865439 54.784494,39.067627 C 58.167854,50.927994 58.067424,63.405637 57.924114,75.637784 C 57.567894,86.265434 57.017659,96.936444 57.948556,107.53637 C 58.183681,108.34719 57.423254,110.38402 58.884991,109.51764 C 66.473776,107.43282 74.311396,106.36036 81.878246,104.21606 C 83.222146,104.00154 81.634466,102.45124 81.618676,101.62778 C 78.981136,95.014504 77.099256,88.063754 76.712246,80.928684 C 75.734246,67.627354 76.086006,54.236247 74.831366,40.958252 C 75.440466,37.250324 79.167676,35.185569 82.649826,34.920054 C 91.155776,34.374997 99.700926,34.840374 108.22198,34.701049 C 111.75391,34.558899 115.41419,34.926927 118.7845,33.755127 C 118.98059,25.211309 118.81559,16.634319 119.83137,8.1379387 C 109.71534,8.1049217 99.817976,10.419987 89.862326,11.941852 C 80.079846,13.645347 70.216256,15.198592 60.253274,14.998182 C 53.128851,14.932759 45.852691,15.499522 38.933161,13.562289 C 28.298591,11.174354 17.507468,9.4748967 6.8704312,7.1223137 L 6.9194612,7.3674587 L 6.9563682,7.5520017 z"
       id="t_2" />
    <path
       style="fill:#000000;fill-opacity:1;fill-rule:evenodd;stroke:#000000;stroke-width:3;stroke-linecap:butt;stroke-linejoin:miter;stroke-miterlimit:4;stroke-dasharray:none;stroke-opacity:1"
       d="M 130.26208,37.209638 C 130.26208,31.539641 130.75599,28.624921 134.54779,25.781071 C 137.00727,23.936461 142.73776,23.638211 145.26208,23.638211 C 149.52792,23.638211 153.4563,19.099681 155.97636,17.209641 C 158.92824,14.995731 159.90516,11.256961 162.40493,7.9239208 C 167.56869,1.0389208 167.56201,3.9024808 178.83351,5.7810708 C 183.84302,6.6159808 198.90844,3.4883308 195.97636,9.3525008 C 193.32694,14.651341 195.86706,22.027461 198.11922,25.781071 C 201.93097,32.133981 207.5697,20.268361 210.26208,15.781071 C 210.97636,14.590591 211.69065,13.400111 212.40493,12.209641 C 216.54495,5.3096008 219.95038,9.3525008 227.40493,9.3525008 C 235.1684,9.3525008 238.11922,7.1827408 238.11922,15.066781 C 238.11922,21.909801 240.50184,25.551331 241.69065,31.495351 C 242.98108,37.947508 240.0787,44.700028 243.11922,50.781068 C 245.36791,55.278448 246.27622,61.980518 247.40493,66.495358 C 251.61272,83.326514 231.97108,58.918638 228.11922,55.066788 C 223.56344,50.511008 217.83781,49.103578 213.11922,47.923928 C 210.03748,47.153488 213.22255,40.884398 210.97636,38.638208 C 207.3498,35.011648 201.66625,43.108598 196.69065,44.352498 C 192.42322,45.419348 189.08638,45.781068 184.54779,45.781068 C 178.77519,45.781068 175.77473,35.323108 172.40493,33.638208 C 167.57682,31.224151 165.09019,41.938438 160.26208,44.352498 C 154.49587,47.235598 153.2977,50.066908 149.54779,55.066788 C 147.78101,57.422498 137.51928,55.781068 134.54779,55.781068 C 129.74195,55.781068 126.69065,56.651598 126.69065,51.495358 C 127.33408,50.007178 130.7807,39.096258 130.26208,37.209638 z"
       id="m_outline"
       sodipodi:nodetypes="cssssssssssssssssssssssscc" />
    <path
       style="fill:#98fc66;fill-opacity:1;fill-rule:evenodd;stroke:none;stroke-width:1;stroke-miterlimit:4;stroke-dasharray:none;stroke-opacity:1"
       d="M 167.91021,5.0959847 C 165.81199,5.3978347 164.80608,7.6892997 163.55591,9.1601677 C 161.12342,12.61845 159.46614,16.746838 155.9024,19.26786 C 152.84583,21.880335 149.61898,24.889858 145.35699,25.037063 C 141.4926,25.469143 136.89172,25.179965 134.04303,28.322548 C 131.39035,31.113518 132.22956,35.270115 131.67788,38.780705 C 131.27328,43.414595 129.23572,47.706698 128.43365,52.220985 C 128.28868,53.208445 128.86866,54.339153 130.01959,54.14286 C 134.91116,54.355198 139.84084,54.637668 144.73834,54.752235 C 146.17923,54.60334 148.05426,54.916015 148.85553,53.385048 C 151.70303,49.825318 154.35269,45.777528 158.5536,43.638115 C 163.38877,41.143238 164.64016,35.04858 169.22271,32.283485 C 171.76455,30.997478 174.5873,32.72358 175.8704,34.946138 C 178.18874,37.972403 179.85584,41.728538 183.12896,43.845985 C 187.32721,44.607365 191.61671,43.864895 195.75396,43.025673 C 200.27532,41.82168 203.27026,37.505325 207.82428,36.39286 C 210.46475,35.669728 213.42455,37.769695 213.26959,40.58036 C 213.43949,42.482598 213.14172,44.517573 213.5899,46.345985 C 218.02891,47.778418 222.74285,48.85321 226.55084,51.720985 C 231.32783,55.689675 235.0997,60.71003 239.55865,65.010048 C 241.715,67.021598 243.83577,69.53541 246.5274,70.728798 C 246.68423,68.321795 245.66068,65.924673 245.31567,63.536263 C 244.35055,58.760323 243.0909,54.025443 241.16803,49.572548 C 239.84997,44.921693 240.64756,40.000368 240.48793,35.23681 C 240.91569,31.86115 239.45681,28.74996 238.59664,25.566425 C 237.05166,21.304958 236.86458,16.7141 236.37896,12.260048 C 236.36035,11.36099 235.77431,10.521073 234.76959,10.720985 C 229.75477,10.618845 224.66962,10.94985 219.7485,9.8430747 C 218.11295,9.4399227 216.12481,9.6886497 215.16021,11.228798 C 210.96142,16.5434 208.70038,23.315005 203.6524,27.95536 C 201.73299,29.57893 198.64892,29.17039 197.3399,26.978798 C 193.81115,21.616418 192.29782,14.590113 194.7149,8.4631727 C 195.10429,7.5936997 193.61422,7.4531677 193.01959,7.3694227 C 186.15557,7.0051827 179.11038,7.9910377 172.44112,5.8869127 C 170.94815,5.5419197 169.44514,5.0921197 167.91021,5.0959847 z"
       id="m_1" />
    <path
       style="fill:#339900;fill-opacity:1;fill-rule:evenodd;stroke:none;stroke-width:1;stroke-miterlimit:4;stroke-dasharray:none;stroke-opacity:1"
       d="M 168.25396,7.1975477 C 166.65703,7.5836777 166.0084,9.5106577 165.01178,10.650673 C 162.33917,14.719843 159.83284,19.017108 155.82792,21.936043 C 152.7946,24.608735 149.10865,26.867358 144.96211,27.010735 C 142.02689,27.551978 138.65342,27.298493 136.14459,29.135048 C 133.85654,30.79913 134.2795,33.918308 133.84225,36.3823 C 133.60035,41.796473 131.73534,46.913213 130.55084,52.150673 C 135.91805,52.484355 141.35765,52.771768 146.73834,52.525673 C 149.98329,49.17514 152.45416,44.93821 156.59771,42.510048 C 159.27411,41.138373 161.14603,38.781958 162.76959,36.322548 C 164.91263,33.385938 167.57552,29.59305 171.69928,29.939735 C 175.66781,30.23406 177.64839,34.254328 179.74615,37.04911 C 181.16324,38.723008 182.22607,41.005593 184.26178,41.994423 C 188.18827,42.490558 192.18389,41.728175 195.99615,40.838173 C 200.11236,38.807468 203.5915,35.24573 208.23053,34.400673 C 211.78195,33.872338 215.4502,36.9648 215.20172,40.618768 C 215.32101,42.0044 215.38406,43.39418 215.45709,44.783485 C 220.75166,46.492398 226.33363,48.282518 230.25396,52.45536 C 234.89475,56.98321 239.12186,61.929135 243.89459,66.322548 C 242.75654,60.71092 241.24232,55.14433 239.20709,49.775673 C 238.00623,45.075883 238.75304,40.155188 238.44438,35.361658 C 238.64624,32.62304 237.89399,30.011073 237.07428,27.431923 C 235.4946,22.745273 234.95668,17.744763 234.37896,12.885048 C 232.31086,12.467368 229.81206,12.717523 227.59021,12.5471 C 224.36064,12.584513 221.19453,11.965205 217.98834,11.76786 C 216.26163,12.201385 215.60467,14.294323 214.59715,15.580873 C 211.35627,20.60014 208.84452,26.44252 203.91021,30.08036 C 201.00673,31.947945 196.95999,30.541635 195.4024,27.564735 C 192.90286,23.668878 191.47819,19.071153 191.7774,14.416298 C 191.78157,12.74979 191.8135,11.08083 192.30084,9.4709847 C 185.00415,9.0592647 177.51569,9.5904927 170.44724,7.4878727 C 169.72004,7.3370497 169.00373,7.1776647 168.25396,7.1975477 z"
       id="m_2" />
    <path
       style="fill:#000000;fill-opacity:1;fill-rule:evenodd;stroke:#000000;stroke-width:3;stroke-linecap:butt;stroke-linejoin:miter;stroke-miterlimit:4;stroke-dasharray:none;stroke-opacity:1"
       d="M 258.01968,58.131265 C 258.01968,57.178885 258.01968,57.178885 258.01968,58.131265 C 258.01968,69.955825 257.83615,37.927885 255.87682,28.131262 C 254.9322,23.408132 255.15001,18.870622 256.59111,15.988412 C 258.8373,11.496032 266.56849,17.416982 271.59111,17.416982 C 272.18375,17.416982 271.61244,27.470302 274.44825,34.559832 C 276.08466,38.650855 279.08221,40.622365 280.87682,42.416985 C 284.03232,45.572475 287.73704,47.118985 288.73397,43.131265 C 290.27308,36.974832 287.02031,28.134412 285.87682,22.416982 C 284.7087,16.576372 295.31166,19.991542 297.3054,20.988412 C 303.22649,23.948952 302.01165,39.519665 303.01968,44.559835 C 304.00439,49.483355 305.87682,52.071245 305.87682,56.702695 C 305.87682,58.395945 293.67289,59.559835 291.59111,59.559835 C 286.63348,59.559835 278.11335,50.367785 274.44825,46.702695 C 269.61283,41.867275 271.59111,56.122915 271.59111,59.559835 C 271.59111,65.234425 263.65257,61.702695 259.44825,61.702695 C 258.16607,61.702695 256.7375,58.131265 258.01968,58.131265 z"
       id="n_outline" />
    <path
       style="fill:#98fc66;fill-opacity:1;fill-rule:evenodd;stroke:none;stroke-width:1;stroke-miterlimit:4;stroke-dasharray:none;stroke-opacity:1"
       d="M 258.72271,15.947548 C 256.66186,17.840323 256.97836,21.01553 256.94822,23.572455 C 257.34052,29.445558 258.49015,35.279855 258.66637,41.196183 C 259.04928,47.249353 259.17274,53.370088 259.26178,59.400673 C 259.85223,60.861595 261.90348,60.232725 263.16021,60.713173 C 265.28966,60.874755 267.61164,61.57335 269.66803,60.822548 C 270.36081,60.160393 269.86575,58.859303 270.00306,57.986763 C 269.98472,53.851653 268.98902,49.423743 270.70709,45.502235 C 271.53882,43.82017 273.7611,43.86662 274.80865,45.260048 C 279.81589,49.53847 283.98655,54.90116 290.08209,57.67411 C 292.5432,58.412438 295.17236,57.633185 297.68365,57.478798 C 299.89538,57.09165 302.38876,56.990358 304.34771,56.002235 C 303.82055,50.96981 301.27865,46.339818 301.2039,41.213883 C 300.67903,35.713845 300.82208,29.956565 298.72732,24.798683 C 297.65023,22.10693 294.54834,21.497008 292.02444,20.961018 C 290.59485,20.76705 288.6842,20.23571 287.47271,21.166298 C 287.30676,22.861003 288.12961,24.640753 288.359,26.34266 C 289.50409,32.017868 291.5593,37.953075 290.01959,43.752235 C 289.59334,46.27412 286.68666,47.60669 284.41021,46.603798 C 280.73321,44.976915 278.09502,41.727718 275.36334,38.900673 C 271.94658,34.724455 271.38498,29.074683 270.78468,23.904028 C 270.53381,22.23145 270.70307,20.247008 270.24615,18.744423 C 266.34879,18.072568 262.72685,15.88883 258.72271,15.947548 z"
       id="n_1" />
    <path
       style="fill:#339900;fill-opacity:1;fill-rule:evenodd;stroke:none;stroke-width:1;stroke-miterlimit:4;stroke-dasharray:none;stroke-opacity:1"
       d="M 259.63678,18.002235 C 258.49723,21.223218 259.20244,24.783893 259.36334,28.127235 C 260.54797,37.099418 260.99057,46.177855 261.1524,55.23661 C 261.32983,56.2187 260.98933,57.63629 261.48053,58.377235 C 263.60009,58.774368 265.97947,59.22107 268.08209,59.010048 C 267.93628,54.54626 267.29017,49.914928 268.54303,45.556923 C 269.25244,42.647063 273.25577,41.06019 275.47271,43.33036 C 280.51273,47.497145 284.83125,52.632808 290.64459,55.783485 C 294.512,55.825265 298.40107,55.610183 302.12896,54.666298 C 300.72931,49.329105 299.15333,43.985998 299.01414,38.425 C 298.50567,34.074188 298.56805,29.515253 296.76178,25.478798 C 295.59258,23.467805 292.91221,23.281485 290.85553,22.814735 C 290.06406,22.65603 289.16294,22.539103 289.82428,23.681923 C 290.87318,29.421605 292.81098,35.174138 292.42584,41.072548 C 292.26482,43.998943 291.267,47.481175 288.1524,48.478798 C 284.59645,49.909015 281.18801,47.217975 278.65906,45.002253 C 274.91329,41.733258 271.36096,37.80369 270.29303,32.79911 C 269.1863,28.727265 268.9287,24.52608 268.49615,20.345985 C 265.55027,19.57365 262.65024,18.393645 259.63678,18.002235 z"
       id="n_2" />
    <path
       style="fill:#000000;fill-opacity:1;fill-rule:evenodd;stroke:#000000;stroke-width:3;stroke-linecap:butt;stroke-linejoin:miter;stroke-miterlimit:4;stroke-dasharray:none;stroke-opacity:1"
       d="M 315.89836,17.236485 C 315.96586,15.683682 329.20579,15.093625 340.89836,15.093625 C 349.45908,15.093625 362.3384,18.381635 370.89836,20.093625 C 384.20655,22.755265 403.56094,22.642265 416.61265,19.379345 C 424.18303,17.486745 426.03607,17.262215 424.46979,25.093625 C 423.57653,29.559925 421.86253,35.566872 418.04122,36.5222 C 411.43195,38.174518 404.6834,40.90805 398.04122,42.236486 C 391.2741,43.589906 390.73596,45.905656 389.46979,52.23649 C 388.10058,59.08256 387.32693,67.35492 387.32693,74.37935 C 387.32693,78.65268 386.21804,84.529214 385.18408,88.665054 C 384.18415,92.664754 384.46979,97.175364 384.46979,101.52219 C 384.46979,105.33172 384.46979,109.14124 384.46979,112.95077 C 384.46979,117.83461 382.18522,119.37934 377.32693,119.37934 C 371.9488,119.37934 362.32693,121.93781 362.32693,115.80791 C 362.32693,100.98889 361.09966,92.804664 367.32693,77.23649 C 370.32213,69.7485 367.32693,59.44527 367.32693,51.5222 C 367.32693,46.185096 363.00294,47.236486 358.7555,47.236486 C 352.80312,47.236486 346.85074,47.236486 340.89836,47.236486 C 336.77983,47.236486 331.71202,45.877786 327.82693,44.450776 C 324.35076,43.173963 319.97117,40.920453 318.04122,39.379343 C 315.21482,37.122393 315.89836,28.265235 315.89836,25.807915 C 315.89836,22.950775 315.89836,20.093625 315.89836,17.236485 z"
       id="t2_outline"
       sodipodi:nodetypes="cssssssssssssssssssssc" />
    <path
       style="fill:#98fc66;fill-opacity:1;fill-rule:evenodd;stroke:none;stroke-width:1;stroke-miterlimit:4;stroke-dasharray:none;stroke-opacity:1"
       d="M 336.73834,16.67411 C 330.29478,16.810505 323.76227,16.701688 317.45709,18.033485 C 317.40448,23.678573 317.25308,29.373668 317.7149,34.98661 C 317.85739,36.933133 319.05836,38.60244 320.81753,39.408173 C 325.70453,42.223175 331.0388,44.35988 336.62115,45.26786 C 346.01099,45.932633 355.49238,45.35601 364.89459,46.010048 C 367.4334,46.34231 368.77747,48.984605 368.75396,51.338173 C 369.02089,58.21448 370.523,65.056678 369.94928,71.947548 C 369.25633,77.731368 366.46695,82.935744 365.3399,88.611614 C 363.18369,97.694274 363.54862,107.24962 364.0274,116.52567 C 364.29865,118.11047 366.44337,118.33531 367.76178,118.28348 C 372.06451,118.19243 376.41355,118.17806 380.64459,117.42411 C 381.73576,116.98219 382.74276,116.12406 382.59771,114.84598 C 383.16591,106.56997 382.61968,98.162314 383.41803,89.877234 C 384.97693,83.607004 385.86671,77.249488 385.94107,70.784665 C 386.39347,62.68099 387.02016,54.464955 389.38678,46.666298 C 390.47001,43.16711 394.10802,41.546445 397.41817,40.847048 C 404.37432,39.146533 411.2289,37.023123 418.05084,34.845985 C 420.78191,33.396838 421.55257,29.906015 422.39459,27.181923 C 422.88941,24.85662 423.65507,22.327198 423.25396,19.978798 C 420.33074,19.607763 417.37598,20.942503 414.46194,21.332515 C 402.48209,23.793815 390.11058,23.82829 377.97591,22.648905 C 364.43728,21.02653 351.35671,16.222548 337.63678,16.667998 C 337.3373,16.670035 337.03782,16.672073 336.73834,16.67411 z"
       id="t2_1" />
    <path
       style="fill:#339900;fill-opacity:1;fill-rule:evenodd;stroke:none;stroke-width:1;stroke-miterlimit:4;stroke-dasharray:none;stroke-opacity:1"
       d="M 334.91021,18.720985 C 329.72482,18.870143 324.50814,18.915628 319.39459,19.720985 C 319.55805,25.056083 319.03113,30.487593 320.03521,35.744423 C 320.57378,37.723555 323.03021,38.052928 324.53366,39.040875 C 329.53389,41.505748 334.91653,43.509818 340.57428,43.431923 C 348.94458,43.76436 357.34316,43.584615 365.69928,44.127235 C 368.57377,44.95059 370.57904,47.78822 370.61334,50.752235 C 371.20599,56.805563 371.92752,62.870583 372.03521,68.95536 C 372.12962,75.811643 368.94094,82.097054 367.40251,88.642764 C 365.26584,97.491054 365.52354,106.73558 366.01178,115.76004 C 366.04809,116.47566 367.20625,116.03495 367.66803,116.22098 C 371.80928,116.16115 376.02096,116.19538 380.08209,115.44754 C 381.1144,114.92968 380.40828,113.46388 380.71176,112.5734 C 381.14677,102.94078 380.41827,93.116264 382.67025,83.684984 C 384.32958,74.3604 383.84566,64.783723 385.47877,55.422163 C 386.21096,51.573953 386.54466,47.467893 388.51178,44.010048 C 390.30026,41.447075 393.10907,39.820833 396.13678,39.197548 C 403.12001,37.19416 410.17746,35.396513 417.0274,32.978798 C 419.59991,31.439355 419.92241,28.052765 420.70709,25.447548 C 420.96832,24.32191 421.17573,23.182433 421.30084,22.033485 C 413.64393,23.472325 405.90086,25.000695 398.05921,25.260168 C 387.06828,25.704603 376.02458,24.85192 365.29895,22.43344 C 356.22281,20.607498 347.19742,18.493998 337.87898,18.706963 C 336.88934,18.700713 335.89975,18.70603 334.91021,18.720985 z"
       id="t2_2" />
    <path
       sodipodi:nodetypes="csssssssssssc"
       style="opacity:1;fill:none;fill-opacity:1;fill-rule:evenodd;stroke:#000000;stroke-width:3;stroke-linecap:butt;stroke-linejoin:miter;stroke-miterlimit:4;stroke-dasharray:none;stroke-opacity:1"
       d="M 102.58691,103.54251 C 102.58691,96.072234 113.96658,75.783175 118.30119,67.113935 C 121.9226,59.871125 128.55142,59.332435 135.62262,60.863935 C 144.70581,62.831205 150.65919,68.672065 152.05119,75.863935 C 152.9181,80.342844 153.86423,83.950094 154.01548,88.542504 C 154.24531,95.521034 153.75339,99.458434 152.94404,105.86393 C 152.15874,112.07917 152.74952,118.36393 146.3369,118.36393 C 140.56078,118.36393 141.44632,117.82822 135.44404,117.82822 C 130.91644,117.82822 134.04315,109.14612 134.72976,106.39965 C 136.26262,100.2682 135.30272,98.371384 129.01548,97.113934 C 123.18574,95.947994 121.09352,93.866614 119.72976,100.68536 C 118.70296,105.8194 118.39537,112.82822 113.30119,112.82822 C 105.63523,112.82822 102.58691,111.46559 102.58691,103.54251 z"
       id="a_outline" />
    <path
       sodipodi:nodetypes="cscc"
       style="fill:none;fill-opacity:1;fill-rule:evenodd;stroke:#000000;stroke-width:3;stroke-linecap:butt;stroke-linejoin:miter;stroke-miterlimit:4;stroke-dasharray:none;stroke-opacity:1"
       d="M 129.68511,83.988944 C 132.78413,84.941914 136.20686,85.119404 138.33709,84.087204 C 141.3375,82.633364 136.95779,77.333765 135.44404,76.399655 C 125.91953,69.726365 115.43689,79.950434 129.68511,83.988944 z"
       id="a_inside_outline" />
    <path
       style="fill:#cccccf;fill-opacity:1;fill-rule:evenodd;stroke:none;stroke-width:1;stroke-miterlimit:4;stroke-dasharray:none;stroke-opacity:1"
       d="M 128.97433,61.743918 C 125.09081,61.578587 121.3727,64.091919 119.77375,67.599674 C 115.41795,75.768773 111.16672,84.012924 107.40757,92.486494 C 105.94674,96.104914 104.27117,99.805674 104.08196,103.73943 C 104.19987,105.91478 104.17065,108.61152 106.10936,110.05919 C 108.25859,111.48935 111.00983,111.128 113.47322,111.3132 C 115.23617,111.34297 116.25461,109.49922 116.67177,108.02074 C 117.9282,104.32026 117.87717,100.25615 119.49467,96.673884 C 120.33527,94.900604 122.4374,94.202524 124.26212,94.618854 C 127.49273,95.229714 130.79294,95.835214 133.81359,97.176594 C 135.74899,98.033014 136.90169,100.1429 136.65144,102.23129 C 136.88138,106.73406 134.32288,110.8828 134.59251,115.35145 C 134.65639,116.00244 135.11598,116.48078 135.81817,116.3342 C 139.38175,116.50906 142.96806,116.91049 146.54671,116.84888 C 148.10735,116.90204 149.61104,116.02527 150.11571,114.51176 C 151.2911,110.88885 151.21767,106.97639 151.80131,103.22301 C 152.71761,95.571324 153.14002,87.679604 151.3943,80.124514 C 150.66684,76.815462 150.28952,73.298608 148.24298,70.48884 C 144.01425,64.298376 136.25298,61.522417 128.97433,61.743918 z M 128.85832,72.786937 C 134.19925,72.786173 139.50701,76.593028 140.7576,81.857794 C 141.20325,83.908484 139.38913,85.605964 137.48723,85.890514 C 133.10113,86.735124 128.50274,85.601124 124.68197,83.399064 C 122.71014,82.214124 120.8658,80.084914 121.42817,77.620675 C 122.04221,74.23593 125.80195,72.809748 128.85832,72.786937 z"
       id="a_1" />
    <path
       style="fill:#aaaaaa;fill-opacity:1;fill-rule:evenodd;stroke:none;stroke-width:1;stroke-miterlimit:4;stroke-dasharray:none;stroke-opacity:1"
       d="M 128.7644,63.749228 C 125.47455,63.690943 122.61527,66.014061 121.30976,68.909077 C 116.59264,77.86871 111.85655,86.893184 108.00971,96.276144 C 106.79169,99.511184 105.5625,102.96241 106.31376,106.46289 C 106.36244,107.89236 107.57963,108.98474 108.96541,109.03168 C 110.52555,109.20278 112.17964,109.43793 113.73838,109.24713 C 114.87466,108.11834 114.99527,106.31116 115.43986,104.84428 C 116.29459,101.53479 116.43191,97.879914 118.32905,94.933744 C 119.84333,92.847384 122.66675,92.209134 125.07718,92.803554 C 128.76646,93.554314 132.62315,94.187184 135.89071,96.165654 C 138.15493,97.850104 138.96935,100.86483 138.52579,103.56818 C 138.24394,107.23327 136.87017,110.73854 136.58125,114.40127 C 140.14964,114.6824 143.77945,114.97491 147.35358,114.7272 C 148.57487,114.22653 148.52769,112.50578 148.84193,111.39862 C 149.56642,106.16637 150.15373,100.88352 150.4768,95.602664 C 150.74023,90.627594 150.61093,85.578854 149.50663,80.720814 C 148.74458,77.028839 148.20594,72.923034 145.41532,70.116677 C 141.26884,65.417543 134.85943,63.575704 128.7644,63.749228 z M 128.69811,70.936306 C 134.99618,70.724768 141.17861,75.313567 142.63032,81.460044 C 143.29024,84.341954 140.97629,87.224574 138.14462,87.674854 C 135.76304,88.214184 133.28374,88.298404 130.9023,87.713524 C 126.71186,86.888714 122.07916,85.162374 120.03053,81.123064 C 118.53825,78.276439 119.81111,74.684693 122.35072,72.902947 C 124.13871,71.49963 126.45703,70.940085 128.69811,70.936306 z"
       id="a_2" />
    <path
       style="fill:#000000;fill-opacity:1;fill-rule:evenodd;stroke:#000000;stroke-width:3;stroke-linecap:butt;stroke-linejoin:miter;stroke-miterlimit:4;stroke-dasharray:none;stroke-opacity:1"
       d="M 170.99529,117.06532 C 164.48054,117.06532 169.32863,104.10544 169.32863,97.575424 C 169.32863,92.293344 171.69234,86.735774 170.17519,81.453184 C 167.50302,72.148847 178.49944,67.023167 181.74102,73.643187 C 184.44627,79.167887 189.31977,80.639034 192.18565,79.756104 C 199.94662,77.365087 205.99209,79.200654 208.05856,83.574534 C 209.45053,86.520764 211.6806,92.453174 211.65643,95.878354 C 211.64397,97.644254 199.94329,92.518934 196.41842,91.635654 C 189.55566,89.915944 180.33386,84.626024 180.33386,93.332724 C 180.33386,101.81813 180.33386,110.30352 180.33386,118.78892 C 180.33386,119.5956 171.06749,117.07981 170.99529,117.06532 z"
       id="r_outline"
       sodipodi:nodetypes="csssssssssc" />
    <path
       style="fill:#cccccf;fill-opacity:1;fill-rule:evenodd;stroke:none;stroke-width:1;stroke-miterlimit:4;stroke-dasharray:none;stroke-opacity:1"
       d="M 176.70114,72.12179 C 173.20113,72.49714 170.60707,76.17206 171.31052,79.606164 C 172.25177,83.666604 172.1097,87.895614 171.37381,91.989994 C 170.68971,97.388154 170.23281,102.83583 169.35885,108.20594 C 169.2439,110.43959 168.58947,113.01166 169.6777,115.08272 C 171.21248,116.01275 173.22618,116.08311 174.94587,116.61821 C 176.18654,116.91096 177.45541,117.17767 178.71677,117.41866 C 178.89691,108.75205 178.65856,100.06351 179.15427,91.410854 C 179.393,88.497824 182.45284,86.690074 185.20114,87.153044 C 190.46567,87.891434 195.42309,90.015894 200.4846,91.561954 C 203.70983,92.621894 206.8739,93.857754 210.15427,94.707724 C 209.34566,90.857984 208.32209,86.854114 206.22458,83.457724 C 203.58919,79.847154 198.52192,79.695264 194.5527,80.598354 C 191.68512,81.503604 188.42325,81.689604 185.78708,79.996794 C 183.04647,78.52669 181.44431,75.80697 179.73239,73.348352 C 178.99724,72.414392 177.85443,72.02321 176.70114,72.12179 z"
       id="r_1" />
    <path
       style="fill:#aaaaaa;fill-opacity:1;fill-rule:evenodd;stroke:none;stroke-width:1;stroke-miterlimit:4;stroke-dasharray:none;stroke-opacity:1"
       d="M 176.90563,74.144912 C 174.28742,74.449912 172.5959,77.43357 173.39258,79.910014 C 174.19119,84.505314 173.84491,89.190044 173.1426,93.770414 C 172.53282,99.659614 171.58971,105.54003 171.06095,111.39507 C 171.0488,112.15029 170.86575,113.22535 171.46422,113.72079 C 173.18621,114.23891 174.94914,114.60075 176.70675,115.00242 C 176.96498,106.98733 176.74177,98.950954 177.31442,90.949744 C 177.6219,87.229544 181.62038,84.815484 185.13127,85.237654 C 189.75655,85.702364 194.10732,87.524094 198.52381,88.862824 C 201.49405,89.842974 204.45955,90.842294 207.43275,91.817054 C 206.6265,89.020854 205.84616,86.017404 203.85302,83.806864 C 201.4889,81.741394 198.12733,82.033694 195.26278,82.464464 C 191.8398,83.277244 187.93851,83.720804 184.83296,81.674494 C 181.72822,80.074694 180.06222,76.89321 177.87237,74.354835 C 177.60296,74.169979 177.23369,74.127945 176.90563,74.144912 z"
       id="r_2" />
    <path
       style="fill:#000000;fill-opacity:1;fill-rule:evenodd;stroke:#000000;stroke-width:3;stroke-linecap:butt;stroke-linejoin:miter;stroke-miterlimit:4;stroke-dasharray:none;stroke-opacity:1"
       d="M 224.44665,109.54025 C 224.93595,107.04357 227.18524,97.271064 223.01004,88.920664 C 221.59506,86.090714 222.6743,82.168474 221.4029,79.277814 C 218.78414,73.323827 233.60155,76.577307 237.91069,77.060997 C 243.71806,77.712857 247.37498,74.394547 247.37498,80.810984 C 247.37498,88.125584 246.04034,88.980294 240.23212,85.810984 C 234.96585,82.937394 230.61071,81.881174 232.29576,88.920664 C 233.31731,93.188294 230.89788,94.870324 234.5279,94.456384 C 241.40165,93.672554 240.28208,93.941574 241.67076,100.88495 C 242.29374,103.99985 233.16301,99.947964 232.38505,103.02781 C 229.07155,116.14541 238.5441,114.97977 243.72433,109.63495 C 247.6801,105.55349 247.77093,114.86795 248.72433,119.63495 C 249.41175,123.07208 239.43533,121.77781 235.86718,121.77781 C 230.80012,121.77781 226.42686,122.00572 224.05609,119.63495 C 222.38911,117.96797 223.7474,112.39419 224.44665,109.54025 z"
       id="e_outline"
       sodipodi:nodetypes="csssssssssssssc" />
    <path
       style="fill:#cccccf;fill-opacity:1;fill-rule:evenodd;stroke:none;stroke-width:1;stroke-miterlimit:4;stroke-dasharray:none;stroke-opacity:1"
       d="M 226.13864,77.457727 C 224.99539,77.5889 223.61168,77.293047 222.63864,77.973352 C 223.753,81.394624 223.38787,85.084284 224.47458,88.488974 C 227.93734,96.085754 227.1544,104.7661 225.28492,112.65599 C 225.11139,114.54924 224.49196,116.61317 225.10739,118.46554 C 227.49467,120.60237 231.03381,120.03139 233.98212,120.3101 C 238.17918,120.27966 242.48425,120.89991 246.6152,120.03585 C 247.77888,119.96649 246.83387,118.45871 246.93771,117.74171 C 246.49687,115.25231 246.29808,112.68157 245.34958,110.34054 C 242.45822,112.76332 238.94094,115.41337 234.9277,114.72335 C 232.09812,114.33181 230.36883,111.51142 230.40239,108.82552 C 230.34611,106.34163 230.16767,103.42635 231.81833,101.38741 C 234.16258,99.555924 237.37021,100.79774 240.0527,100.54366 C 239.76671,98.997734 239.69976,97.208194 238.93552,95.848354 C 236.76754,95.204544 234.24517,96.571844 232.16336,95.542264 C 230.41571,94.107934 231.37311,91.505894 230.88545,89.584154 C 230.46318,87.170244 229.93711,83.800484 232.58395,82.457724 C 235.37698,81.393204 238.12996,83.346774 240.65427,84.340544 C 242.07402,84.875954 243.5915,85.998394 245.08395,85.949914 C 246.08054,83.894344 245.78247,81.443924 245.70895,79.223354 C 245.70756,77.956027 244.21421,78.456805 243.4277,78.43429 C 239.48268,78.867375 235.56685,78.19402 231.69333,77.707727 C 229.85152,77.537087 227.9981,77.43628 226.13864,77.457727 z"
       id="e_1" />
    <path
       style="fill:#aaaaaa;fill-opacity:1;fill-rule:evenodd;stroke:none;stroke-width:1;stroke-miterlimit:4;stroke-dasharray:none;stroke-opacity:1"
       d="M 225.29272,79.459264 C 224.62974,79.499504 225.36979,80.724524 225.26844,81.245124 C 225.68078,84.155914 225.85877,87.163624 227.13214,89.874764 C 228.68685,94.556804 229.08253,99.597664 228.60176,104.50631 C 228.92266,102.14405 230.02944,99.497304 232.55714,98.832884 C 234.25862,98.414544 236.03356,98.667144 237.76653,98.606384 C 237.72461,97.902804 237.4531,97.413214 236.65651,97.697754 C 234.58827,97.687384 232.07643,98.315804 230.48554,96.578984 C 228.67707,94.647724 229.31039,91.756294 228.87549,89.376364 C 228.41284,86.688334 228.31256,83.370954 230.65127,81.481144 C 233.06916,79.559264 236.4501,80.231744 239.00659,81.489204 C 240.56675,82.142334 242.07882,82.881814 243.64988,83.508554 C 243.72183,82.495384 243.76812,81.457104 243.76036,80.431534 C 240.01148,80.378064 236.23489,80.417724 232.53504,79.812814 C 230.13894,79.562804 227.71539,79.434004 225.29272,79.459264 z M 228.36974,106.64972 C 228.01979,110.20866 226.71591,113.69047 226.88371,117.2729 C 228.87718,118.49695 231.40277,118.10103 233.65611,118.33661 C 237.45501,118.43184 241.26379,118.50671 245.05857,118.28384 C 244.84354,116.74514 244.53824,115.21781 244.20783,113.69869 C 241.51788,115.57257 238.31151,117.22339 234.92705,116.61551 C 231.41649,116.37133 228.80842,113.08834 228.54099,109.71569 C 228.3896,108.61625 228.36012,107.50396 228.40289,106.39561 L 228.38002,106.5709 L 228.36974,106.64972 z"
       id="e_2" />
    <path
       style="fill:#000000;fill-opacity:1;fill-rule:evenodd;stroke:#000000;stroke-width:3;stroke-linecap:butt;stroke-linejoin:miter;stroke-miterlimit:4;stroke-dasharray:none;stroke-opacity:1"
       d="M 267.45892,118.99989 C 266.72994,118.27091 267.45892,106.22122 267.45892,102.57132 C 267.45892,97.333224 267.45892,92.095134 267.45892,86.857034 C 267.45892,83.285614 267.2562,79.708424 267.45892,76.142748 C 267.67335,72.371148 271.23148,70.175178 273.70824,71.839568 C 274.73561,72.529968 277.378,76.097738 278.63124,76.611938 C 282.53015,78.211668 283.62165,75.534768 289.04594,77.578758 C 292.05222,78.711598 294.37686,78.017228 297.66071,82.786884 C 301.93286,88.992004 299.37957,96.381234 300.7857,103.41187 C 301.56395,107.30313 301.19577,112.61685 300.60713,116.53687 C 299.96349,120.82323 298.94832,121.39539 296.49998,121.17972 C 295.70847,121.11 293.44645,121.04114 293.17321,120.42846 C 289.89463,115.36845 292.77984,100.45509 291.36955,91.939974 C 290.36336,87.915194 288.83393,86.803464 286.74464,84.714174 C 283.94738,81.916924 278.28706,86.467144 277.45892,87.571324 C 275.20794,90.572634 276.03035,95.959124 276.03035,99.714174 C 276.03035,104.78934 275.31607,109.1605 275.31607,113.99989 C 275.31607,118.38298 274.69097,119.66958 271.74464,121.14274 C 270.31607,121.85703 268.88749,119.71417 267.45892,118.99989 z"
       id="arena_n_outline"
       sodipodi:nodetypes="cssssssssssccsssssc" />
    <path
       style="fill:#cccccf;fill-opacity:1;fill-rule:evenodd;stroke:none;stroke-width:1;stroke-miterlimit:4;stroke-dasharray:none;stroke-opacity:1"
       d="M 271.4902,72.99679 C 270.05576,72.885387 269.32667,74.649985 269.06833,75.80929 C 268.68917,89.852044 268.81138,103.90332 268.70114,117.94991 C 269.53691,118.49735 270.38952,119.77644 271.40427,119.58272 C 272.83045,119.09742 273.60394,117.75298 273.60739,116.32491 C 274.12828,108.55165 274.63413,100.73632 274.52427,92.926704 C 274.42013,89.955864 275.44026,86.867724 277.97458,85.113974 C 280.45385,83.170494 284.15406,81.398504 287.15427,83.160854 C 290.76421,85.861384 293.25269,90.191604 293.09177,94.778044 C 293.37053,102.10972 292.68719,109.52462 293.48239,116.80147 C 293.7601,117.66318 293.82176,119.00344 294.63083,119.48897 C 295.75748,119.58225 297.0949,119.8119 298.12302,119.44991 C 299.12935,118.00026 298.99698,115.98868 299.3652,114.30147 C 299.88531,109.7183 299.4824,105.13209 299.0472,100.56745 C 298.58748,95.615534 299.22058,90.480544 297.58395,85.723354 C 296.35333,83.123854 294.41525,80.561634 291.45651,79.885444 C 288.97308,79.102275 286.51296,77.943812 283.84456,78.46442 C 281.47282,78.531807 278.70105,78.906465 276.88864,76.99679 C 275.30108,75.790765 274.029,74.005865 272.41989,72.988977 C 272.10994,72.98903 271.80003,72.985747 271.4902,72.99679 z"
       id="arena_n_1" />
    <path
       style="fill:#aaaaaa;fill-opacity:1;fill-rule:evenodd;stroke:none;stroke-width:1;stroke-miterlimit:4;stroke-dasharray:none;stroke-opacity:1"
       d="M 271.55297,75.017747 C 270.87541,75.699941 271.14144,76.898787 271.01708,77.801892 C 270.70959,90.882624 270.67496,103.96808 270.68014,117.05193 C 271.08169,117.66473 271.40822,117.23827 271.5364,116.70942 C 272.05648,112.26677 272.11285,107.71539 272.36071,103.2248 C 272.6434,98.683294 272.44676,94.111594 272.91194,89.585254 C 273.75303,85.321554 277.5366,82.360034 281.46352,81.017104 C 284.20227,79.995184 287.49949,80.521564 289.5543,82.688874 C 292.73287,85.567044 295.03,89.666374 294.92711,94.043224 C 295.20768,101.48807 294.91072,108.95627 295.44545,116.38901 C 295.55995,116.92927 295.52755,117.89316 296.3459,117.66512 C 297.14377,117.82514 296.85948,116.63122 297.10849,116.16018 C 297.84498,111.65645 297.5944,107.00412 297.28046,102.46854 C 296.69377,97.383174 297.19787,92.164944 295.93158,87.187714 C 295.17726,84.581974 293.1697,82.274444 290.49018,81.613724 C 288.60434,80.999684 286.71848,80.169264 284.68419,80.421754 C 281.89058,80.267304 278.6736,80.977804 276.33699,79.01732 C 274.70212,77.828175 273.3865,76.253347 271.80157,75.017747 C 271.71891,75.012133 271.63556,75.008143 271.55297,75.017747 z"
       id="arena_n_2" />
    <path
       sodipodi:nodetypes="csscccssscccc"
       style="fill:none;fill-opacity:1;fill-rule:evenodd;stroke:#000000;stroke-width:3;stroke-linecap:butt;stroke-linejoin:miter;stroke-miterlimit:4;stroke-dasharray:none;stroke-opacity:1"
       d="M 314.37697,94.053744 C 314.07711,89.254284 312.73931,84.314694 313.66269,79.768034 C 314.44966,75.893005 315.12664,73.334165 318.1378,72.648695 C 322.78093,71.591735 327.47221,71.196605 332.23411,71.196605 C 343.18835,71.519135 343.18691,73.204875 348.66269,89.768034 C 351.3227,99.809674 352.15028,109.73562 350.80554,119.76803 C 350.83863,121.95233 342.71968,119.50112 339.37697,117.62517 C 335.22431,115.29467 339.37697,108.10136 339.37697,103.33945 C 339.37697,99.209424 339.27484,97.386224 338.3272,93.595714 C 337.01564,88.349414 334.54041,87.711834 329.88206,87.711834 C 317.1555,87.797354 328.60013,104.66961 329.37697,109.76803 C 330.41701,113.9282 328.84332,114.41088 325.80554,115.48231 C 311.33259,119.8053 314.00228,107.62547 314.37697,94.053744 z"
       id="a2_outline" />
    <path
       sodipodi:nodetypes="ccccc"
       style="fill:none;fill-opacity:1;fill-rule:evenodd;stroke:#000000;stroke-width:3;stroke-linecap:butt;stroke-linejoin:miter;stroke-miterlimit:4;stroke-dasharray:none;stroke-opacity:1"
       d="M 323.83535,76.429655 C 325.54108,76.245795 332.16799,76.732805 332.41269,77.474605 C 332.75103,78.828015 333.74081,81.172094 333.30554,81.313894 C 331.37183,81.993804 323.86468,82.114214 323.73109,81.581754 C 322.9787,79.940994 323.09841,76.500455 323.83535,76.429655 z"
       id="a2_inside_outline" />
    <path
       style="fill:#cccccf;fill-opacity:1;fill-rule:evenodd;stroke:none;stroke-width:1;stroke-miterlimit:4;stroke-dasharray:none;stroke-opacity:1"
       d="M 330.38083,72.80929 C 326.19761,72.931362 321.93804,73.111725 317.9277,74.379602 C 315.83587,75.42301 315.55977,78.139905 315.16208,80.192104 C 314.46101,85.279784 315.83064,90.324454 315.64756,95.434154 C 315.83125,100.62588 315.42494,105.88305 315.93552,111.03585 C 316.49655,113.28807 318.59818,115.21142 321.03708,114.80929 C 323.44596,114.58417 326.24047,114.24597 328.06052,112.49679 C 328.1467,108.28046 325.57021,104.63364 324.33306,100.72329 C 322.99861,97.057224 321.48837,92.707014 323.49802,88.988974 C 325.83464,85.800504 330.36156,86.044874 333.83765,86.643514 C 337.49845,87.084734 339.27884,90.825144 339.93552,94.043664 C 341.33638,99.517834 340.99453,105.29524 339.53633,110.70315 C 339.38811,112.35635 338.4512,114.57785 339.7402,115.95772 C 342.30081,117.66472 345.41623,118.50073 348.41989,119.03585 C 349.35255,119.44053 349.49984,118.60854 349.51364,117.88741 C 350.4352,107.3684 349.51657,96.695734 346.07614,86.707724 C 344.57202,82.692634 343.61036,78.26762 340.81833,74.90304 C 338.11593,72.260395 333.79956,72.995122 330.38083,72.80929 z M 324.39645,74.90304 C 327.12121,75.040697 329.93098,75.026885 332.53708,75.87179 C 334.27121,76.984037 334.68941,79.370894 334.69333,81.278044 C 333.98069,83.443164 331.23408,83.067534 329.42008,83.287774 C 327.30208,83.170764 324.88785,83.886274 322.9902,82.707724 C 321.50272,81.163764 321.7666,78.68847 321.9902,76.723352 C 322.24895,75.643657 323.28489,74.856017 324.39645,74.90304 z"
       id="a2_1" />
    <path
       style="fill:#aaaaaa;fill-opacity:1;fill-rule:evenodd;stroke:none;stroke-width:1;stroke-miterlimit:4;stroke-dasharray:none;stroke-opacity:1"
       d="M 334.38384,74.920831 C 336.17057,76.552876 336.63121,79.161998 336.59355,81.472618 C 336.3123,82.967231 335.11816,84.218573 333.67121,84.654598 C 336.21695,84.931945 338.5134,86.43358 339.84735,88.615501 C 342.01163,91.984039 342.46285,96.125732 342.71445,100.03417 C 342.96297,104.25733 342.03101,108.4142 341.24499,112.51902 C 341.20861,113.14474 340.92298,113.94049 341.18422,114.49119 C 343.13618,115.7312 345.40354,116.34112 347.62552,116.89425 C 348.29124,107.18899 347.53758,97.318974 344.42697,88.068598 C 343.13639,84.37822 342.1442,80.548951 340.08489,77.202356 C 338.88704,75.195302 336.40074,74.885923 334.27888,74.832443 L 334.38384,74.920831 z M 320.24171,75.799191 C 319.18779,75.984262 317.97598,76.396646 317.77788,77.605627 C 316.11351,82.868491 317.54574,88.454021 317.52274,93.863503 C 317.7042,99.490722 317.31234,105.15726 317.98228,110.75678 C 318.30061,111.95097 319.47766,113.1088 320.79966,112.81734 C 322.57364,112.70703 324.53687,112.48084 326.03667,111.51913 C 325.57308,107.99944 323.66502,104.88661 322.57268,101.53632 C 321.1588,97.656658 319.70774,93.234077 321.30237,89.184501 C 321.98169,87.40422 323.63668,85.952371 325.2467,85.267792 C 323.14609,85.283608 320.94658,84.15842 320.33562,82.025045 C 319.7803,80.039715 319.76812,77.764094 320.24171,75.799191 z"
       id="a2_2" />
  </g>
</svg>
