<?xml version="1.0" encoding="UTF-8" standalone="no"?>
<!-- Created with Inkscape (http://www.inkscape.org/) -->

<svg
   xmlns:dc="http://purl.org/dc/elements/1.1/"
   xmlns:cc="http://creativecommons.org/ns#"
   xmlns:rdf="http://www.w3.org/1999/02/22-rdf-syntax-ns#"
   xmlns:svg="http://www.w3.org/2000/svg"
   xmlns="http://www.w3.org/2000/svg"
   xmlns:sodipodi="http://sodipodi.sourceforge.net/DTD/sodipodi-0.dtd"
   xmlns:inkscape="http://www.inkscape.org/namespaces/inkscape"
   width="256"
   height="256"
   id="svg2"
   version="1.1"
   inkscape:version="0.48.2 r9819"
   sodipodi:docname="Clover_blue.svg"
   inkscape:export-filename="/home/zack/turtlearena/svn/trunk/base-src/team_icon/Clover_blue.png"
   inkscape:export-xdpi="90"
   inkscape:export-ydpi="90">
  <defs
     id="defs4" />
  <sodipodi:namedview
     id="base"
     pagecolor="#ffffff"
     bordercolor="#666666"
     borderopacity="1.0"
     inkscape:pageopacity="0.0"
     inkscape:pageshadow="2"
     inkscape:zoom="2.8"
     inkscape:cx="155.56712"
     inkscape:cy="120.54751"
     inkscape:document-units="px"
     inkscape:current-layer="layer1"
     showgrid="false"
     showguides="true"
     inkscape:guide-bbox="true"
     inkscape:window-width="1152"
     inkscape:window-height="810"
     inkscape:window-x="0"
     inkscape:window-y="26"
     inkscape:window-maximized="1" />
  <metadata
     id="metadata7">
    <rdf:RDF>
      <cc:Work
         rdf:about="">
        <dc:format>image/svg+xml</dc:format>
        <dc:type
           rdf:resource="http://purl.org/dc/dcmitype/StillImage" />
        <dc:title></dc:title>
      </cc:Work>
    </rdf:RDF>
  </metadata>
  <g
     inkscape:label="Layer 1"
     inkscape:groupmode="layer"
     id="layer1">
    <path
       style="fill:#204a87;stroke:#000000;stroke-width:7.695;stroke-linecap:butt;stroke-linejoin:miter;stroke-miterlimit:4;stroke-opacity:1;stroke-dasharray:none"
       d="M 72.565071,13.515514 C 48.199845,0.71849627 -11.439062,86.550004 8.8669707,106.73921 c 28.9921553,15.68135 70.0029423,20.1558 94.9422093,17.56017 19.55962,-2.4973 23.90628,-8.98847 19.46949,-30.727712 C 117.97869,69.625332 98.975555,34.818985 72.565071,13.515514 z"
       id="path2989-1"
       inkscape:connector-curvature="0"
       sodipodi:nodetypes="ccccc" />
    <path
       style="fill:#204a87;stroke:#000000;stroke-width:7.695;stroke-linecap:butt;stroke-linejoin:miter;stroke-miterlimit:4;stroke-opacity:1;stroke-dasharray:none"
       d="m 71.326915,222.96771 c 3.17988,27.33709 107.693895,28.15595 112.907525,0 -3.40875,-32.78459 -22.85107,-69.17005 -39.06399,-88.29716 -13.09672,-14.74081 -20.90846,-14.66763 -36.35471,1.26012 -16.781584,17.88562 -34.799099,53.21223 -37.488825,87.03704 z"
       id="path2989"
       inkscape:connector-curvature="0"
       sodipodi:nodetypes="ccccc" />
    <path
       style="fill:#204a87;stroke:#000000;stroke-width:7.695;stroke-linecap:butt;stroke-linejoin:miter;stroke-miterlimit:4;stroke-opacity:1;stroke-dasharray:none"
       d="m 183.43493,13.51551 c 24.36523,-12.79701727 84.00413,73.03449 63.6981,93.2237 -28.99215,15.68135 -70.00295,20.1558 -94.94221,17.56017 -19.55963,-2.4973 -23.90628,-8.98847 -19.46949,-30.727715 5.29998,-23.946337 24.30311,-58.752683 50.7136,-80.056155 z"
       id="path2989-1-8"
       inkscape:connector-curvature="0"
       sodipodi:nodetypes="ccccc" />
    <path
       style="fill:#204a87;stroke:#000000;stroke-width:5.643;stroke-linecap:butt;stroke-linejoin:miter;stroke-miterlimit:4;stroke-opacity:1;stroke-dasharray:none"
       d="m 166.36507,132.80549 c 39.82809,18.21133 50.03604,43.51159 71.02078,79.75795 -11.57943,16.32974 -11.70236,17.60839 -28.28427,8.33376 -6.88021,-41.51145 -18.71315,-55.8877 -49.10335,-81.2885 l -9.73804,-9.3159 z"
       id="path3827"
       inkscape:connector-curvature="0"
       sodipodi:nodetypes="cccccc" />
  </g>
</svg>
