<?xml version="1.0" encoding="UTF-8" standalone="no"?>
<!-- Created with Inkscape (http://www.inkscape.org/) -->

<svg
   xmlns:dc="http://purl.org/dc/elements/1.1/"
   xmlns:cc="http://creativecommons.org/ns#"
   xmlns:rdf="http://www.w3.org/1999/02/22-rdf-syntax-ns#"
   xmlns:svg="http://www.w3.org/2000/svg"
   xmlns="http://www.w3.org/2000/svg"
   xmlns:xlink="http://www.w3.org/1999/xlink"
   xmlns:sodipodi="http://sodipodi.sourceforge.net/DTD/sodipodi-0.dtd"
   xmlns:inkscape="http://www.inkscape.org/namespaces/inkscape"
   version="1.1"
   width="256"
   height="256"
   id="svg4571"
   inkscape:version="0.48.0 r9654"
   sodipodi:docname="medal_capture.svg"
   inkscape:export-filename="/home/zack/Turtle_Arena_svn/trunk/base/menu/medals/medal_capture.png"
   inkscape:export-xdpi="90"
   inkscape:export-ydpi="90">
  <sodipodi:namedview
     pagecolor="#ffffff"
     bordercolor="#666666"
     borderopacity="1"
     objecttolerance="10"
     gridtolerance="10"
     guidetolerance="10"
     inkscape:pageopacity="0"
     inkscape:pageshadow="2"
     inkscape:window-width="1152"
     inkscape:window-height="782"
     id="namedview4097"
     showgrid="false"
     inkscape:zoom="1.4970776"
     inkscape:cx="129.72777"
     inkscape:cy="128.52108"
     inkscape:window-x="0"
     inkscape:window-y="27"
     inkscape:window-maximized="1"
     inkscape:current-layer="svg4571" />
  <metadata
     id="metadata4576">
    <rdf:RDF>
      <cc:Work
         rdf:about="">
        <dc:format>image/svg+xml</dc:format>
        <dc:type
           rdf:resource="http://purl.org/dc/dcmitype/StillImage" />
        <dc:title></dc:title>
      </cc:Work>
    </rdf:RDF>
  </metadata>
  <path
     inkscape:connector-curvature="0"
     style="fill:#eeeeec;fill-opacity:1;stroke:none"
     id="path5469"
     d="M 255.40001,128 A 127.4,127.4 0 1 1 0.6,128 a 127.4,127.4 0 1 1 254.80001,0 z" />
  <g
     transform="matrix(1.4641,0,0,1.4641,7.3663078,28.889856)"
     style="display:inline;enable-background:new"
     id="g5316">
    <path
       d="M 13.73601,27.528113 C 57.60965,36.458871 64.04409,-1.1910242 91.2169,19.989215 l 5.12653,57.452426 C 64.58096,65.325924 57.26112,99.675719 20.27031,90.855223 16.90728,57.184126 15.52004,46.332483 13.73601,27.528113 z"
       id="path5441-7"
       style="fill:#ff3333;fill-opacity:1;stroke:#000000;stroke-width:4;stroke-linecap:butt;stroke-linejoin:miter;stroke-miterlimit:4;stroke-opacity:1;stroke-dasharray:none"
       inkscape:connector-curvature="0" />
    <path
       d="m 112.00001,115.25 -8.5,-96.25"
       id="path5480"
       style="fill:none;stroke:#000000;stroke-width:4;stroke-linecap:butt;stroke-linejoin:miter;stroke-miterlimit:4;stroke-opacity:1;stroke-dasharray:none"
       inkscape:connector-curvature="0" />
    <path
       d="m 110.03101,13.96875 a 7,5.96875 0 0 1 -14,0 7,5.96875 0 1 1 14,0 z"
       id="path5482"
       style="fill:#000000;fill-opacity:1;stroke:none"
       inkscape:connector-curvature="0" />
  </g>
  <g
     transform="matrix(-1.4641,0,0,1.4641,249.10641,58.373685)"
     style="display:inline;enable-background:new"
     id="g5311">
    <path
       d="M 13.73601,27.528113 C 57.60965,36.458871 64.04409,-1.1910242 91.2169,19.989215 l 5.12653,57.452426 C 64.58096,65.325924 57.26112,99.675719 20.27031,90.855223 16.90728,57.184126 15.52004,46.332483 13.73601,27.528113 z"
       id="path5441-7-9"
       style="fill:#3333ff;fill-opacity:1;stroke:#000000;stroke-width:4;stroke-linecap:butt;stroke-linejoin:miter;stroke-miterlimit:4;stroke-opacity:1;stroke-dasharray:none"
       inkscape:connector-curvature="0" />
    <path
       d="m 112.00001,115.25 -8.5,-96.25"
       id="path5480-5"
       style="fill:none;stroke:#000000;stroke-width:4;stroke-linecap:butt;stroke-linejoin:miter;stroke-miterlimit:4;stroke-opacity:1;stroke-dasharray:none"
       inkscape:connector-curvature="0" />
    <path
       d="m 110.03101,13.96875 a 7,5.96875 0 0 1 -14,0 7,5.96875 0 1 1 14,0 z"
       id="path5482-7"
       style="fill:#000000;fill-opacity:1;stroke:none"
       inkscape:connector-curvature="0" />
  </g>
</svg>
