<?xml version="1.0" encoding="UTF-8" standalone="no"?>
<!-- Created with Inkscape (http://www.inkscape.org/) -->

<svg
   xmlns:dc="http://purl.org/dc/elements/1.1/"
   xmlns:cc="http://creativecommons.org/ns#"
   xmlns:rdf="http://www.w3.org/1999/02/22-rdf-syntax-ns#"
   xmlns:svg="http://www.w3.org/2000/svg"
   xmlns="http://www.w3.org/2000/svg"
   xmlns:sodipodi="http://sodipodi.sourceforge.net/DTD/sodipodi-0.dtd"
   xmlns:inkscape="http://www.inkscape.org/namespaces/inkscape"
   width="512"
   height="512"
   id="svg2"
   version="1.1"
   inkscape:version="0.48.2 r9819"
   sodipodi:docname="redteam01.svg"
   inkscape:export-xdpi="90"
   inkscape:export-ydpi="90">
  <defs
     id="defs4" />
  <sodipodi:namedview
     id="base"
     pagecolor="#000000"
     bordercolor="#666666"
     borderopacity="1.0"
     inkscape:pageopacity="0"
     inkscape:pageshadow="2"
     inkscape:zoom="0.70000001"
     inkscape:cx="234.06823"
     inkscape:cy="242.5445"
     inkscape:document-units="px"
     inkscape:current-layer="layer1"
     showgrid="false"
     showguides="true"
     inkscape:guide-bbox="true"
     inkscape:window-width="1152"
     inkscape:window-height="810"
     inkscape:window-x="0"
     inkscape:window-y="26"
     inkscape:window-maximized="1" />
  <metadata
     id="metadata7">
    <rdf:RDF>
      <cc:Work
         rdf:about="">
        <dc:format>image/svg+xml</dc:format>
        <dc:type
           rdf:resource="http://purl.org/dc/dcmitype/StillImage" />
        <dc:title />
      </cc:Work>
    </rdf:RDF>
  </metadata>
  <g
     inkscape:label="Layer 1"
     inkscape:groupmode="layer"
     id="layer1"
     transform="translate(0,256)">
    <path
       style="fill:#a40000;stroke:none"
       d="M 145.13014,-228.96898 C 96.39968,-254.563 -22.87812,-82.899989 17.73394,-42.521577 75.71826,-11.158877 157.73982,-2.2099772 207.61836,-7.4012372 246.7376,-12.395837 255.43092,-25.378177 246.55734,-68.856661 235.95738,-116.74933 197.9511,-186.36203 145.13014,-228.96898 z"
       id="path2989-1"
       inkscape:connector-curvature="0"
       sodipodi:nodetypes="ccccc" />
    <path
       style="fill:#a40000;stroke:none"
       d="m 142.65382,189.93542 c 6.35976,54.67418 215.3878,56.3119 225.81506,0 -6.8175,-65.56918 -45.70214,-138.340097 -78.12798,-176.594317 -26.19344,-29.48162 -41.81692,-29.33526 -72.70942,2.52024 -33.56316,35.77124 -69.5982,106.424457 -74.97766,174.074077 z"
       id="path2989"
       inkscape:connector-curvature="0"
       sodipodi:nodetypes="ccccc" />
    <path
       style="fill:#a40000;stroke:none"
       d="m 366.86986,-228.96898 c 48.73046,-25.59404 168.00826,146.068983 127.3962,186.447403 -57.9843,31.3627 -140.0059,40.3115998 -189.88442,35.1203398 -39.11926,-4.9945998 -47.81256,-17.9769398 -38.93898,-61.4554298 10.59996,-47.892673 48.60622,-117.505363 101.4272,-160.112313 z"
       id="path2989-1-8"
       inkscape:connector-curvature="0"
       sodipodi:nodetypes="ccccc" />
    <path
       style="fill:#a40000;stroke:none"
       d="M 332.73014,9.6109828 C 412.38632,46.033643 432.80222,96.634163 474.7717,169.12688 451.61284,201.78636 451.36698,204.34366 418.20316,185.7944 404.44274,102.7715 380.77686,74.019003 319.99646,23.217403 L 300.52038,4.5856028 z"
       id="path3827"
       inkscape:connector-curvature="0"
       sodipodi:nodetypes="cccccc" />
    <text
       xml:space="preserve"
       style="font-size:144px;font-style:normal;font-variant:normal;font-weight:500;font-stretch:normal;text-align:center;line-height:125%;letter-spacing:0px;word-spacing:0px;text-anchor:middle;fill:#ef2929;fill-opacity:1;stroke:none;font-family:'M+ 1c';-inkscape-font-specification:'M+ 1c Medium'"
       x="254.19998"
       y="-36.720001"
       id="text2995"
       sodipodi:linespacing="125%"><tspan
         sodipodi:role="line"
         id="tspan2997"
         x="254.19998"
         y="-36.720001">Red</tspan><tspan
         sodipodi:role="line"
         x="254.19998"
         y="143.28"
         id="tspan2999">Team</tspan></text>
  </g>
</svg>
