<?xml version="1.0" encoding="UTF-8" standalone="no"?>
<!-- Created with Inkscape (http://www.inkscape.org/) -->

<svg
   xmlns:dc="http://purl.org/dc/elements/1.1/"
   xmlns:cc="http://creativecommons.org/ns#"
   xmlns:rdf="http://www.w3.org/1999/02/22-rdf-syntax-ns#"
   xmlns:svg="http://www.w3.org/2000/svg"
   xmlns="http://www.w3.org/2000/svg"
   version="1.1"
   width="128"
   height="128"
   id="svg4354">
  <defs
     id="defs4356" />
  <metadata
     id="metadata4359">
    <rdf:RDF>
      <cc:Work
         rdf:about="">
        <dc:format>image/svg+xml</dc:format>
        <dc:type
           rdf:resource="http://purl.org/dc/dcmitype/StillImage" />
        <dc:title></dc:title>
      </cc:Work>
    </rdf:RDF>
  </metadata>
  <g
     transform="translate(0,96)"
     id="layer1" />
  <path
     d="m 15.237491,7.0292229 c 8.410532,9.1611431 17.544631,18.0875871 29.531425,21.7048661 1.522801,0.578712 3.130957,0.839009 4.701322,1.251133 1.582115,0.361808 3.122613,0.919074 4.591096,1.60763 1.250866,0.664739 2.377408,1.539685 3.326414,2.587996 1.012071,1.366563 1.104097,3.059056 1.260966,4.689702 0.357862,1.813698 0.636001,3.635094 0.788775,5.477406 -0.0079,1.855728 0.287685,3.667122 0.590482,5.490006 0.330896,1.886358 0.786882,3.748057 1.63255,5.470736 8.459755,16.688816 29.277252,20.539734 40.540069,33.727396 0.97351,1.385447 1.10612,3.068635 1.21512,4.70579 2.75434,13.632526 1.29776,13.456056 2.96306,15.215136 2.03464,3.10048 7.51259,5.64688 10.84041,6.93244 2.16314,1.73032 3.1927,10.90308 -2.71203,9.13948 -4.54794,-1.69281 -9.86904,-2.16272 -12.2559,-5.1729 C 94.103714,106.5635 98.695687,105.02827 95.04226,98.820992 83.528392,90.907021 61.014375,77.35516 58.297654,69.962445 55.362429,64.769332 55.144469,60.160007 55.125415,58.725462 54.295712,49.662326 51.469478,45.167979 44.328298,42.254406 31.419383,34.829785 16.937191,27.750075 10.383792,15.516478 5.3910345,7.1963025 9.0318699,0.02569555 15.237491,7.0292229 z"
     id="path6671"
     style="fill:#8ae234;fill-opacity:1;stroke:none" />
</svg>
