<?xml version="1.0" encoding="UTF-8" standalone="no"?>
<!-- Created with Inkscape (http://www.inkscape.org/) -->

<svg
   xmlns:dc="http://purl.org/dc/elements/1.1/"
   xmlns:cc="http://creativecommons.org/ns#"
   xmlns:rdf="http://www.w3.org/1999/02/22-rdf-syntax-ns#"
   xmlns:svg="http://www.w3.org/2000/svg"
   xmlns="http://www.w3.org/2000/svg"
   xmlns:xlink="http://www.w3.org/1999/xlink"
   xmlns:sodipodi="http://sodipodi.sourceforge.net/DTD/sodipodi-0.dtd"
   xmlns:inkscape="http://www.inkscape.org/namespaces/inkscape"
   width="256"
   height="128"
   id="svg2"
   version="1.1"
   inkscape:version="0.47pre4 r22446"
   style="display:inline"
   sodipodi:docname="new_logo_wip.svg"
   enable-background="new">
  <defs
     id="defs4">
    <linearGradient
       id="linearGradient3357">
      <stop
         style="stop-color:#4e9a06;stop-opacity:1"
         offset="0"
         id="stop3359" />
      <stop
         style="stop-color:#4e9a06;stop-opacity:1"
         offset="1"
         id="stop3361" />
    </linearGradient>
    <linearGradient
       id="linearGradient3349">
      <stop
         style="stop-color:#73d216;stop-opacity:1;"
         offset="0"
         id="stop3351" />
      <stop
         style="stop-color:#4e9a06;stop-opacity:1"
         offset="1"
         id="stop3353" />
    </linearGradient>
    <inkscape:perspective
       sodipodi:type="inkscape:persp3d"
       inkscape:vp_x="0 : 526.18109 : 1"
       inkscape:vp_y="0 : 1000 : 0"
       inkscape:vp_z="744.09448 : 526.18109 : 1"
       inkscape:persp3d-origin="372.04724 : 350.78739 : 1"
       id="perspective10" />
    <inkscape:perspective
       id="perspective3257"
       inkscape:persp3d-origin="0.5 : 0.33333333 : 1"
       inkscape:vp_z="1 : 0.5 : 1"
       inkscape:vp_y="0 : 1000 : 0"
       inkscape:vp_x="0 : 0.5 : 1"
       sodipodi:type="inkscape:persp3d" />
    <linearGradient
       id="linearGradient9853">
      <stop
         style="stop-color:#0e2610;stop-opacity:1;"
         offset="0"
         id="stop9855" />
      <stop
         style="stop-color:#2c7f2e;stop-opacity:1;"
         offset="1"
         id="stop9857" />
    </linearGradient>
    <linearGradient
       id="linearGradient3266">
      <stop
         style="stop-color:#0e2610;stop-opacity:1;"
         offset="0"
         id="stop3268" />
      <stop
         style="stop-color:#2c7f2e;stop-opacity:1;"
         offset="1"
         id="stop3270" />
    </linearGradient>
    <linearGradient
       inkscape:collect="always"
       xlink:href="#linearGradient9853"
       id="linearGradient14318"
       gradientUnits="userSpaceOnUse"
       x1="57.551426"
       y1="55.625"
       x2="88.073586"
       y2="3.5416651" />
    <linearGradient
       id="linearGradient3273">
      <stop
         style="stop-color:#0e2610;stop-opacity:1;"
         offset="0"
         id="stop3275" />
      <stop
         style="stop-color:#2c7f2e;stop-opacity:1;"
         offset="1"
         id="stop3277" />
    </linearGradient>
    <linearGradient
       inkscape:collect="always"
       xlink:href="#linearGradient9853"
       id="linearGradient3329"
       gradientUnits="userSpaceOnUse"
       x1="57.551426"
       y1="55.625"
       x2="88.073586"
       y2="3.5416651" />
    <linearGradient
       inkscape:collect="always"
       xlink:href="#linearGradient9853"
       id="linearGradient3331"
       gradientUnits="userSpaceOnUse"
       x1="57.551426"
       y1="55.625"
       x2="88.073586"
       y2="3.5416651" />
    <linearGradient
       inkscape:collect="always"
       xlink:href="#linearGradient3349"
       id="linearGradient3355"
       x1="48.719845"
       y1="45.808144"
       x2="158.34875"
       y2="45.808144"
       gradientUnits="userSpaceOnUse" />
    <inkscape:perspective
       id="perspective3394"
       inkscape:persp3d-origin="0.5 : 0.33333333 : 1"
       inkscape:vp_z="1 : 0.5 : 1"
       inkscape:vp_y="0 : 1000 : 0"
       inkscape:vp_x="0 : 0.5 : 1"
       sodipodi:type="inkscape:persp3d" />
    <inkscape:perspective
       id="perspective3494"
       inkscape:persp3d-origin="0.5 : 0.33333333 : 1"
       inkscape:vp_z="1 : 0.5 : 1"
       inkscape:vp_y="0 : 1000 : 0"
       inkscape:vp_x="0 : 0.5 : 1"
       sodipodi:type="inkscape:persp3d" />
    <inkscape:perspective
       id="perspective3533"
       inkscape:persp3d-origin="0.5 : 0.33333333 : 1"
       inkscape:vp_z="1 : 0.5 : 1"
       inkscape:vp_y="0 : 1000 : 0"
       inkscape:vp_x="0 : 0.5 : 1"
       sodipodi:type="inkscape:persp3d" />
    <inkscape:perspective
       id="perspective3585"
       inkscape:persp3d-origin="0.5 : 0.33333333 : 1"
       inkscape:vp_z="1 : 0.5 : 1"
       inkscape:vp_y="0 : 1000 : 0"
       inkscape:vp_x="0 : 0.5 : 1"
       sodipodi:type="inkscape:persp3d" />
    <inkscape:perspective
       id="perspective3660"
       inkscape:persp3d-origin="0.5 : 0.33333333 : 1"
       inkscape:vp_z="1 : 0.5 : 1"
       inkscape:vp_y="0 : 1000 : 0"
       inkscape:vp_x="0 : 0.5 : 1"
       sodipodi:type="inkscape:persp3d" />
    <inkscape:perspective
       id="perspective4632"
       inkscape:persp3d-origin="0.5 : 0.33333333 : 1"
       inkscape:vp_z="1 : 0.5 : 1"
       inkscape:vp_y="0 : 1000 : 0"
       inkscape:vp_x="0 : 0.5 : 1"
       sodipodi:type="inkscape:persp3d" />
  </defs>
  <sodipodi:namedview
     id="base"
     pagecolor="#ffffff"
     bordercolor="#666666"
     borderopacity="1.0"
     inkscape:pageopacity="0.0"
     inkscape:pageshadow="2"
     inkscape:zoom="2.8284271"
     inkscape:cx="126.91595"
     inkscape:cy="75.134526"
     inkscape:document-units="px"
     inkscape:current-layer="layer5"
     showgrid="false"
     inkscape:window-width="991"
     inkscape:window-height="686"
     inkscape:window-x="4"
     inkscape:window-y="74"
     inkscape:window-maximized="0"
     showborder="true"
     inkscape:showpageshadow="true" />
  <metadata
     id="metadata7">
    <rdf:RDF>
      <cc:Work
         rdf:about="">
        <dc:format>image/svg+xml</dc:format>
        <dc:type
           rdf:resource="http://purl.org/dc/dcmitype/StillImage" />
        <dc:title></dc:title>
      </cc:Work>
    </rdf:RDF>
  </metadata>
  <g
     inkscape:label="Layer 1"
     inkscape:groupmode="layer"
     id="layer1"
     style="display:inline"
     sodipodi:insensitive="true">
    <path
       sodipodi:type="star"
       style="fill:url(#linearGradient3329);fill-opacity:1;fill-rule:evenodd;stroke:#000000;stroke-width:3;stroke-linecap:round;stroke-linejoin:round;stroke-miterlimit:4;stroke-opacity:1;stroke-dasharray:none;stroke-dashoffset:0;marker-start:none;marker-mid:none"
       id="tile6"
       sodipodi:sides="6"
       sodipodi:cx="72.708336"
       sodipodi:cy="29.583332"
       sodipodi:r1="30.159683"
       sodipodi:r2="25.936872"
       sodipodi:arg2="1.5705492"
       sodipodi:arg1="1.0469504"
       inkscape:flatsided="true"
       inkscape:rounded="0"
       inkscape:randomized="0"
       d="M 87.794632,55.698656 57.63495,55.70611 42.548654,29.590786 57.622039,3.468008 87.781722,3.460554 102.86802,29.575878 87.794632,55.698656 z"
       transform="matrix(1.494292,0.13073361,-0.13073361,1.494292,0.96429141,-6.8975794)" />
    <path
       sodipodi:type="star"
       style="fill:url(#linearGradient3331);fill-opacity:1;fill-rule:evenodd;stroke:#000000;stroke-width:3;stroke-linecap:round;stroke-linejoin:round;stroke-miterlimit:4;stroke-opacity:1;stroke-dasharray:none;stroke-dashoffset:0;marker-start:none;marker-mid:none"
       id="tile7"
       sodipodi:sides="6"
       sodipodi:cx="72.708336"
       sodipodi:cy="29.583332"
       sodipodi:r1="30.159683"
       sodipodi:r2="25.936872"
       sodipodi:arg2="1.5705492"
       sodipodi:arg1="1.0469504"
       inkscape:flatsided="true"
       inkscape:rounded="0"
       inkscape:randomized="0"
       d="M 87.794632,55.698656 57.63495,55.70611 42.548654,29.590786 57.622039,3.468008 87.781722,3.460554 102.86802,29.575878 87.794632,55.698656 z"
       transform="matrix(1.0958142,0.09587131,-0.09587131,1.0958142,94.441323,51.741857)" />
    <text
       xml:space="preserve"
       style="font-size:40px;font-style:normal;font-weight:normal;fill:#4e9a06;fill-opacity:1;stroke:none;font-family:Bitstream Vera Sans"
       x="48.837032"
       y="60.720253"
       id="text3333"><tspan
         sodipodi:role="line"
         id="tspan3335"
         x="48.837032"
         y="60.720253"
         style="fill:url(#linearGradient3355);fill-opacity:1">Turtle</tspan></text>
    <path
       style="fill:#4e9a06;fill-opacity:1;stroke:none"
       d="m 6311.493,6299.229 c 369.0746,369.0745 738.1492,738.1492 1107.2237,1107.2237 -16.1651,-16.1262 -32.3304,-32.3248 -48.4956,-48.4789 C 7017.308,7005.0607 6664.3949,6652.1476 6311.4818,6299.2346 5298.8424,7045.5282 4286.2028,7791.822 3273.5633,8538.1157 c 154.7861,412.7623 309.5722,825.5244 464.3582,1238.2869 27.0444,-10.0937 54.0992,-20.1598 81.1371,-30.2696 64.3086,-25.4679 128.6244,-50.9188 192.9284,-76.3973 63.8392,-26.7795 127.6861,-53.5402 191.5205,-80.3304 63.2886,-28.0554 126.5851,-56.0929 189.8688,-84.1589 62.7127,-29.3206 125.4337,-58.6241 188.1414,-87.9554 62.11,-30.5741 124.2286,-61.1312 186.3332,-91.7169 61.4849,-31.8152 122.9789,-63.6125 184.4582,-95.4384 60.8319,-33.0447 121.6732,-66.0724 182.4993,-99.1277 60.1575,-34.2589 120.3248,-68.5018 180.4763,-102.7714 59.4562,-35.4604 118.9224,-70.9049 178.3724,-106.3759 58.7325,-36.6474 117.4753,-73.2787 176.2014,-109.9362 57.9839,-37.8193 115.9782,-75.6226 173.9554,-113.4519 57.2135,-38.9771 114.4381,-77.9385 171.6449,-116.9255 56.4183,-40.1182 112.8478,-80.221 169.2591,-120.3489 55.6017,-41.2427 111.2149,-82.4701 166.8093,-123.7223 54.7618,-42.3521 109.5353,-84.6894 164.2896,-127.0509 53.9005,-43.443 107.8131,-86.8713 161.7059,-130.3235 53.0168,-44.5164 106.046,-89.0181 159.055,-133.5434 52.1118,-45.5728 104.2363,-91.1313 156.3401,-136.713 51.1863,-46.6097 102.3856,-93.2054 153.5638,-139.8239 50.2403,-47.629 100.494,-95.2442 150.726,-142.8818 49.2731,-48.6287 98.5596,-97.244 147.8241,-145.8812 48.2862,-49.608 96.5862,-99.2028 144.8637,-148.8192 47.2798,-50.5677 94.5737,-101.1225 141.8446,-151.6984 46.2548,-51.5071 92.524,-103.0015 138.7698,-154.5165 45.2111,-52.4259 90.4369,-104.8394 135.639,-157.273 44.149,-53.3233 88.3128,-106.6346 132.4526,-159.9654 43.0691,-54.2004 86.1534,-108.3889 129.2131,-162.5966 41.9725,-55.053 83.9604,-110.0947 125.9233,-165.1549 40.8574,-55.8854 81.7303,-111.7597 122.578,-167.652 39.7272,-56.6946 79.4702,-113.3782 119.1876,-170.0795 38.5796,-57.4812 77.175,-114.952 115.7446,-172.4397 37.4187,-58.2448 74.8537,-116.4793 112.2623,-174.7304 36.2404,-58.985 72.4971,-117.9601 108.7272,-176.9512 35.0479,-59.7001 70.1121,-119.3908 105.1496,-179.0968 33.8429,-60.392 67.7027,-120.7748 101.5339,-181.1725 32.6232,-61.0598 65.2634,-122.1106 97.8759,-183.1758 31.3893,-61.7032 62.7956,-123.3979 94.1732,-185.1065 30.1447,-62.3206 60.3063,-124.6331 90.4402,-186.9589 28.8866,-62.913 57.7902,-125.8183 86.6652,-188.7361 27.6161,-63.4813 55.25,-126.955 82.8562,-190.4409 26.3358,-64.0233 52.6893,-128.0397 79.0134,-192.0675 25.0072,-64.4258 50.0143,-128.8516 75.0215,-193.2775 C 8627.1422,4592.6423 7469.3176,5445.9356 6311.493,6299.229 z M 2853.8898,8847.4098 c -155.0875,117.4534 -310.1749,234.9071 -465.2624,352.3607 76.6825,306.7286 153.365,613.458 230.0475,920.1865 -6.026,-23.994 -12.0159,-48.048 -18.028,-72.065 -70.676,-282.7046 -141.3519,-565.409 -212.0278,-848.1135 -110.6436,83.7947 -221.2872,167.5893 -331.9308,251.3839 53.2199,255.4572 106.4398,510.9134 159.6596,766.3696 -0.2376,-0.357 -0.2455,-1.066 -0.3947,-1.559 -53.1088,-254.9222 -106.2175,-509.8436 -159.3263,-764.7659 -130.6947,98.9803 -261.3895,197.9616 -392.0843,296.942 29.8085,184.8151 59.6169,369.6299 89.4253,554.4449 21.6776,-3.42 43.3608,-6.807 65.035,-10.247 68.0677,-12.121 136.1392,-24.224 204.2048,-36.357 67.8989,-13.503 135.8018,-26.986 203.6983,-40.501 67.6133,-14.864 135.2309,-29.71 202.8415,-44.585 67.3008,-16.219 134.6062,-32.419 201.904,-48.649 66.9621,-17.568 133.9292,-35.118 200.8882,-52.697 66.5955,-18.909 133.1965,-37.799 199.7887,-56.72 66.203,-20.2425 132.4117,-40.4666 198.6111,-60.7211 48.7187,-15.9687 97.4375,-31.9384 146.1562,-47.9071 -128.6598,-385.9786 -257.3196,-771.9572 -385.9793,-1157.9357 -45.7423,33.7119 -91.4844,67.4238 -137.2266,101.1357 z m -1739.23,1317.1872 c 7.2842,72.841 14.5685,145.683 21.8527,218.524 21.7588,-2.1 43.5211,-4.166 65.2776,-6.285 68.6738,-8 137.3499,-15.981 206.0222,-23.992 68.5883,-9.39 137.1795,-18.761 205.7662,-28.163 46.7676,-7.359 93.5353,-14.717 140.3029,-22.076 -29.8066,-184.798 -59.6131,-369.5961 -89.4197,-554.3943 -183.2672,138.7955 -366.5345,277.5913 -549.8019,416.3863 z m 2442.1764,-322.1926 c 22.5701,-7.9125 45.1515,-15.7937 67.7145,-23.7259 31.9588,-11.9178 63.9176,-23.8348 95.8765,-35.7527 -54.5304,19.8259 -109.0607,39.6527 -163.591,59.4786 z m -173.2478,59.6759 c 15.039,-4.9411 30.0919,-9.8411 45.1223,-14.808 29.5593,-10.3509 59.1186,-20.7027 88.678,-31.0536 -44.6001,15.2866 -89.2002,30.5741 -133.8003,45.8616 z M 973.89534,10271.204 c 3.58351,42.104 7.16703,84.208 10.75056,126.312 5.51972,-0.411 11.03992,-0.815 16.5454,-1.391 45.0698,-4.331 90.1397,-8.662 135.2096,-12.993 -7.2814,-72.819 -14.5628,-145.637 -21.8443,-218.457 -46.8871,35.51 -93.7742,71.02 -140.66126,106.529 z m -78.55191,59.49 c 1.87594,24.39 3.75187,48.779 5.6278,73.169 27.84784,-2.111 55.69569,-4.224 83.54352,-6.336 -3.58166,-42.076 -7.16332,-84.152 -10.74498,-126.228 -26.1421,19.798 -52.28422,39.596 -78.42634,59.395 z m -107.99664,81.791 c 37.82645,-2.87 75.6529,-5.74 113.47935,-8.61 -1.87407,-24.359 -3.74814,-48.717 -5.62221,-73.075 -35.95238,27.229 -71.90477,54.457 -107.85714,81.685 z"
       id="path3374" />
    <path
       style="fill:#000000;fill-opacity:1;fill-rule:evenodd;stroke:#000000;stroke-width:1.29140162;stroke-linecap:butt;stroke-linejoin:miter;stroke-miterlimit:4;stroke-opacity:1;stroke-dasharray:none;enable-background:new"
       d="m 85.016931,34.492775 c -5.021994,2.645584 -18.786252,-1.017737 -19.032979,2.262193 0.55755,4.967231 0.607355,8.629358 0.532678,14.306156 0.459549,7.647508 1.778716,9.596405 2.967765,12.708126 0.381308,1.525234 -3.647774,2.104522 -5.174564,2.358989 -1.935407,0.322566 -3.763381,0.750606 -5.631147,1.217546 -0.854512,0.213628 -1.945757,0.597855 -2.89167,0.913159 -0.721915,0.24064 0,-1.52193 0,-2.282897 -1.027449,-5.734474 -0.133153,-11.569061 0,-17.350013 -0.217913,-4.248419 -0.275125,-8.683245 -1.521931,-12.784224 -1.084051,-1.66406 -17.648311,0.784877 -18.41537,-0.760966 -0.428476,-5.171098 -1.64075,-10.173737 -2.739477,-15.219314 5.781861,1.716606 11.874527,2.076987 17.672869,3.775548 5.13539,0.665051 11.953325,0.240782 16.874973,-0.579493 5.37784,-0.896306 11.509019,-2.282897 16.89344,-2.282897 1.400271,0 0.822447,2.156903 0.608771,3.652636 -0.459282,3.943338 -0.220562,6.110822 -0.143358,10.065451 z"
       id="t_outline"
       sodipodi:nodetypes="ccccsssccccccsscc" />
    <path
       style="fill:#73d216;fill-opacity:1;fill-rule:evenodd;stroke:#000000;stroke-width:0.1076168;stroke-miterlimit:4;stroke-opacity:1;stroke-dasharray:none;enable-background:new"
       d="m 33.987594,20.847204 c 1.016073,4.576259 1.983931,9.223831 2.495364,13.885931 2.149803,0.388517 4.361283,0.135392 6.533893,0.118153 3.401285,-0.07295 6.82406,-0.456085 10.217335,-0.08116 0.799554,0.08392 1.662724,0.506535 1.77904,1.38893 1.225262,4.472183 1.299813,9.162581 1.294765,13.771587 -0.05509,5.252111 -0.738158,10.539566 0.06054,15.762495 0.04803,0.579998 -0.06969,1.154216 -0.168152,1.721869 3.558523,-1.164728 7.282344,-1.694293 10.916379,-2.535718 0.605546,-0.201682 1.292228,-0.372449 1.721868,-0.877748 -0.974526,-2.556767 -2.031641,-5.11747 -2.415846,-7.854071 -0.732001,-4.298248 -0.448913,-8.696448 -0.649709,-13.040187 -0.03901,-2.1531 -0.229568,-4.295668 -0.418539,-6.430321 0.180913,-1.35089 1.713208,-1.821182 2.882116,-1.883294 4.766327,-0.356775 9.576006,0.470653 14.319759,-0.198419 0.619326,-0.109008 1.230796,-0.276898 1.805943,-0.524632 -0.0938,-3.802684 -0.228948,-7.632544 0.390111,-11.400655 0.01929,-0.39062 0.08216,-0.837366 -0.05717,-1.197237 -5.368972,-0.07584 -10.612524,1.206061 -15.899853,2.028422 -5.206669,0.962399 -10.525661,1.215912 -15.81011,0.97476 C 50.121191,24.329511 47.40949,23.324781 44.59458,22.89865 41.045543,22.203142 37.470018,21.674152 33.970783,20.759766 l 0.01681,0.08744 z"
       id="t_1" />
    <path
       style="fill:#8ae234;fill-opacity:1;stroke:none"
       d="M 81.741235,24.149312 C 73.67508,24.914748 65.73908,27.2371 57.572546,27.065338 c -3.214539,-0.03357 -6.474973,0.07404 -9.597248,-0.801412 -3.524348,-0.82406 -7.101897,-1.38571 -10.645262,-2.114614 0.549551,2.685506 1.052736,5.376624 1.432365,8.089112 4.866369,0.05978 9.736043,-0.164204 14.599861,-0.03157 1.942389,0.09931 3.7835,1.464871 4.170825,3.41321 2.078018,8.00278 1.082288,16.348348 1.117279,24.504083 -0.01219,1.303872 -0.01225,2.612254 0.13752,3.906458 2.234738,-0.544701 4.496256,-0.97135 6.739611,-1.47577 -1.323402,-3.57584 -2.070388,-7.355046 -2.127186,-11.170247 -0.174889,-4.85695 -0.236389,-9.723745 -0.579707,-14.561022 -0.03717,-2.570398 2.513675,-4.491502 4.92844,-4.54174 4.659104,-0.403352 9.353709,0.243235 13.988245,-0.205187 0.03182,-2.647123 -0.06477,-5.317557 0.224917,-7.94706 l -0.125769,0.01123 -0.0952,0.0085 z"
       id="path3832" />
  </g>
  <g
     inkscape:groupmode="layer"
     id="layer2"
     inkscape:label="Text Arena"
     style="display:none"
     sodipodi:insensitive="true">
    <text
       xml:space="preserve"
       style="font-size:40px;font-style:normal;font-weight:normal;fill:#4e9a06;fill-opacity:1;stroke:none;display:inline;font-family:Bitstream Vera Sans"
       x="104.34849"
       y="94.796867"
       id="text3337"><tspan
         sodipodi:role="line"
         id="tspan3339"
         x="104.34849"
         y="94.796867"
         style="fill:#4e9a06;fill-opacity:1">Arena</tspan></text>
  </g>
  <g
     inkscape:groupmode="layer"
     id="layer4"
     inkscape:label="current Arena"
     style="display:none"
     sodipodi:insensitive="true">
    <path
       sodipodi:nodetypes="csssssssssssc"
       style="fill:none;stroke:#000000;stroke-width:1.43489075;stroke-linecap:butt;stroke-linejoin:miter;stroke-miterlimit:4;stroke-opacity:1;stroke-dasharray:none;enable-background:new"
       d="m 105.48709,90.026767 c 0,-3.57301 5.44286,-13.277204 7.5161,-17.423675 1.7321,-3.464213 4.90265,-3.721867 8.28478,-2.989356 4.34446,0.94094 7.19195,3.734605 7.85774,7.174454 0.41464,2.142248 0.86717,3.867585 0.93951,6.06412 0.10993,3.337809 -0.12536,5.221056 -0.51247,8.284786 -0.3756,2.972731 -0.093,5.978712 -3.16017,5.978712 -2.7627,0 -2.33915,-0.256229 -5.21002,-0.256229 -2.16554,0 -0.67004,-4.152621 -0.34164,-5.466249 0.73316,-2.932656 0.27404,-3.839897 -2.73312,-4.441331 -2.78835,-0.557666 -3.78905,-1.553183 -4.44133,1.708202 -0.49112,2.455595 -0.63824,5.807894 -3.07477,5.807894 -3.6666,0 -5.12461,-0.651742 -5.12461,-4.441328 z"
       id="a_outline" />
    <path
       sodipodi:nodetypes="cscc"
       style="fill:none;stroke:#000000;stroke-width:1.43489075;stroke-linecap:butt;stroke-linejoin:miter;stroke-miterlimit:4;stroke-opacity:1;stroke-dasharray:none;enable-background:new"
       d="m 118.44808,80.674357 c 1.48225,0.455802 3.11933,0.540695 4.13821,0.047 1.43509,-0.695367 -0.65971,-3.230149 -1.38373,-3.676931 -4.55555,-3.191814 -9.56936,1.698327 -2.75448,3.629934 z"
       id="a_inside_outline" />
    <path
       style="fill:#cccccf;fill-opacity:1;fill-rule:evenodd;stroke:none;enable-background:new"
       d="m 118.10812,70.03463 c -1.85748,-0.07908 -3.63584,1.123041 -4.40061,2.80079 -2.08337,3.907254 -4.11672,7.850406 -5.91471,11.903288 -0.69871,1.730679 -1.50013,3.500742 -1.59063,5.382245 0.0564,1.040465 0.0424,2.330307 0.9697,3.022723 1.02797,0.684041 2.34388,0.511209 3.52211,0.599789 0.84322,0.01425 1.33033,-0.867621 1.52986,-1.574773 0.60095,-1.76993 0.57654,-3.713781 1.35018,-5.427168 0.40206,-0.848154 1.4075,-1.182044 2.28026,-0.982914 1.54519,0.292172 3.12367,0.581781 4.56844,1.223359 0.92569,0.409623 1.47703,1.418775 1.35733,2.417645 0.10998,2.153663 -1.11374,4.137992 -0.98478,6.275334 0.0306,0.311366 0.25038,0.540155 0.58623,0.470046 1.70445,0.08364 3.41977,0.275638 5.13143,0.24617 0.74645,0.02544 1.46566,-0.39393 1.70704,-1.117837 0.56219,-1.732827 0.52707,-3.604144 0.80622,-5.399376 0.43826,-3.659778 0.6403,-7.434363 -0.19467,-11.047939 -0.34794,-1.58271 -0.52842,-3.26481 -1.50727,-4.608713 -2.02259,-2.96088 -5.73478,-4.288613 -9.21613,-4.182669 z m -0.0555,5.281841 c 2.55455,-3.65e-4 5.09323,1.820442 5.69139,4.338563 0.21315,0.980839 -0.65454,1.792738 -1.56421,1.928838 -2.09786,0.403974 -4.29725,-0.138415 -6.12472,-1.191653 -0.94312,-0.566753 -1.82526,-1.585148 -1.55628,-2.763786 0.29369,-1.618913 2.09197,-2.301051 3.55382,-2.311962 z"
       id="a_1" />
    <path
       style="fill:#aaaaaa;fill-opacity:1;fill-rule:evenodd;stroke:none;enable-background:new"
       d="m 118.00771,70.993763 c -1.57353,-0.02788 -2.94111,1.083263 -3.56553,2.46794 -2.25619,4.285365 -4.52145,8.601743 -6.36138,13.089583 -0.58257,1.54731 -1.17049,3.198021 -0.81117,4.872291 0.0233,0.683711 0.60547,1.206193 1.26828,1.228644 0.74621,0.08184 1.53736,0.194309 2.2829,0.10305 0.54348,-0.539897 0.60116,-1.404266 0.81381,-2.105872 0.40882,-1.582919 0.47449,-3.331035 1.38189,-4.740179 0.72428,-0.997899 2.07471,-1.303172 3.22761,-1.018863 1.76457,0.359086 3.60921,0.661786 5.17208,1.608082 1.08297,0.805667 1.4725,2.247602 1.26035,3.540605 -0.13481,1.753004 -0.79188,3.429563 -0.93007,5.181436 1.70675,0.134463 3.44288,0.27437 5.15237,0.155891 0.58414,-0.239469 0.56158,-1.062498 0.71188,-1.592049 0.34652,-2.502569 0.62743,-5.029342 0.78195,-7.555159 0.126,-2.379561 0.0641,-4.794357 -0.46403,-7.117943 -0.36449,-1.76586 -0.62212,-3.729654 -1.95686,-5.071926 -1.98325,-2.247581 -5.04885,-3.128527 -7.96408,-3.045531 z m -0.0317,3.437557 c 3.01234,-0.101178 5.96938,2.093631 6.66373,5.033472 0.31564,1.378408 -0.79112,2.757156 -2.1455,2.972524 -1.1391,0.25796 -2.32494,0.298242 -3.46398,0.0185 -2.00427,-0.394504 -4.22008,-1.220207 -5.19993,-3.152197 -0.71375,-1.361532 -0.10495,-3.079453 1.10974,-3.931656 0.85519,-0.671203 1.96403,-0.938831 3.03594,-0.940639 z"
       id="a_2" />
    <path
       style="fill:#000000;fill-opacity:1;fill-rule:evenodd;stroke:#000000;stroke-width:1.43489075;stroke-linecap:butt;stroke-linejoin:miter;stroke-miterlimit:4;stroke-opacity:1;stroke-dasharray:none;enable-background:new"
       d="m 138.20661,96.494687 c -3.11598,0 -0.79716,-6.198673 -0.79716,-9.321959 0,-2.526403 1.13056,-5.184571 0.40491,-7.711218 -1.27809,-4.450235 3.98146,-6.901832 5.5319,-3.735497 1.29391,2.642447 3.62489,3.346092 4.99563,2.923789 3.71205,-1.143616 6.60358,-0.26567 7.59197,1.826344 0.66577,1.409172 1.73241,4.246626 1.72085,5.884879 -0.006,0.844624 -5.60236,-1.606801 -7.2883,-2.029271 -3.28243,-0.822532 -7.69319,-3.352684 -7.69319,0.811704 0,4.058543 0,8.117081 0,12.175621 0,0.385833 -4.43208,-0.817462 -4.46661,-0.824392 z"
       id="r_outline"
       sodipodi:nodetypes="csssssssssc" />
    <path
       style="fill:#cccccf;fill-opacity:1;fill-rule:evenodd;stroke:none;enable-background:new"
       d="m 140.9357,74.998334 c -1.67404,0.179528 -2.91477,1.937231 -2.57832,3.579752 0.4502,1.942096 0.38225,3.964819 0.0303,5.923148 -0.3272,2.581923 -0.54574,5.18753 -0.96375,7.756039 -0.055,1.068347 -0.36799,2.298561 0.15251,3.289142 0.73408,0.444831 1.69722,0.478484 2.51975,0.73442 0.5934,0.140022 1.2003,0.267588 1.80361,0.382853 0.0862,-4.145213 -0.0278,-8.300916 0.20925,-12.439455 0.11418,-1.393293 1.5777,-2.257934 2.8922,-2.036497 2.51801,0.353169 4.88913,1.369292 7.31003,2.108768 1.54262,0.506966 3.05598,1.098074 4.62497,1.504612 -0.38675,-1.841319 -0.87632,-3.756357 -1.87955,-5.38084 -1.2605,-1.726925 -3.68416,-1.799573 -5.58263,-1.367628 -1.37155,0.432978 -2.9317,0.521941 -4.19257,-0.287724 -1.31082,-0.703147 -2.07713,-2.00398 -2.89594,-3.17993 -0.35162,-0.44671 -0.89822,-0.633811 -1.44983,-0.58666 z"
       id="r_1" />
    <path
       style="fill:#aaaaaa;fill-opacity:1;fill-rule:evenodd;stroke:none;enable-background:new"
       d="m 141.03351,75.965987 c -1.25228,0.14588 -2.06133,1.572955 -1.68028,2.75743 0.38197,2.197918 0.21634,4.43861 -0.11957,6.629386 -0.29165,2.816786 -0.74274,5.629371 -0.99564,8.429821 -0.006,0.361219 -0.0934,0.875417 0.19288,1.112384 0.82362,0.247815 1.66682,0.420882 2.50748,0.613 0.12351,-3.833593 0.0167,-7.677368 0.29065,-11.504322 0.14707,-1.77936 2.05953,-2.933998 3.73878,-2.732075 2.21225,0.222269 4.29321,1.093597 6.40561,1.733907 1.42065,0.468803 2.83904,0.946775 4.26111,1.412999 -0.38562,-1.337413 -0.75886,-2.773954 -1.71217,-3.831249 -1.13075,-0.987908 -2.73858,-0.848101 -4.10868,-0.642065 -1.63721,0.38875 -3.50318,0.600903 -4.98855,-0.377841 -1.48499,-0.765179 -2.28184,-2.286873 -3.32923,-3.50097 -0.12886,-0.08842 -0.30548,-0.108521 -0.46239,-0.100405 z"
       id="r_2" />
    <path
       style="fill:#000000;fill-opacity:1;fill-rule:evenodd;stroke:#000000;stroke-width:1.43489075;stroke-linecap:butt;stroke-linejoin:miter;stroke-miterlimit:4;stroke-opacity:1;stroke-dasharray:none;enable-background:new"
       d="m 163.77223,92.895469 c 0.23403,-1.194154 1.30986,-5.868316 -0.68713,-9.862286 -0.67678,-1.353556 -0.16058,-3.229552 -0.76869,-4.612145 -1.25254,-2.847774 5.83458,-1.291644 7.89563,-1.060297 2.77765,0.311783 4.52674,-1.275355 4.52674,1.793607 0,3.498551 -0.63835,3.907356 -3.41641,2.391485 -2.51884,-1.37443 -4.60189,-1.879616 -3.79593,1.48735 0.4886,2.041194 -0.66861,2.845704 1.06762,2.647718 3.28769,-0.374904 2.75221,-0.246232 3.41641,3.074763 0.29797,1.489847 -4.06923,-0.448158 -4.44133,1.024923 -1.58483,6.27411 2.94586,5.716588 5.42355,3.160177 1.89203,-1.952152 1.93547,2.502927 2.39148,4.782969 0.32879,1.643968 -4.4429,1.024923 -6.14954,1.024923 -2.42355,0 -4.51527,0.109009 -5.6492,-1.024923 -0.79731,-0.797312 -0.14765,-3.463233 0.1868,-4.828264 z"
       id="e_outline"
       sodipodi:nodetypes="csssssssssssssc" />
    <path
       style="fill:#cccccf;fill-opacity:1;fill-rule:evenodd;stroke:none;enable-background:new"
       d="m 164.5815,77.550496 c -0.54681,0.06274 -1.20863,-0.07877 -1.67403,0.246622 0.53299,1.636383 0.35835,3.401136 0.87812,5.029589 1.65623,3.633516 1.28175,7.785299 0.38758,11.559011 -0.083,0.905535 -0.37927,1.892707 -0.0849,2.778689 1.14183,1.02204 2.83459,0.748942 4.24476,0.882248 2.00744,-0.01454 4.06654,0.282104 6.04236,-0.131173 0.55658,-0.03319 0.10459,-0.754341 0.15425,-1.09728 -0.21085,-1.190672 -0.30593,-2.420249 -0.75959,-3.539957 -1.38293,1.158808 -3.06524,2.426319 -4.98476,2.096285 -1.35338,-0.187273 -2.18049,-1.536257 -2.16444,-2.820914 -0.0269,-1.188037 -0.11226,-2.582408 0.67724,-3.557627 1.12125,-0.875994 2.65545,-0.282037 3.93848,-0.403563 -0.13679,-0.739412 -0.16881,-1.595343 -0.53435,-2.24575 -1.03694,-0.307933 -2.24338,0.346043 -3.2391,-0.146402 -0.8359,-0.686036 -0.37798,-1.930584 -0.61122,-2.849746 -0.20197,-1.154565 -0.45359,-2.766311 0.81239,-3.408549 1.33589,-0.509157 2.65264,0.42523 3.86001,0.900547 0.67906,0.256085 1.40486,0.792944 2.1187,0.769756 0.47666,-0.983172 0.3341,-2.155201 0.29893,-3.217292 -4.8e-4,-0.606159 -0.71493,-0.366638 -1.09111,-0.377407 -1.88689,0.207143 -3.75982,-0.114921 -5.61251,-0.347513 -0.88094,-0.08162 -1.76742,-0.129832 -2.6568,-0.119574 z"
       id="e_1" />
    <path
       style="fill:#aaaaaa;fill-opacity:1;fill-rule:evenodd;stroke:none;enable-background:new"
       d="m 164.1769,78.507825 c -0.3171,0.01925 0.0369,0.60517 -0.0116,0.854171 0.19722,1.392222 0.28235,2.8308 0.8914,4.12753 0.74362,2.239405 0.93287,4.650433 0.70292,6.998223 0.15348,-1.129861 0.68285,-2.395792 1.89184,-2.713582 0.81382,-0.200091 1.66276,-0.07927 2.49164,-0.108334 -0.02,-0.33652 -0.14991,-0.57069 -0.53092,-0.434595 -0.98923,-0.005 -2.19064,0.295611 -2.95156,-0.535104 -0.86498,-0.923716 -0.56207,-2.306678 -0.77008,-3.444991 -0.22128,-1.285677 -0.26925,-2.872369 0.84935,-3.776259 1.15647,-0.91923 2.77356,-0.597585 3.99633,0.0039 0.74621,0.31239 1.46943,0.666081 2.22087,0.965849 0.0344,-0.484596 0.0566,-0.981203 0.0528,-1.471729 -1.79308,-0.02557 -3.59941,-0.0066 -5.36904,-0.295932 -1.14604,-0.119579 -2.30522,-0.181184 -3.46398,-0.169102 z m 1.47173,13.005112 c -0.16738,1.70223 -0.79102,3.367569 -0.71076,5.081034 0.95347,0.58546 2.16145,0.396092 3.23922,0.50877 1.817,0.04553 3.63873,0.08136 5.45376,-0.02525 -0.10285,-0.735956 -0.24887,-1.466473 -0.40691,-2.193063 -1.28659,0.896271 -2.82019,1.685853 -4.43897,1.395106 -1.67909,-0.116791 -2.92652,-1.687035 -3.05443,-3.300163 -0.0724,-0.525859 -0.0865,-1.057864 -0.066,-1.587984 l -0.011,0.08384 -0.005,0.03769 z"
       id="e_2" />
    <path
       style="fill:#000000;fill-opacity:1;fill-rule:evenodd;stroke:#000000;stroke-width:1.43489075;stroke-linecap:butt;stroke-linejoin:miter;stroke-miterlimit:4;stroke-opacity:1;stroke-dasharray:none;enable-background:new"
       d="m 184.34487,97.419985 c -0.34867,-0.348668 0,-6.111998 0,-7.857736 0,-2.505365 0,-5.010727 0,-7.516094 0,-1.708199 -0.097,-3.419158 0,-5.12461 0.10256,-1.803944 1.8044,-2.85427 2.98903,-2.058197 0.49138,0.330216 1.75523,2.036669 2.35465,2.282609 1.86484,0.765146 2.3869,-0.515207 4.98132,0.462427 1.4379,0.541834 2.54976,0.209719 4.12042,2.491031 2.04335,2.96789 0.82212,6.502135 1.49467,9.864867 0.37224,1.861179 0.19614,4.402715 -0.0854,6.277649 -0.30785,2.050152 -0.7934,2.323815 -1.96444,2.22066 -0.37857,-0.03334 -1.46049,-0.06628 -1.59118,-0.359325 -1.56813,-2.420187 -0.18815,-9.553203 -0.86268,-13.625956 -0.48126,-1.92504 -1.21278,-2.456777 -2.21208,-3.456078 -1.33792,-1.337916 -4.04524,0.83844 -4.44133,1.366566 -1.07664,1.435517 -0.68329,4.011859 -0.68329,5.807887 0,2.427437 -0.34163,4.518151 -0.34163,6.832816 0,2.096418 -0.29899,2.711795 -1.70821,3.416403 -0.68328,0.341643 -1.36656,-0.683281 -2.04984,-1.024919 z"
       id="arena_n_outline"
       sodipodi:nodetypes="cssssssssssccsssssc" />
    <path
       style="fill:#cccccf;fill-opacity:1;fill-rule:evenodd;stroke:none;enable-background:new"
       d="m 186.27301,75.416843 c -0.68608,-0.05328 -1.0348,0.790718 -1.15837,1.34521 -0.18135,6.716606 -0.1229,13.437288 -0.17562,20.15573 0.39974,0.261839 0.80754,0.873624 1.29289,0.780968 0.68214,-0.232117 1.0521,-0.875159 1.05375,-1.5582 0.24914,-3.717926 0.49109,-7.455976 0.43854,-11.191292 -0.0498,-1.420943 0.43812,-2.897991 1.65027,-3.736804 1.18583,-0.929561 2.95563,-1.777098 4.39062,-0.934171 1.72662,1.291655 2.91686,3.362786 2.83989,5.556466 0.13333,3.506718 -0.19351,7.053243 0.18683,10.533738 0.13283,0.412153 0.16232,1.053195 0.5493,1.285423 0.53887,0.04463 1.17855,0.154456 1.6703,-0.0187 0.48132,-0.693363 0.41801,-1.655495 0.59413,-2.462482 0.24877,-2.192116 0.0561,-4.385688 -0.1521,-6.568942 -0.21988,-2.368486 0.0829,-4.824535 -0.69987,-7.099885 -0.5886,-1.243332 -1.51557,-2.468834 -2.93073,-2.792254 -1.18782,-0.374587 -2.36449,-0.928676 -3.64077,-0.679671 -1.1344,0.03223 -2.46013,0.211429 -3.327,-0.701963 -0.75932,-0.576838 -1.36776,-1.43055 -2.13739,-1.916925 -0.14825,2.6e-5 -0.29647,-0.0015 -0.44467,0.0037 z"
       id="arena_n_1" />
    <path
       style="fill:#aaaaaa;fill-opacity:1;fill-rule:evenodd;stroke:none;enable-background:new"
       d="m 186.30304,76.383461 c -0.32408,0.326291 -0.19684,0.899695 -0.25632,1.331648 -0.14707,6.256473 -0.16363,12.515206 -0.16115,18.773173 0.19206,0.293101 0.34823,0.08913 0.40954,-0.163821 0.24875,-2.124906 0.27572,-4.301817 0.39427,-6.449654 0.13521,-2.172188 0.0412,-4.358818 0.26365,-6.523753 0.40229,-2.039314 2.21196,-3.4558 4.09019,-4.098119 1.30994,-0.488781 2.88699,-0.237016 3.8698,0.799602 1.5203,1.37662 2.61901,3.337317 2.5698,5.430751 0.13419,3.560846 -0.008,7.132865 0.24792,10.687922 0.0548,0.258404 0.0393,0.71943 0.43068,0.610359 0.38162,0.07654 0.24564,-0.494511 0.36474,-0.719808 0.35226,-2.15412 0.23241,-4.379315 0.0823,-6.548671 -0.28062,-2.432315 -0.0395,-4.928178 -0.64517,-7.308772 -0.36079,-1.246317 -1.321,-2.350001 -2.6026,-2.666022 -0.902,-0.293693 -1.804,-0.690881 -2.77699,-0.570115 -1.33618,-0.07387 -2.87485,0.265957 -3.99244,-0.671737 -0.78195,-0.568764 -1.41121,-1.321999 -2.16928,-1.912983 -0.0396,-0.0027 -0.0794,-0.0046 -0.1189,0 z"
       id="arena_n_2" />
    <path
       sodipodi:nodetypes="csscccssscccc"
       style="fill:none;stroke:#000000;stroke-width:1.43489075;stroke-linecap:butt;stroke-linejoin:miter;stroke-miterlimit:4;stroke-opacity:1;stroke-dasharray:none;enable-background:new"
       d="m 206.78562,85.488319 c -0.14342,-2.295567 -0.78328,-4.658157 -0.34163,-6.832811 0.3764,-1.853414 0.7002,-3.077299 2.14043,-3.405157 2.22079,-0.505541 4.46462,-0.694531 6.74222,-0.694531 5.23938,0.154266 5.23869,0.96055 7.85774,8.882657 1.27227,4.802886 1.6681,9.550437 1.02492,14.348907 0.0158,1.044744 -3.86745,-0.127662 -5.46625,-1.024923 -1.98621,-1.114671 0,-4.555209 0,-6.832817 0,-1.975379 -0.0489,-2.84741 -0.50211,-4.660399 -0.62731,-2.509289 -1.81121,-2.814242 -4.03928,-2.814242 -6.08707,0.0409 -0.61314,8.110852 -0.24158,10.549412 0.49745,1.989797 -0.25525,2.220661 -1.70821,2.733123 -6.92236,2.067673 -5.64546,-3.757902 -5.46625,-10.249219 z"
       id="a2_outline" />
    <path
       sodipodi:nodetypes="ccccc"
       style="fill:none;stroke:#000000;stroke-width:1.43489075;stroke-linecap:butt;stroke-linejoin:miter;stroke-miterlimit:4;stroke-opacity:1;stroke-dasharray:none;enable-background:new"
       d="m 211.30954,77.058772 c 0.81584,-0.08794 3.98547,0.144996 4.10251,0.499796 0.16183,0.647332 0.63524,1.768498 0.42705,1.83632 -0.92489,0.325199 -4.51553,0.382791 -4.57943,0.128117 -0.35987,-0.78477 -0.30261,-2.430369 0.0499,-2.464233 z"
       id="a2_inside_outline" />
    <path
       style="fill:#cccccf;fill-opacity:1;fill-rule:evenodd;stroke:none;enable-background:new"
       d="m 214.44022,75.327163 c -2.00082,0.05839 -4.03816,0.144653 -5.95629,0.751075 -1.00052,0.499059 -1.13258,1.798541 -1.32279,2.780102 -0.33532,2.433421 0.31977,4.846271 0.2322,7.290225 0.0879,2.483186 -0.10648,4.997677 0.13773,7.462245 0.26834,1.07723 1.27355,1.997162 2.44006,1.804824 1.15216,-0.107674 2.48877,-0.269434 3.35929,-1.106061 0.0412,-2.016658 -1.1911,-3.760922 -1.78283,-5.631231 -0.63826,-1.753468 -1.36061,-3.83416 -0.3994,-5.612487 1.1176,-1.525035 3.28281,-1.408153 4.94542,-1.121826 1.75095,0.211034 2.6025,2.000061 2.91659,3.539469 0.67003,2.618279 0.50652,5.381594 -0.19093,7.968182 -0.0709,0.790721 -0.51902,1.853257 0.0975,2.513245 1.22473,0.816453 2.71483,1.216314 4.15147,1.47226 0.44609,0.193557 0.51653,-0.204381 0.52313,-0.549295 0.44078,-5.03121 10e-4,-10.135915 -1.64414,-14.913149 -0.71942,-1.920405 -1.17938,-4.036876 -2.5148,-5.646144 -1.29255,-1.263969 -3.35705,-0.912551 -4.99222,-1.001434 z m -2.86231,1.001434 c 1.30324,0.06584 2.64715,0.05924 3.89364,0.46335 0.82943,0.531984 1.02945,1.673611 1.03133,2.585795 -0.34086,1.03557 -1.65455,0.855907 -2.52218,0.961247 -1.01304,-0.05597 -2.16775,0.286261 -3.07539,-0.277436 -0.71146,-0.738471 -0.58525,-1.922397 -0.4783,-2.862307 0.12376,-0.516414 0.61924,-0.89314 1.1509,-0.870649 z"
       id="a2_1" />
    <path
       style="fill:#aaaaaa;fill-opacity:1;fill-rule:evenodd;stroke:none;enable-background:new"
       d="m 216.35485,76.337106 c 0.85459,0.780602 1.07491,2.028537 1.0569,3.1337 -0.13453,0.714868 -0.70568,1.313381 -1.39775,1.521931 1.21762,0.132654 2.316,0.850881 2.95403,1.894487 1.03517,1.611162 1.25098,3.592121 1.37132,5.461514 0.11887,2.019925 -0.32688,4.008145 -0.70284,5.971467 -0.0174,0.29928 -0.15401,0.679885 -0.0291,0.943283 0.93362,0.593093 2.01809,0.884816 3.08086,1.149376 0.31841,-4.641995 -0.042,-9.362795 -1.52986,-13.787222 -0.61728,-1.765096 -1.09184,-3.596623 -2.0768,-5.197289 -0.57293,-0.959968 -1.76212,-1.107943 -2.777,-1.133522 l 0.0502,0.04228 z m -6.76414,0.420117 c -0.50409,0.08852 -1.08369,0.285761 -1.17844,0.864013 -0.79606,2.517211 -0.11103,5.188753 -0.12203,7.776092 0.0868,2.691481 -0.10064,5.401769 0.21979,8.080003 0.15226,0.571178 0.71524,1.124964 1.34755,0.98556 0.84849,-0.05276 1.78749,-0.160947 2.50484,-0.62093 -0.22173,-1.683457 -1.13435,-3.172316 -1.65681,-4.774749 -0.67626,-1.85563 -1.3703,-3.970937 -0.60759,-5.907837 0.32492,-0.851502 1.11649,-1.545917 1.88656,-1.873349 -1.00471,0.0076 -2.05673,-0.53061 -2.34895,-1.550996 -0.26561,-0.949577 -0.27144,-2.038 -0.0449,-2.977807 z"
       id="a2_2" />
  </g>
  <g
     style="display:inline"
     inkscape:label="current Arena copy"
     id="g3758"
     inkscape:groupmode="layer">
    <path
       id="path3762"
       d="m 106.85997,92.061083 c -0.62045,-3.518728 3.05461,-14.020636 4.37632,-18.464127 1.10423,-3.71236 4.18188,-4.51666 7.63982,-4.382578 4.44185,0.172238 7.7312,2.428999 8.9842,5.700976 0.78034,2.037701 1.52559,3.658245 1.97826,5.808848 0.68786,3.268011 0.78317,5.163505 0.93395,8.247911 0.14632,2.992791 0.94661,5.904031 -2.07397,6.43664 -2.72073,0.479738 -2.3481,0.153853 -5.17536,0.652374 -2.13264,0.376042 -1.38095,-3.973182 -1.28565,-5.323879 0.21277,-3.015415 -0.39692,-3.829147 -3.46283,-3.899256 -2.84283,-0.065 -4.00119,-0.871625 -4.07723,2.453479 -0.0572,2.503571 0.37999,5.830488 -2.01953,6.253587 -3.61089,0.636699 -5.15993,0.248039 -5.81798,-3.483975 z"
       style="fill:none;stroke:#000000;stroke-width:1.43499994;stroke-linecap:butt;stroke-linejoin:miter;stroke-miterlimit:4;stroke-opacity:1;stroke-dasharray:none;enable-background:new"
       sodipodi:nodetypes="csssssssssssc" />
    <path
       id="path3764"
       d="m 118.00002,80.600105 c 1.53888,0.191488 3.16583,-0.0092 4.08351,-0.672306 1.29254,-0.934004 -1.2106,-3.066519 -2.0012,-3.380788 -5.0406,-2.352261 -9.12907,3.334227 -2.08231,4.053097 z"
       style="fill:none;stroke:#000000;stroke-width:1.43489075;stroke-linecap:butt;stroke-linejoin:miter;stroke-miterlimit:4;stroke-opacity:1;stroke-dasharray:none;enable-background:new"
       sodipodi:nodetypes="cscc" />
    <path
       id="path3766"
       d="m 115.81766,70.181053 c -1.84299,0.244669 -3.38559,1.737336 -3.8474,3.522398 -1.37323,4.209667 -2.69097,8.446001 -3.75787,12.749529 -0.38757,1.825715 -0.86944,3.708052 -0.63185,5.576686 0.23622,1.014864 0.44641,2.287542 1.47986,2.808415 1.13113,0.495143 2.39704,0.09643 3.57275,-0.02093 0.83289,-0.13239 1.15946,-1.085449 1.23316,-1.816506 0.28448,-1.847394 -0.0771,-3.757475 0.38725,-5.579173 0.24868,-0.905086 1.18086,-1.408496 2.07494,-1.363944 1.57245,0.01941 3.17724,0.03052 4.71147,0.411472 0.98276,0.242655 1.70096,1.140737 1.75653,2.145217 0.48229,2.101847 -0.37827,4.268526 0.11988,6.351003 0.0842,0.301322 0.34037,0.488471 0.65895,0.361107 1.69308,-0.213605 3.41568,-0.322386 5.09622,-0.648633 0.73952,-0.104566 1.37498,-0.642454 1.48699,-1.397279 0.25275,-1.804125 -0.10679,-3.640914 -0.14362,-5.457346 -0.20391,-3.680281 -0.66039,-7.432605 -2.11017,-10.846292 -0.61748,-1.498246 -1.08732,-3.123451 -2.28466,-4.276961 -2.50602,-2.564679 -6.39237,-3.227626 -9.80243,-2.518761 z m 0.86252,5.211235 c 2.51568,-0.443952 5.33197,0.908356 6.35831,3.284351 0.38024,0.928925 -0.33329,1.879162 -1.2055,2.171157 -1.99584,0.762127 -4.256,0.609898 -6.2386,-0.110002 -1.02721,-0.394372 -2.07279,-1.244113 -2.01257,-2.451553 0.008,-1.645317 1.66062,-2.62936 3.09836,-2.893953 z"
       style="fill:#babdb6;fill-opacity:1;fill-rule:evenodd;stroke:none;enable-background:new" />
    <path
       id="path3768"
       d="m 115.88533,71.143051 c -1.55447,0.245784 -2.70832,1.577524 -3.08281,3.049594 -1.47777,4.612044 -2.95908,9.256205 -3.99176,13.995365 -0.30503,1.624965 -0.59737,3.352689 0.0472,4.939128 0.14167,0.669278 0.80573,1.082729 1.46237,0.989744 0.74908,-0.04898 1.54774,-0.0756 2.26611,-0.294937 0.44147,-0.62607 0.34818,-1.487323 0.43576,-2.215196 0.12774,-1.629862 -0.11114,-3.362824 0.53778,-4.908128 0.53999,-1.108508 1.81689,-1.643643 3.00165,-1.563853 1.80011,0.04722 3.66929,0.025 5.37274,0.68553 1.20642,0.605371 1.84042,1.957759 1.85602,3.267957 0.17165,1.749782 -0.18431,3.514969 -0.0162,5.264224 1.70417,-0.163954 3.43822,-0.327648 5.10117,-0.741177 0.53368,-0.337266 0.36854,-1.143874 0.4246,-1.691479 -0.0933,-2.524722 -0.25543,-5.061887 -0.54187,-7.576163 -0.28912,-2.36529 -0.7694,-4.732651 -1.69299,-6.929228 -0.66559,-1.67574 -1.26032,-3.564962 -2.80786,-4.655067 -2.34341,-1.869047 -5.51541,-2.204274 -8.37194,-1.616314 z m 0.5657,3.390837 c 2.94901,-0.622728 6.24225,1.025252 7.43655,3.799858 0.5502,1.302656 -0.30033,2.852645 -1.59673,3.299927 -1.077,0.451843 -2.23783,0.697432 -3.40814,0.619732 -2.04233,-0.04047 -4.36786,-0.46886 -5.66831,-2.201349 -0.93933,-1.216906 -0.6381,-3.014445 0.41016,-4.06463 0.72564,-0.809508 1.77116,-1.265618 2.82647,-1.453534 z"
       style="fill:#d3d7cf;fill-opacity:1;fill-rule:evenodd;stroke:none;enable-background:new" />
    <path
       sodipodi:nodetypes="csccsssssssssc"
       id="path3776"
       d="m 159.04009,91.572816 c 0.14147,-1.152082 0.8206,-4.801769 -0.10677,-9.281929 -0.30675,-1.481908 -0.78558,-2.292053 -1.39369,-3.674646 0.86629,-2.256503 13.47023,-4.428939 13.27058,0.733311 0,3.498551 -0.25281,1.449166 -3.41641,1.364699 -2.64455,-0.07061 -4.2088,0.250739 -3.79593,1.48735 0.59263,1.775014 -0.66861,2.555525 1.06762,2.357539 3.28769,-0.374904 2.75221,0.04395 3.41641,3.364942 0.29797,1.489847 -4.70999,-0.0056 -4.46365,1.493673 0.8633,5.254058 2.64103,4.71155 5.44587,2.691427 4.82733,-3.47678 3.29093,3.205247 2.39148,4.782969 -0.83032,1.456467 -4.4429,1.024923 -6.14954,1.024923 -2.42355,0 -5.45277,0.109009 -6.5867,-1.024923 -0.79731,-0.797312 -0.0137,-3.954304 0.32073,-5.319335 z"
       style="fill:none;stroke:#000000;stroke-width:1.43499994;stroke-linecap:butt;stroke-linejoin:miter;stroke-miterlimit:4;stroke-opacity:1;stroke-dasharray:none;enable-background:new" />
    <path
       id="path3788"
       d="m 198.2142,87.457861 c -0.14342,-2.295567 -0.78328,-4.658157 -0.34163,-6.832811 0.3764,-1.853414 0.7002,-3.077299 2.14043,-3.405157 2.22079,-0.505541 4.46462,-0.694531 6.74222,-0.694531 5.23938,0.154266 5.23869,0.96055 7.85774,8.882657 1.27227,4.802886 2.38239,6.336151 1.73921,11.134617 0.0158,1.044748 -4.71567,1.613412 -6.31447,0.716152 -1.98621,-1.11467 0.13393,-3.081994 0.13393,-5.359602 0,-1.975379 -0.0489,-2.84741 -0.50211,-4.660399 -0.62731,-2.509289 -1.81121,-2.814242 -4.03928,-2.814242 -6.08707,0.0409 -0.61314,8.110852 -0.24158,10.549412 0.49745,1.989797 -0.25525,2.220665 -1.70821,2.733125 -6.92236,2.06767 -5.64546,-3.757904 -5.46625,-10.249221 z"
       style="fill:none;stroke:#000000;stroke-width:1.43489075;stroke-linecap:butt;stroke-linejoin:miter;stroke-miterlimit:4;stroke-opacity:1;stroke-dasharray:none;enable-background:new"
       sodipodi:nodetypes="csscccssscccc" />
    <path
       id="path3790"
       d="m 202.73812,79.028314 c 0.81584,-0.08794 3.98547,0.144996 4.10251,0.499796 0.16183,0.647332 0.63524,1.768498 0.42705,1.83632 -0.92489,0.325199 -4.51553,0.382791 -4.57943,0.128117 -0.35987,-0.78477 -0.30261,-2.430369 0.0499,-2.464233 z"
       style="fill:none;stroke:#000000;stroke-width:1.43489075;stroke-linecap:butt;stroke-linejoin:miter;stroke-miterlimit:4;stroke-opacity:1;stroke-dasharray:none;enable-background:new"
       sodipodi:nodetypes="ccccc" />
    <path
       style="fill:none;stroke:#000000;stroke-width:1.43499994;stroke-linecap:butt;stroke-linejoin:miter;stroke-miterlimit:4;stroke-opacity:1;stroke-dasharray:none"
       d="m 175.73593,80.649169 c 0,0 0.48318,-4.051168 4.67382,-2.559579 7.20919,0.987142 4.32522,13.7304 7.00355,13.940934 2.94324,0.882619 -2.99152,-13.243295 0.15895,-14.414268 4.91255,-3.568023 7.04388,10.184948 5.60765,17.640518 -2.36678,5.408586 -8.96337,3.38215 -10.44363,0.0532 -1.48027,-3.328971 -0.86057,-15.652301 -2.52838,-9.19214 -0.32939,2.81289 1.72689,12.489864 -3.07246,11.42577 -3.23149,0.357195 -1.72722,-15.25676 -1.3995,-16.894435 z"
       id="path4655"
       sodipodi:nodetypes="cccccsccc" />
    <path
       style="fill:#babdb6;fill-opacity:1;stroke:none"
       d="m 200.78644,97.374025 c -0.32353,-0.04518 -0.70091,-0.1768 -0.91305,-0.318466 -0.59703,-0.398684 -0.94208,-1.250711 -1.08005,-2.666981 -0.0636,-0.65322 -0.0492,-2.593195 0.0313,-4.211274 0.12697,-2.552201 0.12912,-2.661303 0.066,-3.34613 -0.0312,-0.338559 -0.12095,-1.134054 -0.19942,-1.767767 -0.19854,-1.603533 -0.21992,-1.867328 -0.22258,-2.746352 -0.003,-0.828571 0.0174,-1.034599 0.1738,-1.799334 0.26695,-1.305213 0.49959,-1.89656 0.88816,-2.257661 0.21619,-0.200908 0.3869,-0.270912 0.96417,-0.395367 3.1717,-0.683799 7.49437,-0.805565 9.24104,-0.260314 1.08033,0.337244 1.70039,1.091111 2.44815,2.976476 0.44113,1.112236 1.60858,4.594886 1.95767,5.839945 0.12413,0.44273 0.42168,1.458407 0.66122,2.257059 0.61769,2.059471 0.8105,2.871309 0.92967,3.914341 0.10723,0.938609 0.0927,2.117354 -0.0409,3.313577 l -0.0528,0.472523 -0.12627,0.07203 c -0.5042,0.287633 -1.82092,0.513934 -2.9903,0.513934 -1.55262,0 -2.47991,-0.310088 -2.58419,-0.864156 -0.0477,-0.253384 0.0274,-0.573748 0.38175,-1.629658 0.57387,-1.709874 0.58154,-1.756713 0.55843,-3.409265 -0.0241,-1.720325 -0.10131,-2.35363 -0.46971,-3.851207 -0.40412,-1.642754 -0.99321,-2.547875 -1.98251,-3.046076 -0.6493,-0.326985 -1.40139,-0.457812 -2.63214,-0.457864 -0.9066,-3.1e-5 -1.50013,0.09833 -2.05492,0.340581 -0.88189,0.385079 -1.40948,1.055396 -1.63259,2.074289 -0.0705,0.321865 -0.0516,1.342404 0.0334,1.799334 0.23029,1.238973 0.60679,2.329666 1.64739,4.772265 0.62166,1.45924 0.78735,1.925224 0.92634,2.605261 0.0962,0.470549 0.10905,0.889658 0.0323,1.051372 -0.0588,0.123935 -0.20419,0.22974 -0.49259,0.358497 -1.05807,0.472372 -2.6562,0.779567 -3.46677,0.666385 z m 4.5299,-15.026327 c 0.96178,-0.05158 1.82253,-0.167472 2.19374,-0.295365 0.2049,-0.07059 0.39387,-0.251197 0.46943,-0.448661 0.12118,-0.316659 0.0799,-0.628247 -0.19808,-1.496326 -0.0751,-0.234387 -0.16957,-0.5398 -0.21002,-0.678696 -0.15361,-0.52753 -0.47435,-0.733967 -1.39049,-0.89495 -0.89336,-0.156979 -1.83845,-0.236525 -2.82175,-0.2375 -0.75291,-7.47e-4 -0.79644,0.0025 -0.94702,0.07061 -0.47058,0.212842 -0.68495,0.749653 -0.68246,1.708974 0.002,0.672945 0.0643,1.081293 0.24162,1.578363 0.16937,0.474685 0.44785,0.63041 1.23552,0.690903 0.49891,0.03832 1.42286,0.03948 2.10951,0.0027 l 0,-1e-6 z"
       id="path4675" />
    <path
       style="fill:#d3d7cf;fill-opacity:1;stroke:none"
       d="m 208.58894,78.659301 c 0.36576,0.968454 0.74846,1.998897 0.65305,3.050187 -0.0507,0.466953 -0.43228,0.862384 -0.69842,1.160097 1.54489,0.554931 2.5419,2.031439 2.93575,3.571047 0.60665,1.974892 0.67504,4.07015 0.59781,6.120104 -0.0717,1.05041 -0.57933,2.078514 -0.78721,3.048215 1.0609,0.178461 2.14645,0.118945 3.19224,-0.114432 0.10785,-1.657797 0.0717,-3.358575 -0.43666,-4.955832 -0.90891,-3.232228 -1.90501,-6.437603 -3.05942,-9.598651 -0.36968,-0.831261 -0.73538,-1.906125 -1.71647,-2.168277 -0.20424,-0.04852 -0.53106,-0.144458 -0.68067,-0.112458 z m -8.06938,0.489293 c -0.35157,0.0806 -0.34653,0.554981 -0.46562,0.82864 -0.60915,1.942486 -0.23303,3.992947 -0.0138,5.972133 0.29327,2.358888 -0.0896,4.733249 -0.0203,7.096708 0.0438,0.994869 -0.0796,2.128781 0.54708,2.977196 0.47198,0.188009 1.02296,0.04671 1.52904,0.03551 0.47864,-0.0888 0.95253,-0.215674 1.40474,-0.396564 -0.21978,-1.153495 -0.78294,-2.196532 -1.18995,-3.289456 -0.5623,-1.465194 -1.24169,-2.931946 -1.40868,-4.505546 -0.0337,-1.129558 -0.1767,-2.371368 0.50299,-3.358553 0.2502,-0.399696 0.56857,-0.755836 0.93949,-1.047193 -0.8783,-0.197987 -1.50902,-0.959861 -1.67109,-1.826956 -0.206,-0.813384 -0.26086,-1.673946 -0.0986,-2.499733 l -0.0552,0.01381 z"
       id="path4677" />
    <path
       style="fill:#babdb6;fill-opacity:1;stroke:none"
       d="m 187.47516,97.795871 c -0.82576,-0.132291 -1.7188,-0.489332 -2.46632,-0.986048 -0.3971,-0.263869 -0.97325,-0.80981 -1.22097,-1.156959 -0.71783,-1.005958 -1.00452,-2.537655 -1.42399,-7.607984 -0.20005,-2.41808 -0.33396,-3.383126 -0.53736,-3.872535 -0.0383,-0.0922 -0.17355,-0.273112 -0.30051,-0.402019 l -0.23084,-0.234375 -0.31919,0 -0.31919,0 -0.24336,0.234375 c -0.30896,0.297552 -0.46859,0.632678 -0.73414,1.541243 -0.18564,0.635193 -0.20652,0.754729 -0.22764,1.303374 -0.0135,0.350789 0.0187,1.465037 0.0767,2.657615 0.21054,4.325025 0.0361,6.129252 -0.68807,7.115738 -0.1863,0.253779 -0.5145,0.444572 -0.82879,0.481796 -0.29775,0.03526 -1.02567,-0.06725 -1.13365,-0.159652 -0.29469,-0.252173 -0.58928,-1.10053 -0.76129,-2.192346 -0.39212,-2.488865 -0.3575,-6.980396 0.0893,-11.584821 0.2079,-2.142515 0.34334,-2.810752 0.6835,-3.372346 0.60903,-1.005465 1.62275,-1.300028 2.98885,-0.868479 0.19707,0.06225 0.47528,0.134215 0.61825,0.159914 1.48418,0.266776 2.55791,1.141897 3.2952,2.685668 0.66761,1.397874 0.99236,2.854788 1.38572,6.216671 0.16612,1.419774 0.32635,2.482693 0.44444,2.948195 0.32695,1.288875 0.80552,1.878263 1.66113,2.04578 0.45595,0.08927 0.74693,0.04447 1.05359,-0.162209 0.69679,-0.469606 0.8146,-1.527353 0.42874,-3.849623 -0.0489,-0.294643 -0.27823,-1.5 -0.5095,-2.678571 -0.6498,-3.311445 -0.77616,-4.095429 -0.87064,-5.401786 -0.0703,-0.972126 0.0247,-1.81094 0.24278,-2.143789 0.0794,-0.121126 0.44758,-0.368815 0.85171,-0.572933 0.22608,-0.114187 0.32008,-0.135483 0.60268,-0.136537 0.42861,-0.0016 0.68064,0.114599 1.05196,0.485001 1.42155,1.418051 2.44305,5.207401 2.70231,10.024508 0.11505,2.137578 -0.0487,5.27709 -0.34235,6.5625 -0.11023,0.48254 -0.60125,1.260886 -1.11661,1.769982 -0.51866,0.51236 -1.23758,0.914998 -1.94292,1.088153 -0.50819,0.124755 -1.39449,0.153024 -1.95953,0.0625 z"
       id="path4681" />
    <path
       style="fill:#d3d7cf;fill-opacity:1;stroke:none"
       d="m 189.06416,79.057715 c -0.19955,0.06737 -0.47119,0.163826 -0.43527,0.424107 -0.0934,1.428821 0.19602,2.848678 0.44366,4.251739 0.35999,2.043466 0.85853,4.065039 1.09792,6.127725 0.13473,1.152056 0.10205,2.472573 -0.71429,3.384487 -0.74571,0.849222 -2.03699,0.962031 -3.03292,0.534319 -1.11452,-0.439519 -1.72104,-1.591251 -1.9777,-2.701007 -0.45121,-2.035463 -0.54918,-4.135858 -0.93106,-6.175946 -0.20906,-1.210564 -0.53544,-2.432267 -1.19699,-3.475168 -0.37443,-0.503165 -0.83587,-0.98877 -1.44941,-1.189031 -0.58168,-0.18766 -1.18419,-0.309984 -1.77604,-0.458569 -0.34392,-0.01609 -0.76282,-0.09489 -1.00027,0.224609 -0.42797,0.507867 -0.42154,1.227367 -0.51937,1.852797 -0.38126,3.387612 -0.58609,6.800284 -0.44046,10.206355 0.0776,1.194656 0.13691,2.404672 0.52177,3.547712 0.17677,0.07183 0.27849,-0.0507 0.32366,-0.209263 0.43531,-1.081114 0.3755,-2.266546 0.39481,-3.412389 0.002,-1.839059 -0.19605,-3.673218 -0.15625,-5.513392 0.0523,-0.935195 0.32733,-1.850783 0.70033,-2.705079 0.22406,-0.448165 0.55501,-0.866732 0.95646,-1.155632 0.42952,-0.145871 0.84741,-0.433807 1.31864,-0.301331 1.0298,0.04741 1.75149,1.007714 1.95618,1.946624 0.33857,1.574784 0.38319,3.193757 0.54969,4.792147 0.18266,1.758873 0.25893,3.55548 0.77846,5.255302 0.11774,0.271284 0.22072,0.545499 0.43806,0.754743 0.75406,0.895592 1.88851,1.405503 3.03851,1.542969 0.58403,-0.01955 1.19987,0.0052 1.73549,-0.274833 0.32595,-0.143815 0.61837,-0.351175 0.85496,-0.625549 0.40474,-0.431867 0.79425,-0.945391 0.81914,-1.559161 0.2678,-1.688478 0.24682,-3.411058 0.25412,-5.119962 -0.0763,-2.141214 -0.29333,-4.282431 -0.81355,-6.364413 -0.31417,-1.170655 -0.66675,-2.389141 -1.4221,-3.365909 -0.0912,-0.07666 -0.18008,-0.25672 -0.31618,-0.239001 z m -10.80915,17.710658 c 0.009,0.0356 0.006,-0.117644 0,0 z m -0.004,0.0293 c 0.0204,0.0033 -0.007,-0.06321 0,0 z m -0.0293,0.210659 c 0.002,0.202382 0.061,-0.513296 0,0 z"
       id="path4683" />
    <path
       style="fill:#babdb6;fill-opacity:1;stroke:none"
       d="m 164.58895,97.197812 c -2.18569,-0.03157 -2.56333,-0.04925 -3.41518,-0.159935 -0.79104,-0.10278 -1.32512,-0.257426 -1.70646,-0.494115 -0.30779,-0.191038 -0.32526,-0.25124 -0.321,-1.106206 0.004,-0.864861 0.10507,-1.557335 0.42079,-2.891782 0.1932,-0.816553 0.26367,-1.24857 0.40139,-2.460631 0.30872,-2.716921 0.1884,-5.581533 -0.33637,-8.008714 -0.19213,-0.888629 -0.33872,-1.312809 -0.88208,-2.552335 l -0.36051,-0.822405 0.17249,-0.149098 c 0.75209,-0.65013 3.36159,-1.387364 5.58737,-1.578538 0.90739,-0.07794 2.51911,-0.03531 3.19004,0.08438 1.35495,0.241702 2.22507,0.72114 2.56454,1.41307 0.12997,0.264917 0.13157,0.277537 0.14592,1.149554 0.008,0.494407 -0.003,0.881696 -0.0251,0.881696 -0.0218,0 -0.21562,-0.05949 -0.43074,-0.132208 -0.93001,-0.314365 -1.88463,-0.429468 -3.21937,-0.38818 -2.08595,0.06453 -3.01673,0.396216 -3.42201,1.219448 -0.12051,0.244805 -0.1413,0.3357 -0.13954,0.610052 0.001,0.199539 0.0416,0.458091 0.10572,0.678512 0.0892,0.306581 0.10125,0.430657 0.0865,0.891841 -0.0324,1.010699 -0.0239,1.144413 0.0859,1.358521 0.11914,0.232209 0.22668,0.334811 0.4709,0.449245 0.28795,0.13493 0.5722,0.147391 1.51817,0.06655 1.02034,-0.0872 1.54068,-0.07513 1.66639,0.03863 0.0456,0.0413 0.10864,0.160153 0.13999,0.264111 0.0717,0.237788 0.4435,2.280514 0.41976,2.306291 -0.01,0.01048 -0.62505,0.03672 -1.36754,0.05829 -0.79508,0.0231 -1.49679,0.06553 -1.70713,0.103225 -0.45365,0.08129 -0.86459,0.28184 -1.07056,0.522468 -0.15946,0.18629 -0.29105,0.525375 -0.29105,0.749981 0,0.155655 0.19373,1.182464 0.31287,1.658214 0.59367,2.370844 1.65555,3.480822 3.1557,3.298628 0.79016,-0.09597 1.44178,-0.403069 2.81707,-1.327657 1.03699,-0.69716 1.52352,-0.962566 1.91256,-1.043331 0.20478,-0.04251 0.26075,-0.03956 0.34921,0.01839 0.18312,0.119986 0.22509,0.339521 0.22291,1.165935 -0.002,0.651876 -0.0192,0.839831 -0.1239,1.332471 -0.19974,0.93972 -0.53132,1.889353 -0.7681,2.199791 -0.22253,0.291747 -0.91829,0.512605 -1.87385,0.594827 -0.56818,0.04889 -0.9642,0.04898 -4.28572,0.001 l 0,0 z"
       id="path4703" />
    <path
       style="fill:#d3d7cf;fill-opacity:1;stroke:none"
       d="m 169.29598,77.354033 c 0.37906,-0.09582 0.38923,-0.175248 0,0 z m -3.80859,0.793806 c -0.70616,0.02804 -1.41324,0.05534 -2.11032,0.170934 -0.87143,0.127799 -1.72702,0.341215 -2.57718,0.568463 -0.28926,0.0799 -0.55582,0.221241 -0.83845,0.311105 1.04248,2.315495 1.3548,4.876362 1.40493,7.392555 0.0328,2.367589 -0.21571,4.739632 -0.76737,7.042434 -0.14538,0.64742 -0.23173,1.339961 -0.16881,1.986607 1.46538,0.400304 2.99711,0.267465 4.50192,0.322869 1.34648,0.04193 2.69646,0.05735 4.04109,-0.0088 0.27578,-0.04013 0.58514,-0.09088 0.82641,-0.19829 0.2729,-0.658406 0.50134,-1.35068 0.5635,-2.064714 -0.0367,-0.100862 -0.2753,0.183195 -0.38911,0.213431 -1.18337,0.746932 -2.43095,1.630101 -3.8923,1.612723 -0.90266,0.05047 -1.78048,-0.338802 -2.42801,-0.95401 -1.15695,-1.123512 -1.58529,-2.752968 -1.88142,-4.28734 -0.17166,-0.72333 -0.20395,-1.531038 0.21484,-2.180525 0.56417,-0.940921 1.70751,-1.314862 2.75231,-1.338299 0.36884,-0.02543 0.73851,-0.03427 1.1079,-0.04842 0.044,-0.277453 -0.17871,-0.225107 -0.36551,-0.212053 -0.88424,0.02133 -1.86021,0.234311 -2.65346,-0.285994 -0.67232,-0.378612 -1.10058,-1.134464 -1.05469,-1.908482 -0.021,-0.640535 0.0396,-1.29588 -0.15067,-1.914062 -0.22397,-1.127251 0.33211,-2.33852 1.33092,-2.905971 1.30074,-0.76015 2.86925,-0.704843 4.32476,-0.700774 0.43715,0.0016 0.95176,0.04999 1.3379,0.09251 -0.65571,-0.493457 -1.51835,-0.617234 -2.32282,-0.62779 -0.27508,0.02616 -0.53645,-0.08863 -0.80636,-0.07813 z m 4.19782,2.347935 c -0.3412,-0.20265 -0.39892,-0.152628 0,0 z m 0.76312,-0.0558 c -0.40321,0.193101 0.50432,-0.16137 0,0 z M 159.27366,95.60878 c 0.0131,0.0292 0.0349,-0.035 0,0 z m -0.0377,0.01395 c 0.0703,0.03202 0.0251,-0.06124 0,0 z"
       id="path4705" />
    <path
       sodipodi:nodetypes="cssssscccc"
       id="path3770"
       d="m 136.60032,87.914342 c -0.0567,-2.403127 -0.59796,-4.586041 -0.94028,-7.664379 -0.66187,-5.951886 2.12627,-4.253677 5.23669,-5.389351 2.75535,-1.006031 7.95773,-1.033108 9.03949,0.601265 3.91736,5.918506 0.0846,8.888577 0.72063,10.631512 0.76878,2.106581 4.5843,7.064302 3.94806,9.70672 -0.4243,1.762187 -2.43817,1.423207 -4.68806,1.38994 -4.00893,-2.382682 -0.16542,-9.065592 -5.67301,-10.491762 -5.97183,-1.009911 6.09505,10.855411 -5.33388,10.539214 -4.07271,-1.085833 -2.48848,-5.997438 -2.30964,-9.323159 z"
       style="fill:none;stroke:#000000;stroke-width:1.43499994;stroke-linecap:butt;stroke-linejoin:miter;stroke-miterlimit:4;stroke-opacity:1;stroke-dasharray:none;enable-background:new" />
    <path
       style="fill:none;stroke:#000000;stroke-width:1.43499994;stroke-linecap:butt;stroke-linejoin:miter;stroke-miterlimit:4;stroke-opacity:1;stroke-dasharray:none"
       d="m 147.26658,81.195266 c 0.16845,1.263115 -5.83052,2.540573 -6.64685,0.698594 -0.47003,-2.148944 -0.0782,-2.756662 1.96546,-3.225966 3.46778,-0.953364 5.05338,-0.381484 4.68139,2.527372 z"
       id="path4713"
       sodipodi:nodetypes="cccc" />
    <path
       style="fill:#babdb6;fill-opacity:1;stroke:none"
       d="m 138.68759,96.371392 c -1.7446,-0.717327 -2.0849,-2.174459 -1.52611,-6.534584 0.2456,-1.91642 0.18403,-3.20264 -0.30334,-6.336981 -0.32892,-2.115306 -0.4732,-3.359489 -0.50706,-4.372728 -0.0519,-1.552909 0.0859,-2.128352 0.61078,-2.550947 0.26273,-0.211522 0.80676,-0.349876 2.30278,-0.585626 0.62626,-0.09869 1.3276,-0.257634 1.80325,-0.408675 2.82119,-0.895842 6.49183,-0.895578 7.90491,5.69e-4 0.62619,0.397121 1.64468,2.502514 1.88937,3.905662 0.24001,1.37636 0.0985,2.413905 -0.6059,4.442478 -0.15518,0.446875 -0.31799,1.014768 -0.3618,1.261985 -0.15987,0.902093 0.008,1.303102 2.03183,4.86058 0.96556,1.69707 1.69951,3.354951 1.90781,4.309448 0.10457,0.479195 0.0905,1.155985 -0.0303,1.454896 -0.21601,0.534522 -0.61333,0.6426 -2.36598,0.643599 l -1.30198,7.4e-4 -0.27058,-0.221716 c -0.54909,-0.449943 -0.94427,-1.214667 -1.15896,-2.24275 -0.0659,-0.315437 -0.19174,-1.217516 -0.27972,-2.004619 -0.23007,-2.058515 -0.4446,-2.936217 -0.92968,-3.803631 -0.75219,-1.345039 -2.28423,-2.241598 -3.85085,-2.253534 -0.59633,-0.0045 -0.68849,0.01083 -1.00938,0.168419 -0.59731,0.293329 -0.87341,0.782735 -0.87181,1.545331 0.001,0.658438 0.12022,1.155843 0.69029,2.889252 0.2744,0.834349 0.57384,1.826373 0.66544,2.204498 0.20578,0.849493 0.23225,1.710342 0.0675,2.194331 -0.31612,0.928517 -1.30183,1.403193 -3.16702,1.525109 -0.49843,0.03258 -0.92031,0.05915 -0.9375,0.05904 -0.0172,-1.25e-4 -0.19536,-0.06767 -0.39594,-0.150146 l 0,0 z m 5.76907,-12.949989 c 1.84639,-0.272618 3.28506,-1.031913 3.50653,-1.850672 0.10259,-0.379282 0.10316,-1.633954 9.3e-4,-2.046423 -0.24814,-1.001112 -0.88025,-1.651208 -1.85152,-1.904193 -0.43059,-0.112152 -1.40078,-0.125558 -2.04835,-0.0283 -0.59077,0.08873 -2.31077,0.51697 -2.71277,0.675424 -1.37288,0.541136 -1.84494,1.518825 -1.5549,3.220371 0.12424,0.728843 0.25272,1.005314 0.61292,1.318889 0.50066,0.435851 1.12817,0.65014 2.08028,0.710399 0.75663,0.04789 1.11297,0.03059 1.96688,-0.09549 l 0,0 z"
       id="path4743" />
    <path
       style="fill:#d3d7cf;fill-opacity:1;stroke:none"
       d="m 145.43314,76.196183 c -1.06964,-0.01968 -2.1538,0.05695 -3.18554,0.322266 -1.45628,0.482242 -2.98191,0.713622 -4.47852,1.013672 -0.26254,0.250474 -0.16514,0.710939 -0.20182,1.044918 0.008,2.029337 0.45077,4.024091 0.68083,6.034116 0.25359,1.560282 0.33967,3.146033 0.18399,4.72155 -0.14065,1.573791 -0.3682,3.161134 -0.18448,4.742385 0.0677,0.629093 0.60819,1.262041 1.2832,1.185546 0.7175,-0.03138 1.47449,-0.06856 2.13281,-0.371093 0.26517,-0.13099 0.42148,-0.372665 0.37305,-0.669922 0.056,-1.382703 -0.61174,-2.651863 -0.96235,-3.959377 -0.39643,-1.293094 -0.87816,-2.770448 -0.20367,-4.058201 0.48377,-0.952653 1.54835,-1.563947 2.61914,-1.456562 0.85882,-0.05165 1.71961,0.102084 2.48633,0.49953 1.82624,0.791027 3.03888,2.622604 3.35938,4.546875 0.31522,1.431707 0.32044,2.916927 0.67382,4.339844 0.0869,0.403932 0.30778,0.746217 0.54883,1.066406 0.68704,0.114421 1.42137,0.06713 2.1211,-0.0098 0.0195,-0.759845 -0.34749,-1.460512 -0.60547,-2.151467 -0.95203,-2.073573 -2.22563,-3.984938 -3.16016,-6.06533 -0.51763,-1.16982 -0.17019,-2.459129 0.22656,-3.605469 0.35553,-1.07709 0.74521,-2.198934 0.55664,-3.351562 -0.17905,-1.191555 -0.64856,-2.351057 -1.35937,-3.322266 -0.35236,-0.346873 -0.91181,-0.354931 -1.36719,-0.462891 -0.50964,-0.05175 -1.02546,-0.02994 -1.53711,-0.0332 z m -0.37695,0.0957 c 1.48175,-0.04264 3.08039,0.623392 3.75195,2.013672 0.57671,1.104456 0.5108,2.409826 0.32443,3.603538 -0.36447,1.173332 -1.53495,1.868276 -2.63497,2.248025 -1.46922,0.561064 -3.07548,0.670711 -4.63086,0.542969 -1.26298,-0.221044 -2.65374,-0.885182 -3.08789,-2.183594 -0.29771,-1.081645 -0.38854,-2.26874 -0.043,-3.34961 0.45448,-1.300792 1.78297,-1.976286 3.03608,-2.302335 1.07133,-0.290519 2.16843,-0.556086 3.28423,-0.572665 z m 7.78906,15.472657 c 0.31126,-0.0562 0.73211,-0.200416 0,0 z m -0.57812,0.578125 c 0.1505,-0.193407 0.17459,-0.331283 0.0208,-0.03583 l -0.0208,0.03583 z m -0.0742,0.128906 c 0.0901,-0.131907 0.11169,-0.198549 0,0 z"
       id="path4747" />
  </g>
  <g
     inkscape:groupmode="layer"
     id="layer5"
     inkscape:label="New A"
     style="display:none"
     sodipodi:insensitive="true">
    <g
       id="g3371"
       style="fill:#73d216"
       transform="translate(0.59178145,0.92495691)">
      <path
         id="path3367"
         d="m 105,83 c 0,0 0.89286,-16.25 4.82143,-17.5 3.92857,-1.25 12.32143,-3.928572 13.39286,0.892857 1.07142,4.821429 9.82142,26.25 8.03571,29.107143 -1.78571,2.857143 -5.71429,4.82143 -8.57143,3.571429 -2.85714,-1.25 -2.32143,-15.000001 -5.53571,-16.964286 -3.21429,-1.964286 0,10.357143 -5,12.321428 C 103.5729,99.520929 103.97754,89.472998 105,83 z"
         style="fill:#73d216;stroke:#000000;stroke-width:1px;stroke-linecap:butt;stroke-linejoin:miter;stroke-opacity:1"
         sodipodi:nodetypes="cssssscc" />
    </g>
    <path
       style="fill:#eeeeec;stroke:#000000;stroke-width:1px;stroke-linecap:butt;stroke-linejoin:miter;stroke-opacity:1"
       d="m 112.10964,74.416028 c -0.58036,3.080357 -2.79907,5.852269 0.49107,5.982143 3.39285,0.133929 4.50893,0.3125 6.11607,-0.08929 3.95166,-0.987925 4.15179,-2.455357 2.67857,-4.196428 -1.47321,-1.741072 -2.63393,-3.973214 -3.61607,-3.883929 -2.16699,0.317519 -5.1907,-0.03828 -5.66964,2.187504 z"
       id="path3369"
       sodipodi:nodetypes="cssscc" />
    <path
       style="fill:#8ae234;fill-opacity:1;stroke:none"
       d="m 118.93023,66.329442 c -2.61025,0.12952 -5.13041,0.891781 -7.61172,1.66727 -0.49028,0.09282 -0.79505,0.499304 -1.0022,0.921246 -1.10948,2.004854 -1.51256,4.30132 -1.95048,6.523583 -0.55308,2.983808 -0.79026,6.009638 -1.08423,9.030397 -0.29407,2.091322 -0.49633,4.203049 -0.38911,6.316053 0.0472,1.277162 0.13098,2.649086 0.88265,3.729048 0.50457,0.645768 1.44105,0.454192 2.11698,0.228863 0.95498,-0.341688 1.87037,-0.812309 2.71873,-1.363312 0.95095,-1.107264 1.15975,-2.62615 1.35661,-4.020479 0.26773,-1.970727 0.22017,-3.987835 0.62621,-5.940966 0.10205,-0.398987 0.25751,-0.784832 0.46562,-1.140368 -1.37641,-0.09416 -2.79891,-0.0075 -4.12742,-0.43405 -1.14659,-0.405695 -1.89445,-1.594682 -1.83485,-2.799622 0.0424,-1.453265 0.72633,-2.789417 1.07363,-4.178041 0.28179,-1.060487 0.56345,-2.223835 1.47937,-2.930513 1.40212,-1.191504 3.34123,-1.197203 5.07444,-1.385014 0.87426,-0.09556 1.84825,-0.183064 2.59049,0.392618 1.24136,0.948339 2.06748,2.311909 3.03287,3.514982 0.73837,1.029744 1.70935,2.096568 1.63514,3.453492 0.0242,1.471357 -1.12939,2.633373 -2.37544,3.229726 -0.75393,0.378268 -1.56037,0.640064 -2.37741,0.842452 1.30391,1.271043 1.83562,3.095892 2.25559,4.81631 0.77456,3.347043 1.11012,6.801591 1.95811,10.122477 0.17099,0.498069 0.28262,1.089023 0.65358,1.474219 0.69198,0.324337 1.48729,0.153707 2.2176,0.05919 1.60558,-0.463498 3.07651,-1.508259 3.96564,-2.921946 0.0934,-1.390453 -0.28916,-2.760779 -0.59094,-4.107866 -1.37096,-5.329174 -3.25296,-10.497219 -5.01892,-15.709072 -0.92134,-2.723251 -1.90488,-5.424207 -2.65879,-8.199011 -0.21448,-0.762927 -1.05856,-1.066226 -1.76777,-1.124584 -0.43653,-0.06711 -0.87761,-0.07669 -1.31398,-0.06708 z"
       id="path3384" />
  </g>
</svg>
