<?xml version="1.0" encoding="UTF-8" standalone="no"?>
<!-- Created with Inkscape (http://www.inkscape.org/) -->

<svg
   xmlns:dc="http://purl.org/dc/elements/1.1/"
   xmlns:cc="http://creativecommons.org/ns#"
   xmlns:rdf="http://www.w3.org/1999/02/22-rdf-syntax-ns#"
   xmlns:svg="http://www.w3.org/2000/svg"
   xmlns="http://www.w3.org/2000/svg"
   xmlns:xlink="http://www.w3.org/1999/xlink"
   version="1.1"
   width="256"
   height="256"
   id="svg4571">
  <defs
     id="defs4573">
    <linearGradient
       id="linearGradient5206">
      <stop
         id="stop5208"
         style="stop-color:#c4a000;stop-opacity:1"
         offset="0" />
      <stop
         id="stop5210"
         style="stop-color:#edd400;stop-opacity:1"
         offset="1" />
    </linearGradient>
    <linearGradient
       x1="64.612122"
       y1="126.30727"
       x2="63.72102"
       y2="59.637203"
       id="linearGradient5490"
       xlink:href="#linearGradient5206"
       gradientUnits="userSpaceOnUse" />
    <linearGradient
       x1="64.612122"
       y1="126.30727"
       x2="63.72102"
       y2="59.637203"
       id="linearGradient5520"
       xlink:href="#linearGradient5206"
       gradientUnits="userSpaceOnUse" />
    <linearGradient
       x1="64.612122"
       y1="126.30727"
       x2="63.72102"
       y2="59.637203"
       id="linearGradient5529"
       xlink:href="#linearGradient5206"
       gradientUnits="userSpaceOnUse" />
    <linearGradient
       x1="64.612122"
       y1="126.30727"
       x2="63.72102"
       y2="59.637203"
       id="linearGradient5537"
       xlink:href="#linearGradient5206"
       gradientUnits="userSpaceOnUse" />
  </defs>
  <metadata
     id="metadata4576">
    <rdf:RDF>
      <cc:Work
         rdf:about="">
        <dc:format>image/svg+xml</dc:format>
        <dc:type
           rdf:resource="http://purl.org/dc/dcmitype/StillImage" />
        <dc:title></dc:title>
      </cc:Work>
    </rdf:RDF>
  </metadata>
  <g
     id="layer1">
    <path
       d="m 127.7843,63.729046 a 63.765881,63.260803 0 1 1 -127.53176323,0 63.765881,63.260803 0 1 1 127.53176323,0 z"
       transform="matrix(1.9979337,0,0,2.0138852,0.09544828,-0.34298696)"
       id="path5469"
       style="fill:#eeeeec;fill-opacity:1;stroke:none" />
    <g
       transform="matrix(1.5172006,0,0,1.5172006,30.918614,31.597086)"
       id="g5471">
      <path
         d="M 6.429,10.5 45,15.5 58.571,6.571 c 4.187961,-2.526864 6.571725,-2.5241328 10.858,0 L 83,15.5 l 38.571,-5 c 4.51109,26.612883 4.73289,53.654693 -1.785,82.143 L 65,126.21429 8.214,93.357143 C 1.1504431,62.082089 2.6250566,35.632554 6.429,10.5 z"
         id="path4680"
         style="fill:url(#linearGradient5537);fill-opacity:1;stroke:none" />
    </g>
    <text
       x="88.666664"
       y="178.50386"
       transform="scale(1.000003,0.99999697)"
       id="text5253"
       xml:space="preserve"
       style="font-size:157.40959167px;font-style:normal;font-variant:normal;font-weight:normal;font-stretch:normal;line-height:125%;letter-spacing:0px;word-spacing:0px;fill:#fce94f;fill-opacity:1;stroke:none;font-family:DejaVu Serif;-inkscape-font-specification:DejaVu Serif"><tspan
         x="88.666664"
         y="178.50386"
         id="tspan5255">†</tspan></text>
  </g>
</svg>
