<?xml version="1.0" encoding="UTF-8" standalone="no"?>
<!-- Created with Inkscape (http://www.inkscape.org/) -->

<svg
   xmlns:dc="http://purl.org/dc/elements/1.1/"
   xmlns:cc="http://creativecommons.org/ns#"
   xmlns:rdf="http://www.w3.org/1999/02/22-rdf-syntax-ns#"
   xmlns:svg="http://www.w3.org/2000/svg"
   xmlns="http://www.w3.org/2000/svg"
   xmlns:sodipodi="http://sodipodi.sourceforge.net/DTD/sodipodi-0.dtd"
   xmlns:inkscape="http://www.inkscape.org/namespaces/inkscape"
   version="1.1"
   width="512"
   height="512"
   id="svg2"
   style="display:inline;enable-background:new"
   inkscape:version="0.48.2 r9819"
   sodipodi:docname="n_flag2.svg"
   inkscape:export-xdpi="90"
   inkscape:export-ydpi="90">
  <sodipodi:namedview
     pagecolor="#000000"
     bordercolor="#666666"
     borderopacity="1"
     objecttolerance="10"
     gridtolerance="10"
     guidetolerance="10"
     inkscape:pageopacity="0"
     inkscape:pageshadow="2"
     inkscape:window-width="1152"
     inkscape:window-height="810"
     id="namedview3075"
     showgrid="false"
     inkscape:zoom="0.83692715"
     inkscape:cx="440.55104"
     inkscape:cy="252.2244"
     inkscape:window-x="0"
     inkscape:window-y="26"
     inkscape:window-maximized="1"
     inkscape:current-layer="svg2" />
  <defs
     id="defs9" />
  <metadata
     id="metadata7">
    <rdf:RDF>
      <cc:Work
         rdf:about="">
        <dc:format>image/svg+xml</dc:format>
        <dc:type
           rdf:resource="http://purl.org/dc/dcmitype/StillImage" />
        <dc:title></dc:title>
        <cc:license
           rdf:resource="" />
      </cc:Work>
    </rdf:RDF>
  </metadata>
  <path
     style="fill:#eeeeec;fill-opacity:1;stroke:#000000;stroke-width:3.79429817;stroke-miterlimit:4;stroke-opacity:1;stroke-dasharray:none"
     d="m 69.897149,1.8971419 0,508.2056981 440.205691,0 0,-508.2056981 -440.205691,0 z M 290.68723,58.017251 c 19.21873,0 34.79911,15.585031 34.79911,34.809465 0,14.852444 -9.33666,27.560574 -22.42887,32.559654 l 0,85.86753 c 16.04205,4.4382 28.64107,17.28685 32.67494,33.49707 l 85.15475,0 c 4.67962,-13.69733 17.64638,-23.56044 32.92483,-23.56044 19.21873,0 34.79913,15.58502 34.79913,34.80946 0,19.22445 -15.5804,34.80947 -34.79913,34.80947 -15.27845,0 -28.24521,-9.86312 -32.92483,-23.56044 l -85.15475,0 c -4.03387,16.21022 -16.63289,29.05886 -32.67494,33.49707 l 0,85.86752 c 13.09221,4.9991 22.42887,17.70723 22.42887,32.55966 0,19.22445 -15.58038,34.80946 -34.79911,34.80946 -19.21873,0 -34.79911,-15.58501 -34.79911,-34.80946 0,-14.85243 9.27419,-27.56056 22.3664,-32.55966 l 0,-85.86752 c -16.04206,-4.43821 -28.5786,-17.28685 -32.61247,-33.49707 l -85.15475,0 c -4.67964,13.69732 -17.64639,23.56044 -32.92483,23.56044 -19.21872,0 -34.799114,-15.58502 -34.799114,-34.80947 0,-19.22444 15.580394,-34.80946 34.799114,-34.80946 15.27844,0 28.24519,9.86311 32.92483,23.56044 l 85.15475,0 c 4.03387,-16.21022 16.57041,-29.05887 32.61247,-33.49707 l 0,-85.86753 c -13.09221,-4.99908 -22.3664,-17.70721 -22.3664,-32.559654 0,-19.224434 15.58038,-34.809465 34.79911,-34.809465 z"
     id="rect3168"
     inkscape:connector-curvature="0" />
  <rect
     style="fill:#eeeeec;fill-opacity:1;stroke:#000000;stroke-width:4.01058722;stroke-miterlimit:4;stroke-opacity:1;stroke-dasharray:none"
     id="rect3938"
     width="66.98941"
     height="507.98944"
     x="2.0052936"
     y="2.0052655" />
  <path
     sodipodi:type="arc"
     style="fill:#000000;fill-opacity:1;stroke:#000000;stroke-width:2;stroke-linejoin:round;stroke-miterlimit:4;stroke-opacity:1;stroke-dasharray:none;stroke-dashoffset:0"
     id="path3940"
     sodipodi:cx="17.953794"
     sodipodi:cy="14.996699"
     sodipodi:rx="8.2376242"
     sodipodi:ry="2.7458746"
     d="m 26.191419,14.996699 a 8.2376242,2.7458746 0 1 1 -16.4752487,0 8.2376242,2.7458746 0 1 1 16.4752487,0 z"
     transform="matrix(2,0,0,2,-1.4323378,4.4922534)" />
  <path
     transform="matrix(2,0,0,2,-1.4323378,447.47626)"
     sodipodi:type="arc"
     style="fill:#000000;fill-opacity:1;stroke:#000000;stroke-width:2;stroke-linejoin:round;stroke-miterlimit:4;stroke-opacity:1;stroke-dasharray:none;stroke-dashoffset:0;display:inline;enable-background:new"
     id="path3940-9"
     sodipodi:cx="17.953794"
     sodipodi:cy="14.996699"
     sodipodi:rx="8.2376242"
     sodipodi:ry="2.7458746"
     d="m 26.191419,14.996699 a 8.2376242,2.7458746 0 1 1 -16.4752487,0 8.2376242,2.7458746 0 1 1 16.4752487,0 z" />
  <path
     sodipodi:type="arc"
     style="opacity:0.1;fill:#2e3436;fill-opacity:1;stroke:none"
     id="path2987"
     sodipodi:cx="393.29373"
     sodipodi:cy="405.1221"
     sodipodi:rx="25.346535"
     sodipodi:ry="26.19142"
     d="m 418.64027,405.1221 a 25.346535,26.19142 0 1 1 -50.69307,0 25.346535,26.19142 0 1 1 50.69307,0 z"
     transform="translate(40.132014,57.452147)" />
  <path
     sodipodi:type="arc"
     style="opacity:0.15;fill:#2e3436;fill-opacity:1;stroke:none"
     id="path3757"
     sodipodi:cx="432.58087"
     sodipodi:cy="417.16171"
     sodipodi:rx="8.8712873"
     sodipodi:ry="8.6600666"
     d="m 441.45216,417.16171 a 8.8712873,8.6600666 0 1 1 -17.74258,0 8.8712873,8.6600666 0 1 1 17.74258,0 z" />
  <path
     sodipodi:type="arc"
     style="opacity:0.15;fill:#2e3436;fill-opacity:1;stroke:none"
     id="path3759"
     sodipodi:cx="454.75909"
     sodipodi:cy="377.66336"
     sodipodi:rx="6.1254129"
     sodipodi:ry="7.1815186"
     d="m 460.88451,377.66336 a 6.1254129,7.1815186 0 1 1 -12.25083,0 6.1254129,7.1815186 0 1 1 12.25083,0 z"
     transform="translate(-2.1122113,20.699671)" />
  <path
     sodipodi:type="arc"
     style="opacity:0.25;fill:#2e3436;fill-opacity:1;stroke:none"
     id="path3761"
     sodipodi:cx="464.47525"
     sodipodi:cy="350.41583"
     sodipodi:rx="2.7458746"
     sodipodi:ry="3.1683168"
     d="m 467.22112,350.41583 a 2.7458746,3.1683168 0 1 1 -5.49174,0 2.7458746,3.1683168 0 1 1 5.49174,0 z"
     transform="translate(-15.630363,27.036304)" />
  <path
     sodipodi:type="arc"
     style="opacity:0.15;fill:#2e3436;fill-opacity:1;stroke:none"
     id="path3763"
     sodipodi:cx="375.76239"
     sodipodi:cy="478.83829"
     sodipodi:rx="5.2805281"
     sodipodi:ry="6.1254129"
     d="m 381.04292,478.83829 a 5.2805281,6.1254129 0 1 1 -10.56106,0 5.2805281,6.1254129 0 1 1 10.56106,0 z"
     transform="translate(16.052806,4.6468648)" />
  <path
     sodipodi:type="arc"
     style="opacity:0.15;fill:#2e3436;fill-opacity:1;stroke:none"
     id="path3765"
     sodipodi:cx="14.9967"
     sodipodi:cy="375.55115"
     sodipodi:rx="3.1683168"
     sodipodi:ry="4.2244225"
     d="m 18.165017,375.55115 a 3.1683168,4.2244225 0 1 1 -6.336634,0 3.1683168,4.2244225 0 1 1 6.336634,0 z"
     transform="matrix(1,0,0,0.72499999,0,104.43828)" />
  <path
     sodipodi:type="arc"
     style="opacity:0.15;fill:#2e3436;fill-opacity:1;stroke:none"
     id="path3767"
     sodipodi:cx="33.37294"
     sodipodi:cy="404.69968"
     sodipodi:rx="6.3366337"
     sodipodi:ry="6.3366337"
     d="m 39.709574,404.69968 a 6.3366337,6.3366337 0 1 1 -12.673268,0 6.3366337,6.3366337 0 1 1 12.673268,0 z" />
  <path
     sodipodi:type="arc"
     style="opacity:0.25;fill:#2e3436;fill-opacity:1;stroke:none"
     id="path3769"
     sodipodi:cx="39.075909"
     sodipodi:cy="393.71616"
     sodipodi:rx="1.9009901"
     sodipodi:ry="2.1122112"
     d="m 40.976899,393.71616 a 1.9009901,2.1122112 0 1 1 -3.80198,0 1.9009901,2.1122112 0 1 1 3.80198,0 z" />
  <path
     sodipodi:type="arc"
     style="opacity:0.25;fill:#2e3436;fill-opacity:1;stroke:none"
     id="path3771"
     sodipodi:cx="90.825089"
     sodipodi:cy="424.9769"
     sodipodi:rx="3.3795381"
     sodipodi:ry="3.3795381"
     d="m 94.204627,424.9769 a 3.3795381,3.3795381 0 1 1 -6.759077,0 3.3795381,3.3795381 0 1 1 6.759077,0 z" />
  <path
     sodipodi:type="arc"
     style="opacity:0.15;fill:#2e3436;fill-opacity:1;stroke:none"
     id="path3773"
     sodipodi:cx="104.9769"
     sodipodi:cy="437.65018"
     sodipodi:rx="6.9702973"
     sodipodi:ry="7.6039605"
     d="m 111.9472,437.65018 a 6.9702973,7.6039605 0 1 1 -13.940599,0 6.9702973,7.6039605 0 1 1 13.940599,0 z" />
  <path
     sodipodi:type="arc"
     style="opacity:0.1;fill:#2e3436;fill-opacity:1;stroke:none"
     id="path3775"
     sodipodi:cx="155.66997"
     sodipodi:cy="482.00659"
     sodipodi:rx="10.772278"
     sodipodi:ry="10.561056"
     d="m 166.44225,482.00659 a 10.772278,10.561056 0 1 1 -21.54456,0 10.772278,10.561056 0 1 1 21.54456,0 z" />
  <path
     sodipodi:type="arc"
     style="opacity:0.15;fill:#2e3436;fill-opacity:1;stroke:none"
     id="path3777"
     sodipodi:cx="170.24423"
     sodipodi:cy="464.0528"
     sodipodi:rx="5.0693069"
     sodipodi:ry="5.2805281"
     d="m 175.31354,464.0528 a 5.0693069,5.2805281 0 1 1 -10.13861,0 5.0693069,5.2805281 0 1 1 10.13861,0 z" />
  <path
     sodipodi:type="arc"
     style="opacity:0.15;fill:#2e3436;fill-opacity:1;stroke:none"
     id="path3779"
     sodipodi:cx="209.74258"
     sodipodi:cy="190.52144"
     sodipodi:rx="4.8580861"
     sodipodi:ry="4.6468649"
     d="m 214.60067,190.52144 a 4.8580861,4.6468649 0 1 1 -9.71617,0 4.8580861,4.6468649 0 1 1 9.71617,0 z"
     transform="translate(-28.726073,8.4488451)" />
  <path
     sodipodi:type="arc"
     style="opacity:0.15;fill:#2e3436;fill-opacity:1;stroke:none"
     id="path3781"
     sodipodi:cx="204.03961"
     sodipodi:cy="166.01979"
     sodipodi:rx="7.6039605"
     sodipodi:ry="7.1815186"
     d="m 211.64357,166.01979 a 7.6039605,7.1815186 0 1 1 -15.20792,0 7.6039605,7.1815186 0 1 1 15.20792,0 z"
     transform="translate(-28.726073,8.4488451)" />
  <path
     sodipodi:type="arc"
     style="opacity:0.25;fill:#2e3436;fill-opacity:1;stroke:none"
     id="path3783"
     sodipodi:cx="420.75247"
     sodipodi:cy="109.41253"
     sodipodi:rx="4.2244225"
     sodipodi:ry="3.8019803"
     d="m 424.97689,109.41253 a 4.2244225,3.8019803 0 1 1 -8.44884,0 4.2244225,3.8019803 0 1 1 8.44884,0 z"
     transform="translate(32.950496,-20.277228)" />
  <path
     sodipodi:type="arc"
     style="opacity:0.25;fill:#2e3436;fill-opacity:1;stroke:none"
     id="path3785"
     sodipodi:cx="416.10562"
     sodipodi:cy="77.729362"
     sodipodi:rx="2.1122112"
     sodipodi:ry="0.84488451"
     d="m 418.21783,77.729362 a 2.1122112,0.84488451 0 1 1 -4.22442,0 2.1122112,0.84488451 0 1 1 4.22442,0 z"
     transform="matrix(1.5656854,0,0,3.1213203,-204.52537,-185.16611)" />
  <path
     sodipodi:type="arc"
     style="opacity:0.25;fill:#2e3436;fill-opacity:1;stroke:none"
     id="path3789"
     sodipodi:cx="375.12872"
     sodipodi:cy="330.77228"
     sodipodi:rx="2.5346534"
     sodipodi:ry="4.6468649"
     d="m 377.66338,330.77228 a 2.5346534,4.6468649 0 1 1 -5.06931,0 2.5346534,4.6468649 0 1 1 5.06931,0 z"
     transform="matrix(1.6666667,0,0,0.86363637,-359.07593,90.09541)" />
  <path
     sodipodi:type="arc"
     style="opacity:0.25;fill:#2e3436;fill-opacity:1;stroke:none"
     id="path3791"
     sodipodi:cx="100.11881"
     sodipodi:cy="25.768965"
     sodipodi:rx="4.6468649"
     sodipodi:ry="3.8019803"
     d="m 104.76568,25.768965 a 4.6468649,3.8019803 0 1 1 -9.293732,0 4.6468649,3.8019803 0 1 1 9.293732,0 z" />
  <path
     sodipodi:type="arc"
     style="opacity:0.15;fill:#2e3436;fill-opacity:1;stroke:none"
     id="path3793"
     sodipodi:cx="97.16172"
     sodipodi:cy="47.313519"
     sodipodi:rx="6.7590761"
     sodipodi:ry="5.0693069"
     d="m 103.9208,47.313519 a 6.7590761,5.0693069 0 1 1 -13.518156,0 6.7590761,5.0693069 0 1 1 13.518156,0 z" />
  <path
     sodipodi:type="arc"
     style="opacity:0.15;fill:#2e3436;fill-opacity:1;stroke:none"
     id="path3795"
     sodipodi:cx="129.68977"
     sodipodi:cy="47.313519"
     sodipodi:rx="12.250825"
     sodipodi:ry="10.138614"
     d="m 141.9406,47.313519 a 12.250825,10.138614 0 1 1 -24.50165,0 12.250825,10.138614 0 1 1 24.50165,0 z"
     transform="translate(-3.8019803,16.475248)" />
</svg>
