<?xml version="1.0" encoding="UTF-8" standalone="no"?>
<!-- Created with Inkscape (http://www.inkscape.org/) -->

<svg
   xmlns:dc="http://purl.org/dc/elements/1.1/"
   xmlns:cc="http://creativecommons.org/ns#"
   xmlns:rdf="http://www.w3.org/1999/02/22-rdf-syntax-ns#"
   xmlns:svg="http://www.w3.org/2000/svg"
   xmlns="http://www.w3.org/2000/svg"
   xmlns:sodipodi="http://sodipodi.sourceforge.net/DTD/sodipodi-0.dtd"
   xmlns:inkscape="http://www.inkscape.org/namespaces/inkscape"
   width="128"
   height="128"
   id="svg2"
   version="1.1"
   inkscape:version="0.48.0 r9654"
   sodipodi:docname="follow.svg"
   inkscape:export-filename="/home/zack/Turtle_Arena_svn/trunk/base-src/ui/assets/statusbar/follow.png"
   inkscape:export-xdpi="90"
   inkscape:export-ydpi="90">
  <defs
     id="defs4" />
  <sodipodi:namedview
     id="base"
     pagecolor="#ffffff"
     bordercolor="#666666"
     borderopacity="1.0"
     inkscape:pageopacity="0.0"
     inkscape:pageshadow="2"
     inkscape:zoom="3.959798"
     inkscape:cx="78.155009"
     inkscape:cy="64.434958"
     inkscape:document-units="px"
     inkscape:current-layer="layer1"
     showgrid="false"
     inkscape:window-width="1152"
     inkscape:window-height="782"
     inkscape:window-x="0"
     inkscape:window-y="27"
     inkscape:window-maximized="1" />
  <metadata
     id="metadata7">
    <rdf:RDF>
      <cc:Work
         rdf:about="">
        <dc:format>image/svg+xml</dc:format>
        <dc:type
           rdf:resource="http://purl.org/dc/dcmitype/StillImage" />
        <dc:title></dc:title>
      </cc:Work>
    </rdf:RDF>
  </metadata>
  <g
     inkscape:label="Layer 1"
     inkscape:groupmode="layer"
     id="layer1">
    <path
       sodipodi:type="arc"
       style="fill:#ffffff;fill-opacity:1;stroke:none"
       id="path3049"
       sodipodi:cx="86.964287"
       sodipodi:cy="31.571428"
       sodipodi:rx="16.607141"
       sodipodi:ry="14.017857"
       d="m 103.57143,31.571428 a 16.607141,14.017857 0 1 1 -33.214285,0 16.607141,14.017857 0 1 1 33.214285,0 z"
       transform="translate(-2.8571429,-1.3392857)" />
    <path
       style="fill:none;stroke:#ffffff;stroke-width:6.59999990000000025;stroke-linecap:butt;stroke-linejoin:miter;stroke-miterlimit:4;stroke-opacity:1;stroke-dasharray:none"
       d="m 83.214286,43.267857 -0.892857,40.446429 c 3.782166,12.478759 10.82387,23.673454 11.071428,37.544634 m -11.25,-37.544634 C 77.15938,94.152315 71.204302,109.12131 71.383928,119.78572 M 67.276786,71.794643 c 4.111539,-10.198613 9.530019,-14.189258 15.044643,-17.723215 5.296755,4.660359 11.350814,8.979931 14.419643,14.642857"
       id="path3053"
       inkscape:connector-curvature="0"
       sodipodi:nodetypes="cccccccc" />
    <path
       sodipodi:type="arc"
       style="fill:#ffffff;fill-opacity:1;stroke:none"
       id="path3049-8"
       sodipodi:cx="86.964287"
       sodipodi:cy="31.571428"
       sodipodi:rx="16.607141"
       sodipodi:ry="14.017857"
       d="m 103.57143,31.571428 a 16.607141,14.017857 0 1 1 -33.214285,0 16.607141,14.017857 0 1 1 33.214285,0 z"
       transform="matrix(0.75108943,0,0,0.75108943,-32.175027,-0.87638376)" />
    <path
       style="fill:none;stroke:#ffffff;stroke-width:4.95719004000000041;stroke-linecap:butt;stroke-linejoin:miter;stroke-miterlimit:4;stroke-opacity:1;stroke-dasharray:none"
       d="m 32.472314,32.62757 -0.670616,30.378885 c 2.840745,9.372664 8.129695,17.780881 8.315633,28.199378 M 31.667575,63.006455 c -3.743037,7.839893 -8.215833,19.082947 -8.080918,27.092873 M 20.501826,54.053737 c 3.088133,-7.66007 7.157896,-10.657402 11.299872,-13.311719 3.978337,3.500346 8.525477,6.744731 10.830442,10.998095"
       id="path3053-5"
       inkscape:connector-curvature="0"
       sodipodi:nodetypes="cccccccc" />
  </g>
</svg>
