<?xml version="1.0" encoding="UTF-8" standalone="no"?>
<!-- Created with Inkscape (http://www.inkscape.org/) -->

<svg
   xmlns:dc="http://purl.org/dc/elements/1.1/"
   xmlns:cc="http://creativecommons.org/ns#"
   xmlns:rdf="http://www.w3.org/1999/02/22-rdf-syntax-ns#"
   xmlns:svg="http://www.w3.org/2000/svg"
   xmlns="http://www.w3.org/2000/svg"
   xmlns:sodipodi="http://sodipodi.sourceforge.net/DTD/sodipodi-0.dtd"
   xmlns:inkscape="http://www.inkscape.org/namespaces/inkscape"
   version="1.1"
   width="512"
   height="512"
   id="svg2"
   style="display:inline;enable-background:new"
   inkscape:version="0.48.2 r9819"
   sodipodi:docname="r_flag2.svg"
   inkscape:export-xdpi="90"
   inkscape:export-ydpi="90">
  <sodipodi:namedview
     pagecolor="#000000"
     bordercolor="#666666"
     borderopacity="1"
     objecttolerance="10"
     gridtolerance="10"
     guidetolerance="10"
     inkscape:pageopacity="0"
     inkscape:pageshadow="2"
     inkscape:window-width="1152"
     inkscape:window-height="810"
     id="namedview3075"
     showgrid="false"
     inkscape:zoom="1.1835938"
     inkscape:cx="289.09913"
     inkscape:cy="244.78517"
     inkscape:window-x="0"
     inkscape:window-y="26"
     inkscape:window-maximized="1"
     inkscape:current-layer="svg2" />
  <defs
     id="defs9" />
  <metadata
     id="metadata7">
    <rdf:RDF>
      <cc:Work
         rdf:about="">
        <dc:format>image/svg+xml</dc:format>
        <dc:type
           rdf:resource="http://purl.org/dc/dcmitype/StillImage" />
        <dc:title />
      </cc:Work>
    </rdf:RDF>
  </metadata>
  <path
     inkscape:connector-curvature="0"
     style="fill:#a40000;fill-opacity:1;stroke:#000000;stroke-width:3.79429841;stroke-miterlimit:4;stroke-opacity:1;stroke-dasharray:none"
     d="m 69.897149,1.8971465 0,508.2057035 440.205701,0 0,-508.2057035 -440.205701,0 z M 193.66205,70.766145 c 2.83136,0.11101 5.49888,0.78273 7.93445,2.06232 42.24056,34.082575 72.6171,89.803045 81.09381,128.113835 7.09616,34.77976 0.17033,45.12538 -31.11303,49.12071 C 211.68979,254.21565 146.0678,247.09094 99.698194,222.00297 69.250851,191.7218 151.19185,69.101087 193.66205,70.766145 z m 193.17571,0 c 42.47022,-1.665058 124.41121,120.955655 93.96386,151.236825 -46.36961,25.08797 -111.92911,32.21268 -151.81662,28.06004 -31.28334,-3.99533 -38.27163,-14.34095 -31.17549,-49.12071 8.47672,-38.31078 38.85328,-94.03126 81.09379,-128.113835 2.43559,-1.27959 5.10311,-1.951316 7.93446,-2.06232 z M 290.49982,249.25058 c 8.8299,0.26665 18.07354,6.69472 30.42578,19.43581 26.84024,28.61449 55.67503,85.12288 59.97694,139.23787 -5.08585,43.73553 -172.21696,45.0456 -180.55555,0 5.4519,-52.45077 36.54526,-110.63698 62.47597,-141.23769 10.47334,-11.79162 18.84694,-17.70262 27.67686,-17.43599 z m -35.86121,10.4366 -15.55653,14.87369 c -48.60562,40.63775 -67.52819,63.63864 -78.5323,130.05118 -26.52085,14.8381 -26.71263,12.81398 -45.23261,-13.31134 33.56269,-57.98913 49.88088,-98.47828 113.58134,-127.61389 l 25.7401,-3.99964 z"
     id="rect3168" />
  <rect
     style="fill:#a40000;fill-opacity:1;stroke:#000000;stroke-width:4.01058722;stroke-miterlimit:4;stroke-opacity:1;stroke-dasharray:none"
     id="rect3938"
     width="66.98941"
     height="507.98941"
     x="2.005286"
     y="2.0052936" />
  <path
     sodipodi:type="arc"
     style="fill:#000000;fill-opacity:1;stroke:#000000;stroke-width:2;stroke-linejoin:round;stroke-miterlimit:4;stroke-opacity:1;stroke-dasharray:none;stroke-dashoffset:0"
     id="path3940"
     sodipodi:cx="17.953794"
     sodipodi:cy="14.996699"
     sodipodi:rx="8.2376242"
     sodipodi:ry="2.7458746"
     d="m 26.191419,14.996699 a 8.2376242,2.7458746 0 1 1 -16.4752487,0 8.2376242,2.7458746 0 1 1 16.4752487,0 z"
     transform="matrix(2,0,0,2,-1.4323406,4.4922554)" />
  <path
     transform="matrix(2,0,0,2,-1.4323406,447.47626)"
     sodipodi:type="arc"
     style="fill:#000000;fill-opacity:1;stroke:#000000;stroke-width:2;stroke-linejoin:round;stroke-miterlimit:4;stroke-opacity:1;stroke-dasharray:none;stroke-dashoffset:0;display:inline;enable-background:new"
     id="path3940-9"
     sodipodi:cx="17.953794"
     sodipodi:cy="14.996699"
     sodipodi:rx="8.2376242"
     sodipodi:ry="2.7458746"
     d="m 26.191419,14.996699 a 8.2376242,2.7458746 0 1 1 -16.4752487,0 8.2376242,2.7458746 0 1 1 16.4752487,0 z" />
  <path
     sodipodi:type="arc"
     style="opacity:0.25;fill:#2e3436;fill-opacity:1;stroke:none"
     id="path2985"
     sodipodi:cx="26.19142"
     sodipodi:cy="200.44885"
     sodipodi:rx="5.4917493"
     sodipodi:ry="5.2805281"
     d="m 31.683169,200.44885 a 5.4917493,5.2805281 0 1 1 -10.983499,0 5.4917493,5.2805281 0 1 1 10.983499,0 z"
     transform="translate(-3.3795379,176.58086)" />
  <path
     sodipodi:type="arc"
     style="opacity:0.25;fill:#2e3436;fill-opacity:1;stroke:none"
     id="path3755"
     sodipodi:cx="35.590759"
     sodipodi:cy="185.13531"
     sodipodi:rx="4.1188121"
     sodipodi:ry="3.9075906"
     d="m 39.709571,185.13531 a 4.1188121,3.9075906 0 1 1 -8.237624,0 4.1188121,3.9075906 0 1 1 8.237624,0 z"
     transform="translate(-3.3795379,176.58086)" />
  <path
     sodipodi:type="arc"
     style="opacity:0.25;fill:#2e3436;fill-opacity:1;stroke:none"
     id="path3757"
     sodipodi:cx="50.482288"
     sodipodi:cy="209.47964"
     sodipodi:rx="8.2145739"
     sodipodi:ry="8.4386072"
     d="m 58.696862,209.47964 a 8.2145739,8.4386072 0 1 1 -16.429147,0 8.2145739,8.4386072 0 1 1 16.429147,0 z"
     transform="translate(-3.3795379,176.58086)" />
  <path
     sodipodi:type="arc"
     style="opacity:0.25;fill:#2e3436;fill-opacity:1;stroke:none"
     id="path3759"
     sodipodi:cx="104.84783"
     sodipodi:cy="435.97784"
     sodipodi:rx="2.3896942"
     sodipodi:ry="2.2403383"
     d="m 107.23753,435.97784 a 2.3896942,2.2403383 0 1 1 -4.77939,0 2.3896942,2.2403383 0 1 1 4.77939,0 z" />
  <path
     sodipodi:type="arc"
     style="opacity:0.25;fill:#2e3436;fill-opacity:1;stroke:none"
     id="path3761"
     sodipodi:cx="114.70532"
     sodipodi:cy="447.77698"
     sodipodi:rx="5.0781002"
     sodipodi:ry="4.7793884"
     d="m 119.78342,447.77698 a 5.0781002,4.7793884 0 1 1 -10.1562,0 5.0781002,4.7793884 0 1 1 10.1562,0 z" />
  <path
     sodipodi:type="arc"
     style="opacity:0.15;fill:#2e3436;fill-opacity:1;stroke:none"
     id="path3763"
     sodipodi:cx="160.25887"
     sodipodi:cy="475.85587"
     sodipodi:rx="14.786233"
     sodipodi:ry="14.039454"
     d="m 175.0451,475.85587 a 14.786233,14.039454 0 1 1 -29.57247,0 14.786233,14.039454 0 1 1 29.57247,0 z"
     transform="translate(71.690826,7.7665061)" />
  <path
     sodipodi:type="arc"
     style="opacity:0.2;fill:#2e3436;fill-opacity:1;stroke:none"
     id="path3765"
     sodipodi:cx="180.57127"
     sodipodi:cy="459.42673"
     sodipodi:rx="5.8248796"
     sodipodi:ry="5.6755238"
     d="m 186.39615,459.42673 a 5.8248796,5.6755238 0 1 1 -11.64976,0 5.8248796,5.6755238 0 1 1 11.64976,0 z"
     transform="translate(32.614918,7.1328427)" />
  <path
     sodipodi:type="arc"
     style="opacity:0.2;fill:#2e3436;fill-opacity:1;stroke:none"
     id="path3767"
     sodipodi:cx="290.34784"
     sodipodi:cy="481.68076"
     sodipodi:rx="16.130436"
     sodipodi:ry="16.279791"
     d="m 306.47828,481.68076 a 16.130436,16.279791 0 1 1 -32.26088,0 16.130436,16.279791 0 1 1 32.26088,0 z"
     transform="translate(151.01049,-17.841434)" />
  <path
     sodipodi:type="arc"
     style="opacity:0.25;fill:#2e3436;fill-opacity:1;stroke:none"
     id="path3769"
     sodipodi:cx="314.39413"
     sodipodi:cy="465.84903"
     sodipodi:rx="3.1364737"
     sodipodi:ry="2.8377619"
     d="m 317.53061,465.84903 a 3.1364737,2.8377619 0 1 1 -6.27295,0 3.1364737,2.8377619 0 1 1 6.27295,0 z"
     transform="translate(152.80276,-17.542722)" />
  <path
     sodipodi:type="arc"
     style="opacity:0.25;fill:#2e3436;fill-opacity:1;stroke:none"
     id="path3771"
     sodipodi:cx="322.01129"
     sodipodi:cy="459.27737"
     sodipodi:rx="2.3896942"
     sodipodi:ry="2.5390501"
     d="m 324.40099,459.27737 a 2.3896942,2.5390501 0 1 1 -4.77939,0 2.3896942,2.5390501 0 1 1 4.77939,0 z"
     transform="translate(152.80276,-17.542722)" />
  <path
     sodipodi:type="arc"
     style="opacity:0.25;fill:#2e3436;fill-opacity:1;stroke:none"
     id="path3773"
     sodipodi:cx="307.97183"
     sodipodi:cy="496.91507"
     sodipodi:rx="1.4935589"
     sodipodi:ry="2.2403383"
     d="m 309.46539,496.91507 a 1.4935589,2.2403383 0 1 1 -2.98712,0 1.4935589,2.2403383 0 1 1 2.98712,0 z"
     transform="translate(152.80276,-17.542722)" />
  <path
     sodipodi:type="arc"
     style="opacity:0.25;fill:#2e3436;fill-opacity:1;stroke:none"
     id="path3775"
     sodipodi:cx="186.9189"
     sodipodi:cy="476.97604"
     sodipodi:rx="3.3605075"
     sodipodi:ry="3.0617957"
     d="m 190.27941,476.97604 a 3.3605075,3.0617957 0 1 1 -6.72102,0 3.3605075,3.0617957 0 1 1 6.72102,0 z"
     transform="translate(14.238681,1.2186514)" />
  <path
     sodipodi:type="arc"
     style="opacity:0.25;fill:#2e3436;fill-opacity:1;stroke:none"
     id="path3777"
     sodipodi:cx="205.06563"
     sodipodi:cy="34.509232"
     sodipodi:rx="7.9158621"
     sodipodi:ry="3.4351854"
     d="m 212.98149,34.509232 a 7.9158621,3.4351854 0 1 1 -15.83172,0 7.9158621,3.4351854 0 1 1 15.83172,0 z"
     transform="matrix(0.49301778,0,0,1,82.886039,-2.9871177)" />
  <path
     sodipodi:type="arc"
     style="opacity:0.25;fill:#2e3436;fill-opacity:1;stroke:none"
     id="path3779"
     sodipodi:cx="222.98834"
     sodipodi:cy="46.308346"
     sodipodi:rx="4.9287443"
     sodipodi:ry="5.0781002"
     d="m 227.91709,46.308346 a 4.9287443,5.0781002 0 1 1 -9.85749,0 4.9287443,5.0781002 0 1 1 9.85749,0 z"
     transform="translate(-25.091789,-2.9871177)" />
  <path
     sodipodi:type="arc"
     style="opacity:0.25;fill:#2e3436;fill-opacity:1;stroke:none"
     id="path3781"
     sodipodi:cx="286.76331"
     sodipodi:cy="102.46616"
     sodipodi:rx="4.4806767"
     sodipodi:ry="4.1819649"
     d="m 291.24398,102.46616 a 4.4806767,4.1819649 0 1 1 -8.96135,0 4.4806767,4.1819649 0 1 1 8.96135,0 z" />
  <path
     sodipodi:type="arc"
     style="opacity:0.2;fill:#2e3436;fill-opacity:1;stroke:none"
     id="path3783"
     sodipodi:cx="304.83536"
     sodipodi:cy="86.783791"
     sodipodi:rx="13.591386"
     sodipodi:ry="12.993962"
     d="m 318.42674,86.783791 a 13.591386,12.993962 0 1 1 -27.18277,0 13.591386,12.993962 0 1 1 27.18277,0 z" />
  <path
     sodipodi:type="arc"
     style="opacity:0.25;fill:#2e3436;fill-opacity:1;stroke:none"
     id="path3785"
     sodipodi:cx="474.05557"
     sodipodi:cy="365.33252"
     sodipodi:rx="7.4677944"
     sodipodi:ry="6.8703709"
     d="m 481.52337,365.33252 a 7.4677944,6.8703709 0 1 1 -14.93559,0 7.4677944,6.8703709 0 1 1 14.93559,0 z"
     transform="translate(-28.718787,-27.638878)" />
  <path
     sodipodi:type="arc"
     style="opacity:0.25;fill:#2e3436;fill-opacity:1;stroke:none"
     id="path3787"
     sodipodi:cx="485.10791"
     sodipodi:cy="344.12399"
     sodipodi:rx="4.1819649"
     sodipodi:ry="4.7793884"
     d="m 489.28988,344.12399 a 4.1819649,4.7793884 0 1 1 -8.36393,0 4.1819649,4.7793884 0 1 1 8.36393,0 z"
     transform="translate(-28.718787,-27.638878)" />
  <path
     sodipodi:type="arc"
     style="opacity:0.25;fill:#2e3436;fill-opacity:1;stroke:none"
     id="path3789"
     sodipodi:cx="341.42755"
     sodipodi:cy="264.96536"
     sodipodi:rx="3.2858295"
     sodipodi:ry="2.688406"
     d="m 344.71338,264.96536 a 3.2858295,2.688406 0 1 1 -6.57166,0 3.2858295,2.688406 0 1 1 6.57166,0 z" />
  <path
     sodipodi:type="arc"
     style="opacity:0.15;fill:#2e3436;fill-opacity:1;stroke:none"
     id="path3791"
     sodipodi:cx="339.93399"
     sodipodi:cy="474.95975"
     sodipodi:rx="22.403383"
     sodipodi:ry="21.507248"
     d="m 362.33737,474.95975 a 22.403383,21.507248 0 1 1 -44.80676,0 22.403383,21.507248 0 1 1 44.80676,0 z"
     transform="matrix(0.48616908,0,0,0.45984899,230.26062,261.97805)" />
  <path
     sodipodi:type="arc"
     style="opacity:0.2;fill:#2e3436;fill-opacity:1;stroke:none"
     id="path3793"
     sodipodi:cx="351.68317"
     sodipodi:cy="479.15512"
     sodipodi:rx="3.1683168"
     sodipodi:ry="2.4290428"
     d="m 354.85148,479.15512 a 3.1683168,2.4290428 0 1 1 -6.33663,0 3.1683168,2.4290428 0 1 1 6.33663,0 z"
     transform="matrix(0.93333333,0,0,1.3043478,45.20132,-148.89253)" />
</svg>
