<?xml version="1.0" encoding="UTF-8" standalone="no"?>
<!-- Created with Inkscape (http://www.inkscape.org/) -->

<svg
   xmlns:svg="http://www.w3.org/2000/svg"
   xmlns="http://www.w3.org/2000/svg"
   version="1.1"
   width="128"
   height="128"
   id="svg2894">
  <defs
     id="defs2898" />
  <path
     d="m 0,64 0,-64 64,0 64,0 0,64 0,64 -64,0 -64,0 0,-64 z"
     id="path2922"
     style="fill:#ffffff" />
  <path
     d="m 0,64 0,-64 64,0 64,0 0,64 0,64 -64,0 -64,0 0,-64 z M 39.389177,80.281802 C 36.45374,74.39527 35.429748,73.047991 35.184762,74.75 34.405667,80.162656 30.563014,74.494151 29.115408,65.79677 L 28.233806,60.5 28.116903,66.815741 c -0.125653,6.788488 0.509831,8.563771 5.21236,14.5612 2.935767,3.744167 8.624709,8.002421 9.50929,7.117839 C 43.0757,88.257634 41.52348,84.561794 39.389177,80.281802 z M 110.42075,82 l 0.66268,-2.5 -1.50628,2.5 c -0.82845,1.375 -1.50854,3.175 -1.51131,4 -0.004,1.333333 0.0893,1.333333 0.84361,0 0.46674,-0.825 1.14683,-2.625 1.5113,-4 z M 86,54.622445 C 86,53.224134 83.250738,50.38827 82.592394,51.107499 82.394793,51.323375 82.616167,52.5125 83.084336,53.75 84.01862,56.219574 86,56.812456 86,54.622445 z M 15.034614,32.932151 C 16.137932,30.769468 16.822725,29 16.556375,29 15.879713,29 11,36.281446 11,37.291152 c 0,1.704106 2.097603,-0.562146 4.034614,-4.359001 z"
     id="path2920"
     style="fill:#e8e8e8" />
  <path
     d="m 0,64 0,-64 64,0 64,0 0,64 0,64 -64,0 -64,0 0,-64 z m 109.57752,21.5 c 1.32162,-2.75 2.38542,-6.125 2.36399,-7.5 -0.0266,-1.709008 -1.5099,0.505771 -4.68802,7 -5.87639,12.00791 -5.9065,12.101763 -2.72711,8.5 1.45651,-1.65 3.72953,-5.25 5.05114,-8 z M 45,90.337547 C 45,89.423198 43.599639,86.492821 41.888086,83.825598 40.176534,81.158375 37.970047,76.393978 36.984781,73.23805 35.229037,67.614181 35.186491,67.569646 34.846695,71 34.656013,72.925 34.05,74.45 33.5,74.388888 c -2.217429,-0.246383 -3.903537,-6.06341 -3.861909,-13.323486 0.055,-9.591347 -1.456102,-6.088872 -2.503765,5.803318 l -0.737257,8.368721 3.925418,4.930117 C 34.105125,84.918352 42.377102,92 44.143802,92 44.614711,92 45,91.251896 45,90.337547 z M 22.084869,68.895184 c -0.526953,-1.317351 -0.98662,-1.869488 -1.021483,-1.226971 -0.08468,1.560614 1.080231,4.521504 1.581635,4.020099 0.21887,-0.218869 -0.0332,-1.475777 -0.560152,-2.793128 z M 88,57.45034 C 88,55.009094 85.241753,50.306747 83.393857,49.597643 80.929563,48.652004 80.841098,49.17737 82.596918,54.330418 83.745066,57.700048 84.71861,59 86.094002,59 87.148702,59 88,58.307857 88,57.45034 z M 20.174152,25.5 c 0.895708,-1.632593 0.587208,-1.540741 -1.679339,0.5 -3.75059,3.376937 -8.5008,10.91877 -8.4688,13.445781 C 10.048941,41.25639 16.066544,32.986876 20.174152,25.5 z"
     id="path2918"
     style="fill:#c9c9c9" />
  <path
     d="m 0,64 0,-64 64,0 64,0 0,64 0,64 -64,0 -64,0 0,-64 z m 74.25,48.33772 c -0.6875,-0.27741 -1.8125,-0.27741 -2.5,0 -0.6875,0.27741 -0.125,0.50439 1.25,0.50439 1.375,0 1.9375,-0.22698 1.25,-0.50439 z M 83,110 c 0.825,-0.53316 1.05,-0.96937 0.5,-0.96937 -0.55,0 -1.675,0.43621 -2.5,0.96937 -0.825,0.53316 -1.05,0.96937 -0.5,0.96937 0.55,0 1.675,-0.43621 2.5,-0.96937 z m 15.262261,-8.69252 c 8.552209,-6.277893 15.356089,-19.063225 14.565109,-27.369637 -0.31133,-3.269353 -0.46553,-3.084888 -3.14631,3.763786 -3.21998,8.226177 -8.65157,17.026046 -14.003998,22.688251 -5.68513,6.01417 -4.79036,6.33176 2.585199,0.9176 z M 46.57762,88.640429 C 43.109901,84.042664 39.44953,78.125481 38.443463,75.491132 36.528602,70.477139 35.99446,61.947809 37.222847,56 l 0.722847,-3.5 -1.566963,2.868672 c -0.86183,1.57777 -1.862111,5.85277 -2.222847,9.5 C 33.795148,68.515903 33.082376,71.5 32.571947,71.5 29.627893,71.5 29.550675,57.389257 32.44882,49 L 34.003386,44.5 32.004124,47 C 29.773548,49.78925 27.487496,56.566338 26.45525,63.449848 26.079964,65.952431 25.38984,68 24.92164,68 c -2.124796,0 -3.139559,-4.674607 -2.692226,-12.40201 0.460001,-7.946241 0.443466,-8.017661 -0.947505,-4.092681 -1.782956,5.031066 -2.014626,15.877738 -0.439453,20.574954 2.1614,6.445365 24.454245,24.717059 30.348826,24.87455 1.202842,0.03214 -0.129577,-2.369045 -4.613662,-8.314384 z M 56.5,85 c -0.339919,-0.55 -1.068034,-1 -1.618034,-1 -0.55,0 -0.721885,0.45 -0.381966,1 0.339919,0.55 1.068034,1 1.618034,1 0.55,0 0.721885,-0.45 0.381966,-1 z M 90,63.756707 c 0,-7.433488 -2.901133,-14.137101 -7.045661,-16.280319 -3.657096,-1.891158 -4.258571,-0.766349 -2.48585,4.648749 0.787701,2.406175 1.949112,6.388506 2.580913,8.849625 1.022849,3.984404 1.289288,4.282536 2.431397,2.72061 1.155576,-1.580345 1.343927,-1.594511 1.900934,-0.142975 C 87.72178,64.438545 88,66.503328 88,68.140804 c 0,1.730176 0.418864,2.718358 1,2.359196 0.55,-0.339919 1,-3.3744 1,-6.743293 z M 99.450454,59.25 C 98.702611,53.964628 95.316468,45.350198 94.361949,46.304718 93.536937,47.129729 98.237083,64 99.291946,64 c 0.45683,0 0.528159,-2.1375 0.158508,-4.75 z m -86.946345,-20 c 2.028206,-3.7125 5.485073,-9.146928 7.681928,-12.076508 2.196854,-2.929579 3.75781,-5.562979 3.46879,-5.851999 -1.437328,-1.437328 -9.223524,6.996691 -12.670792,13.72502 C 9.1469404,38.632129 7.3394635,46 8.2969396,46 8.5826764,46 10.475902,42.9625 12.504109,39.25 z"
     id="path2916"
     style="fill:#898989" />
  <path
     d="m 0,64 0,-64 64,0 64,0 0,64 0,64 -64,0 -64,0 0,-64 z m 80.964377,48.2625 C 99.2596,106.16718 112.88313,90.205402 113.83517,73.75 114.04996,70.0375 113.81767,67 113.31896,67 c -0.4987,0 -2.11849,3.7125 -3.59954,8.25 -4.6549,14.261259 -14.564429,26.63656 -25.412391,31.7357 -2.614177,1.22881 -8.140194,2.89154 -12.280039,3.69495 -10.091616,1.95846 -11.220337,2.46362 -7.52699,3.36873 3.728255,0.91366 10.595775,0.16833 16.464377,-1.78688 z M 62,99.491903 C 62,99.21245 60.240284,98.279707 58.089521,97.419142 53.615354,95.628936 43.358217,84.20763 39.751692,77 c -1.77501,-3.547353 -2.250573,-6.193595 -2.246404,-12.5 0.0046,-6.905673 0.427057,-8.859384 3.088604,-14.282464 l 3.083316,-6.282464 -2.766036,2.65003 C 37.426921,49.923227 34.327741,57.04865 33.435888,63.771767 32.537465,70.544414 31,69.489187 31,62.099914 31,54.433889 33.013396,48.112141 37.399203,42.007417 42.104444,35.458065 41.95539,34.664587 36.937026,39.547052 31.305999,45.02559 29.416855,48.396369 27.435792,56.5 c -2.079775,8.507413 -3.011733,9.737941 -4.478177,5.912839 -1.705867,-4.449616 1.021051,-17.683426 2.987998,-14.500839 1.13017,1.828653 2.645802,0.698826 3.903902,-2.910162 1.188363,-3.40894 0.63909,-3.753994 -2.071255,-1.301166 C 26.033168,45.279959 26.048994,45.051512 28,40.5 l 2.100961,-4.901344 -2.075076,1.877919 C 26.884593,38.50943 24.499376,42.30277 22.725404,45.906219 19.741973,51.966428 19.5,53.209732 19.5,62.478973 c 0,8.504103 0.343668,10.664367 2.270324,14.271027 1.248678,2.3375 2.670381,4.25 3.159339,4.25 0.488958,0 4.160435,2.733274 8.158837,6.073942 7.780444,6.500567 14.60999,10.415115 20.657423,11.840387 C 58.124554,99.946294 62,100.21748 62,99.491903 z M 65.429736,89.11369 c 0.301273,-0.48747 -0.360086,-1.123719 -1.469688,-1.413887 -1.109601,-0.290167 -1.89204,-1.069922 -1.738752,-1.732788 0.267835,-1.158208 -12.10589,-5.415755 -13.036166,-4.485479 -0.237714,0.237714 -0.174767,1.103087 0.139883,1.923051 0.963651,2.511233 7.106419,5.189006 14.86597,6.480414 0.380041,0.06325 0.937479,-0.28384 1.238753,-0.771311 z M 97.909765,75.511628 C 101.65258,65.508048 100.10528,51.217277 94.552052,44.5 l -2.480126,-3 -0.03596,3.074848 c -0.01978,1.691166 1.10505,6.416166 2.499622,10.5 1.394572,4.083833 2.407072,8.672378 2.25,10.196766 L 96.5,68.043227 93.901091,65.621244 c -1.907132,-1.7773 -2.763663,-3.81307 -3.217865,-7.648097 -0.725864,-6.128784 -2.582702,-9.325945 -6.98756,-12.031401 -6.454298,-3.964217 -7.569505,-1.180753 -3.791586,9.46348 1.152756,3.247874 2.086037,7.522874 2.073958,9.5 -0.02298,3.762184 -2.977693,11.358493 -4.873911,12.53042 C 76.496857,77.810959 76,78.619918 76,79.233331 c 0,1.841129 4.844002,-3.291425 7.690513,-8.148629 1.462324,-2.495267 2.850732,-3.960966 3.085352,-3.257108 0.905269,2.715808 -1.003431,8.31734 -4.310287,12.649557 C 80.566776,82.964718 79.275839,85 79.596829,85 c 1.787724,0 8.485905,-5.970965 9.81568,-8.75 0.855324,-1.7875 2.251537,-3.25 3.102697,-3.25 2.639752,0 2.91358,3.127468 0.648311,7.404549 C 91.970527,82.657047 91.009915,84.95 91.028824,85.5 c 0.07768,2.259452 4.938323,-4.796259 6.880941,-9.988372 z M 55.009138,72.51101 C 54.329475,71.692066 53.367034,71.27316 52.870381,71.580109 51.593906,72.369014 52.814559,74 54.681462,74 c 1.271193,0 1.332442,-0.278321 0.327676,-1.48899 z M 12.180024,40.878603 c 2.375987,-4.466769 7.342284,-11.891769 11.036217,-16.5 C 26.910174,19.770371 29.538083,16 29.056039,16 27.672495,16 18.705874,23.374103 15.547186,27.109611 11.896069,31.427473 7.9445609,39.99444 7.2641205,45.067502 6.9740182,47.230376 6.9894235,49 7.2983546,49 7.6072856,49 9.8040367,45.345371 12.180024,40.878603 z M 71,43 c -1.085244,-2.027798 -4,-2.792695 -4,-1.04969 0,0.961634 2.840981,2.96335 4.285184,3.019281 C 71.717035,44.986316 71.588702,44.1 71,43 z m 7,-15.848126 c 0,-1.576475 -7.975142,-4.576732 -9.120669,-3.431205 -0.739108,0.739108 0.24249,1.512831 3.283169,2.587884 C 77.392455,28.157639 78,28.245409 78,27.151874 z"
     id="path2914"
     style="fill:#6f6f6f" />
  <path
     d="m 0,64 0,-64 64,0 64,0 0,64 0,64 -64,0 -64,0 0,-64 z m 80.216795,49.01476 C 92.3239,109.27525 104.97495,98.903161 110.3381,88.319499 c 3.2474,-6.408449 5.17043,-15.795275 4.2457,-20.724491 -0.96004,-5.117486 -2.00797,-3.809685 -4.87277,6.081169 -4.24023,14.639617 -13.334626,26.481103 -24.699323,32.160113 -5.871737,2.93414 -11.031177,4.30076 -21.491108,5.69252 -4.580505,0.60946 -4.825549,0.77504 -3.05887,2.06686 2.767405,2.02358 12.222917,1.74553 19.755066,-0.58091 z M 62.466241,97.934368 C 57.097882,96.262979 55.619143,95.159421 49.057226,87.927449 39.45522,77.344957 38.001283,74.402312 37.995054,65.538558 37.988628,56.394709 40.337899,49.968498 46,43.641773 50.447465,38.672259 50.460751,38.636244 47.138025,40.556779 40.21311,44.559379 33,56.28397 33,63.537513 33,64.891881 32.48839,66 31.86309,66 30.087169,66 31.407991,54.126761 33.780582,48.763125 36.125876,43.4612 42.671162,35.984386 47.673861,32.892548 49.561097,31.726172 50.900136,30.566803 50.649505,30.316171 49.705039,29.371706 41.531966,34.357645 36.857964,38.729627 33.543346,41.830064 32,42.753669 32,41.636842 32,40.736579 31.55,40 31,40 c -1.984581,0 -0.928628,-2.723385 2.69937,-6.961885 4.928855,-5.758259 1.077746,-3.689719 -4.60161,2.471654 -5.306081,5.756418 -8.98561,13.622124 -10.117141,21.627347 -1.472113,10.41473 2.120236,23.252374 7.272647,25.989588 1.235704,0.656466 4.693761,3.181764 7.684571,5.611774 5.367164,4.360777 13.192817,8.833949 18.062163,10.324397 1.375,0.420871 5.65,0.761806 9.5,0.757634 l 7,-0.0076 -6.033759,-1.878556 z M 23.746262,62.412929 c -0.877659,-0.87766 -0.966697,-6.989692 -0.146356,-10.046754 0.409734,-1.526907 1.131401,-1.987695 2.537259,-1.620054 1.622074,0.424181 1.848075,1.057832 1.296055,3.633825 -1.046908,4.885389 -2.867634,8.852307 -3.686958,8.032983 z m 66.848473,25.92567 C 95.271096,83.662238 99.756006,74.063017 100.58143,66.963693 101.43487,59.623436 98.965239,50.064979 94.454484,43.25 92.543282,40.3625 90.596686,38 90.128716,38 c -0.46797,0 -0.371032,1.797659 0.215418,3.994797 1.466306,5.493528 0.07197,6.649888 -4.381133,3.633392 -5.184562,-3.511979 -7.801117,-4.084667 -9.916353,-2.170405 -1.692973,1.53212 -1.935617,1.465639 -3.752125,-1.028025 -1.655371,-2.272459 -2.411032,-2.56308 -5.118312,-1.968462 -4.16805,0.915458 -4.007301,1.860185 0.675854,3.971993 7.201854,3.247584 10.636922,7.630399 13.089999,16.701573 1.130113,4.179018 1.042267,5.112132 -0.893185,9.487544 C 74.799448,82.489615 65.793039,85.953766 52.914782,81.059041 49.936652,79.927123 47.3875,79.000782 47.25,79.000504 47.1125,79.000227 47,80.055256 47,81.345012 47,88.207746 62.940037,92.402182 74.081582,88.471216 80.638009,86.157974 87.640908,81.27379 89.906297,77.434242 91.020736,75.545409 92.397726,74 92.966275,74 94.683531,74 94.085246,78.334166 92,81 c -1.075541,1.375 -1.965534,3.027974 -1.977764,3.673275 -0.01223,0.645301 -1.187238,2.557801 -2.61113,4.25 -3.609029,4.289088 -1.258449,3.857402 3.183629,-0.584676 z M 66,86.660876 c 0,-0.329576 2.505688,-1.826145 5.568195,-3.325708 5.210064,-2.551119 8.404427,-5.401456 12.729773,-11.358806 L 86.095936,69.5 85.53967,72.916488 c -0.622649,3.824206 -4.413816,9.299718 -8.120682,11.72855 C 74.999041,86.230648 66,87.819283 66,86.660876 z M 93.75,63.212575 C 92.614176,62.979424 92,61.9237 92,60.204454 l 0,-2.648898 2.118056,2.118055 c 2.403306,2.403307 2.229738,4.072214 -0.368056,3.538964 z M 55.984687,73.75 C 55.9584,71.604138 54.588197,70.376115 52.25,70.402847 c -2.649331,0.03029 -2.837036,0.86726 -0.678571,3.025724 1.88155,1.881551 4.434648,2.0675 4.413258,0.321429 z M 70,63.2 C 70,61.707362 67.60895,59.999903 65.55,60.022236 63.633005,60.043029 63.662201,60.171347 66,62 c 2.67462,2.092118 4,2.489732 4,1.2 z M 11.872132,42.430766 c 4.55115,-8.910687 9.561651,-15.963564 16.453171,-23.159801 2.227479,-2.325969 3.843188,-4.435807 3.590466,-4.68853 -0.252723,-0.252722 -2.021151,0.296837 -3.92984,1.221243 -5.672148,2.747103 -14.477226,12.344497 -17.894467,19.50468 -3.107451,6.511079 -5.1434024,15.695624 -3.477386,15.687119 0.4872582,-0.0025 2.8533834,-3.856607 5.258056,-8.564711 z M 81.501055,28.641955 C 79.115443,25.001051 68.912999,21.199668 66.13493,22.916609 c -1.796175,1.110097 -0.626606,1.838849 8.361757,5.210158 8.877471,3.329717 8.847053,3.32748 7.004368,0.515188 z"
     id="path2912"
     style="fill:#4f4f4f" />
  <path
     d="m 0,64 0,-64 64,0 64,0 0,64 0,64 -64,0 -64,0 0,-64 z m 86.323202,47.25109 C 103.75806,102.87566 114.91058,87.562997 115.18214,71.627105 115.29392,65.067653 114.44017,61 112.95166,61 c -0.50245,0 -1.18709,1.2375 -1.5214,2.75 -2.31449,10.471154 -3.79397,15.393997 -5.98087,19.900771 C 99.960779,94.96175 90.40656,103.73439 79.5,107.47739 c -2.75,0.94376 -9.671572,2.24331 -15.381271,2.88788 -8.749748,0.98777 -10.134948,1.37638 -8.813933,2.47272 2.834784,2.35267 7.083426,3.12505 15.018406,2.73029 6.584305,-0.32756 9.118095,-1.01124 16,-4.31719 z M 79.017301,97.366608 C 87.162954,93.54717 93.80361,87.138564 97.574975,79.457409 100.21757,74.075218 100.5,72.53217 100.5,63.476391 c 0,-9.25062 -0.24606,-10.523047 -3.190695,-16.5 -3.694156,-7.498302 -16.019493,-21.415657 -20.674953,-23.345457 -7.561745,-3.134526 -17.04637,-3.008888 -16.42501,0.217574 0.210087,1.090896 2.876212,2.272616 8.300082,3.678886 4.394817,1.139463 9.386276,2.813956 11.092132,3.721095 C 83.969249,33.57114 89,39.612416 89,42.534796 89,43.890658 88.8875,44.9943 88.75,44.987333 88.6125,44.980365 85.875897,43.64389 82.66866,42.017386 74.696309,37.974324 71.137254,37.461532 65.059499,39.480238 62.276774,40.40451 60,41.514273 60,41.946376 c 0,0.432104 2.662651,1.756494 5.917003,2.94309 7.352306,2.680785 11.327892,7.001241 13.584166,14.762552 1.367834,4.705181 1.470075,6.500594 0.545851,9.585381 C 78.474529,74.485905 73.733542,79.554442 68.542262,81.53701 63.503463,83.461345 56.962731,82.55212 49.890763,78.944271 46.882835,77.409741 45.509196,77.162442 44.525981,77.978437 42.03006,80.049869 39.021633,74.565195 38.841556,67.615141 38.619964,59.062786 38.753982,58.164899 41.139857,52.217068 43.577598,46.139939 49.076231,40.90011 55.650539,38.389359 60.757402,36.43903 61.499551,34.517421 56.75,35.542582 46.019043,37.858793 37.339889,46.302601 33.372637,58.286039 L 31.977557,62.5 32.331629,57.357789 c 0.644946,-9.366597 7.337117,-18.799823 17.41834,-24.552741 6.539712,-3.73193 7.746782,-5.354398 3.325687,-4.470179 -4.773762,0.954752 -9.346117,3.348817 -13.993891,7.327139 C 35.327748,38.875306 32,39.583084 32,37.168227 32,35.835955 41.10539,27.780193 45.058483,25.615065 50.473511,22.649228 46.60496,22.46932 40.599164,25.407682 33.592888,28.835533 25.672937,37.357339 21.701451,45.741473 18.761655,51.947626 18.500438,53.3173 18.505358,62.5 c 0.0047,8.694872 0.347845,10.731874 2.629519,15.607677 2.202747,4.707141 3.523359,6.122146 8.22351,8.811301 C 32.43803,88.680971 35.201756,90.517431 35.5,91 c 0.895788,1.449416 11.436447,7.18294 15.865973,8.630194 2.533955,0.827916 7.430643,1.239506 12.651328,1.063406 7.025346,-0.23698 9.65286,-0.819757 15,-3.326992 z M 62.64255,97.009723 C 59.728341,96.097731 56,93.26926 56,91.970414 c 0,-0.395786 3.7125,-0.922345 8.25,-1.170132 6.497068,-0.354795 9.512025,-1.071989 14.189597,-3.375401 C 84.477118,84.451778 90.276656,79.717682 91.21067,77 c 0.283536,-0.825 0.895318,-1.14431 1.359515,-0.709577 0.464197,0.434733 0.05126,2.009733 -0.917647,3.5 -0.968902,1.490267 -2.39563,4.118222 -3.170505,5.8399 -1.6151,3.588552 -6.602597,8.096473 -10.982033,9.926048 -4.284707,1.79 -11.520097,2.497764 -14.85745,1.453352 z M 73,84.230579 c 1.375,-0.915484 4.4125,-3.53267 6.75,-5.815969 2.3375,-2.283299 4.25,-3.865123 4.25,-3.515166 0,2.039508 -5.708741,8.49874 -8.566648,9.69285 C 70.978127,86.453806 69.901273,86.293733 73,84.230579 z M 24.030409,56.75 C 24.008099,53.998743 24.417445,53 25.567388,53 c 1.162728,0 1.389673,0.580893 0.879037,2.25 -1.456164,4.759738 -2.384907,5.336354 -2.416016,1.5 z M 57,74.609204 c 0,-0.764938 -0.890117,-3.352438 -1.978038,-5.75 C 51.556921,61.22294 52.374327,58.925521 61,52.057201 l 2.5,-1.990662 -2.29966,-0.03327 c -4.444792,-0.0643 -10.31467,4.296355 -13.13094,9.754809 -1.716655,3.327197 -0.310585,11.061646 2.526739,13.89897 C 53.146342,76.237251 57,76.792178 57,74.609204 z M 50.75,68.423045 C 50.3375,68.007037 50,66.751667 50,65.633333 c 0,-1.47178 0.302073,-1.73126 1.09378,-0.939553 0.601579,0.601579 0.939079,1.85695 0.75,2.789712 -0.189079,0.932762 -0.68128,1.355561 -1.09378,0.939553 z M 69.065741,66.964816 C 72.970789,64.874898 70.28799,59 65.428571,59 c -2.751688,0 -3.223984,2.094976 -0.905993,4.018738 0.878972,0.729482 1.273195,2.049365 0.932612,3.122445 -0.662357,2.086904 0.678554,2.39279 3.610551,0.823633 z M 9.9651402,47.75 C 14.127502,37.868423 20.362833,28.540393 27.731241,21.171985 31.784502,17.118724 34.962186,13.386557 34.79276,12.878281 34.202074,11.106221 24.037351,17.180041 18.757288,22.460103 12.43466,28.782731 8.613698,35.442969 6.4389059,43.932012 3.8770303,53.931991 6.2698347,56.522771 9.9651402,47.75 z"
     id="path2910"
     style="fill:#252525" />
  <path
     d="m 0,64 0,-64 64,0 64,0 0,64 0,64 -64,0 -64,0 0,-64 z m 84,49.60437 c 7.727604,-3.13206 17.10419,-9.9311 21.84711,-15.841534 7.79275,-9.711016 12.0122,-23.958737 10.09275,-34.079963 -0.92059,-4.854241 -3.21993,-8.73614 -4.4475,-7.508568 -0.30539,0.305391 -1.17342,4.553605 -1.92895,9.440476 -2.29569,14.848813 -6.36256,23.182136 -15.471733,31.702696 -9.290999,8.690643 -19.021549,11.955403 -34.575545,11.600653 -8.167914,-0.18629 -9.957762,0.0309 -9.699805,1.17672 1.587344,7.05114 20.623566,9.00552 34.183673,3.50952 z M 74.068499,100.41174 C 84.938934,97.233056 94.033431,89.423935 98.864835,79.120011 101.1622,74.220434 101.49968,72.218092 101.49749,63.5 101.49519,54.370727 101.224,52.934027 98.382925,47 93.584642,36.978039 83.827836,25.295475 78.176389,22.805182 71.49336,19.860325 55.453667,19.144783 47.560513,21.439385 24.148313,28.245496 11.287831,54.985097 20.099525,78.536459 22.421887,84.743526 27.958466,91 31.128963,91 c 1.134263,0 3.256763,0.841237 4.716667,1.869415 11.931272,8.402935 25.87226,11.153845 38.222869,7.542325 z m -9.716172,-4.407047 c -1.18122,-0.475496 -2.437124,-1.33288 -2.790898,-1.905299 -0.654859,-1.059583 0.925228,-1.564239 7.791247,-2.488406 2.118971,-0.285214 6.798669,-1.897167 10.399327,-3.582119 3.600658,-1.684951 6.784148,-2.826051 7.074422,-2.535777 0.290274,0.290273 -0.789424,1.931576 -2.399327,3.64734 -4.852002,5.171045 -15.35742,8.763213 -20.074771,6.864261 z M 57.5,80.601208 C 55.3,79.870502 51.475,78.091726 49,76.648371 46.525,75.205017 43.7125,74.01867 42.75,74.012045 41.7875,74.00542 40.975154,73.6625 40.944787,73.25 40.004693,60.480103 40.23431,57.277942 42.439317,52.407803 c 1.26805,-2.800708 3.375452,-6.102395 4.683115,-7.337082 4.752291,-4.487083 15.082632,-8.432587 11.835915,-4.520533 -1.712113,2.062971 0.08113,3.708993 5.808233,5.331381 7.728649,2.189394 12.509471,8.137799 14.646854,18.223942 0.774833,3.656377 -4.080879,12.892754 -7.913434,15.052677 -4.332242,2.441532 -9.416036,2.965534 -14,1.44302 z m 1.016929,-4.6286 c 0.34923,-0.565065 -0.353388,-3.069052 -1.561372,-5.564415 -3.849853,-7.952735 -0.670704,-15.710828 6.954374,-16.970796 6.478059,-1.070435 6.846772,-1.376587 4.229285,-3.511689 -4.552239,-3.713293 -14.179733,-1.231566 -19.430586,5.008719 -4.273864,5.079198 -3.76106,14.771572 1.074857,20.315573 1.663975,1.907618 7.692775,2.406443 8.733442,0.722608 z m 11.65433,-7.627596 C 74.184258,64.713298 71.138923,58 65.47848,58 c -4.121142,0 -6.378151,2.957472 -4.040783,5.29484 1.037415,1.037415 1.131509,1.735954 0.340399,2.527064 C 60.176757,67.423243 62.653303,70 65.793704,70 c 1.401848,0 3.371748,-0.744744 4.377555,-1.654988 z M 34.605163,51 c 0.805225,-3.009818 5.28672,-9.668647 8.538604,-12.687083 C 44.439695,37.110021 48.65,34.635021 52.5,32.812917 58.349411,30.044544 60.650589,29.5 66.5,29.5 c 5.844889,0 7.776218,0.456291 11.703898,2.765136 C 82.444307,34.757815 86,38.338271 86,40.115531 86,40.484317 82.5125,39.42731 78.25,37.766627 68.419008,33.936444 60.042173,33.160966 53.166864,35.444577 47.328418,37.383797 38.925941,44.419355 35.924262,49.882142 34.54018,52.401049 34.139494,52.740607 34.605163,51 z m 3.609573,-18.144208 c 0.572024,-1.716073 4.564894,-4.506266 9.137279,-6.385075 5.978741,-2.456685 3.950319,0.137406 -3.211128,4.106621 -3.485635,1.931905 -6.152403,2.95721 -5.926151,2.278454 z m -27.734909,16.197 C 15.423063,36.116493 22.387108,26.377661 32.75,17.909184 42.080564,10.284318 40.653048,7.3786526 30.148255,12.613411 15.275167,20.024984 2.0347612,41.71084 4.4669683,54.675618 c 0.8951613,4.77162 2.6779827,3.104444 6.0128587,-5.622826 z"
     id="path2908"
     style="fill:#000000;fill-opacity:1" />
</svg>
