<?xml version="1.0" encoding="UTF-8" standalone="no"?>
<!-- Created with Inkscape (http://www.inkscape.org/) -->

<svg
   xmlns:dc="http://purl.org/dc/elements/1.1/"
   xmlns:cc="http://creativecommons.org/ns#"
   xmlns:rdf="http://www.w3.org/1999/02/22-rdf-syntax-ns#"
   xmlns:svg="http://www.w3.org/2000/svg"
   xmlns="http://www.w3.org/2000/svg"
   xmlns:sodipodi="http://sodipodi.sourceforge.net/DTD/sodipodi-0.dtd"
   xmlns:inkscape="http://www.inkscape.org/namespaces/inkscape"
   width="512"
   height="1024"
   id="svg4283"
   version="1.1"
   inkscape:version="0.48.2 r9819"
   sodipodi:docname="char_raph.svg"
   inkscape:export-xdpi="90"
   inkscape:export-ydpi="90">
  <defs
     id="defs4285" />
  <sodipodi:namedview
     id="base"
     pagecolor="#ffffff"
     bordercolor="#666666"
     borderopacity="1.0"
     inkscape:pageopacity="0.0"
     inkscape:pageshadow="2"
     inkscape:zoom="0.70710678"
     inkscape:cx="622.5337"
     inkscape:cy="509.45065"
     inkscape:document-units="px"
     inkscape:current-layer="layer1"
     showgrid="false"
     inkscape:window-width="1920"
     inkscape:window-height="1026"
     inkscape:window-x="0"
     inkscape:window-y="26"
     inkscape:window-maximized="1"
     showguides="true"
     inkscape:guide-bbox="true" />
  <metadata
     id="metadata4288">
    <rdf:RDF>
      <cc:Work
         rdf:about="">
        <dc:format>image/svg+xml</dc:format>
        <dc:type
           rdf:resource="http://purl.org/dc/dcmitype/StillImage" />
        <dc:title></dc:title>
      </cc:Work>
    </rdf:RDF>
  </metadata>
  <g
     inkscape:label="Layer 1"
     inkscape:groupmode="layer"
     id="layer1"
     transform="translate(0,-28.362183)">
    <path
       style="fill:#a40000;fill-opacity:1;stroke:none"
       d="m 64,60.362183 384,0 0,960.000017 -384,0 z"
       id="rect4291"
       inkscape:connector-curvature="0"
       sodipodi:nodetypes="ccccc" />
    <path
       style="fill:#2e3436;stroke:#555753;stroke-width:5;stroke-miterlimit:4;stroke-dasharray:none"
       d="m 76,559.36218 c 33.63302,-26.77549 72.02611,-34.38773 112.69807,-44.36701 47.35126,-8.53002 95.70242,-3.92284 142.87375,3.58038 38.93767,11.74824 78.13219,16.35729 100.92818,41.28663 -57.09303,17.72021 -117.00008,15.74223 -175.50016,23.61307 z"
       id="path4690"
       inkscape:connector-curvature="0"
       sodipodi:nodetypes="cccccc" />
    <path
       sodipodi:type="arc"
       style="fill:#2e3436;fill-opacity:1;stroke:#555753"
       id="path4565"
       sodipodi:cx="385.81512"
       sodipodi:cy="362.05966"
       sodipodi:rx="36.32761"
       sodipodi:ry="12.28598"
       d="m 422.14273,362.05966 a 36.32761,12.28598 0 1 1 -72.65522,0 36.32761,12.28598 0 1 1 72.65522,0 z"
       transform="matrix(1.9419672,-0.2801969,0.36341425,0.96659242,-559.32572,151.56712)" />
    <path
       style="fill:#2e3436;fill-opacity:1;stroke:none"
       d="m 64,578.76218 384,0 0,441.60002 -384,0 z"
       id="rect4451"
       inkscape:connector-curvature="0"
       sodipodi:nodetypes="ccccc" />
    <text
       xml:space="preserve"
       style="font-size:144px;font-style:normal;font-variant:normal;font-weight:500;font-stretch:normal;line-height:125%;letter-spacing:0px;word-spacing:0px;fill:#ef2929;fill-opacity:1;stroke:none;font-family:'M+ 1mn';-inkscape-font-specification:'M+ 1mn Medium'"
       x="111.784"
       y="220.68219"
       id="text4293"
       sodipodi:linespacing="125%"><tspan
         sodipodi:role="line"
         id="tspan4295"
         x="111.784"
         y="220.68219">Raph</tspan></text>
    <path
       sodipodi:type="arc"
       style="fill:#2e3436;fill-opacity:1;stroke:#555753"
       id="path4567"
       sodipodi:cx="397.30563"
       sodipodi:cy="398.74081"
       sodipodi:rx="48.17165"
       sodipodi:ry="14.672465"
       d="m 445.47728,398.74081 a 48.17165,14.672465 0 1 1 -96.3433,0 48.17165,14.672465 0 1 1 96.3433,0 z"
       transform="matrix(1.744058,0.12628074,-0.07221721,0.99738893,-327.28014,-32.966316)" />
    <path
       style="fill:#2e3436;fill-opacity:1;stroke:#555753;stroke-width:3;stroke-miterlimit:4;stroke-opacity:1;stroke-dasharray:none"
       d="m 261.3125,336.13118 c -38.50183,0 -70.64045,20.49856 -78.3125,52.19975 l -2.6875,-0.0312 -5.10907,41.18046 c -17.16892,20.50705 -30.72606,43.24089 -30.91238,58.49968 -0.38452,31.49067 17.67419,30.32065 46.1777,44.39633 -1.30475,5.42749 -0.9736,11.10816 -2.03125,15.66103 -6.58908,-1.78021 -14.86636,12.90556 -21.375,13.54375 -9.50244,0.22971 -19.02543,0.48154 -28.53125,0.84375 -9.57921,0.1035 -19.14203,0.56836 -28.71875,0.6875 -13.120926,-2.9079 -31.45482,-10.71779 -44.3125,-1.15625 -0.2381,22.02381 0.2381,54.38244 0,76.40625 16.697562,-2.61923 9.494413,-1.72453 26.21875,-4.34375 14.63936,-40.85601 127.41666,-45.79343 163.76977,-24.81233 5.23484,3.02128 7.87567,3.95457 11.89291,-0.42047 25.10352,-27.3394 158.68147,-6.74737 162.55607,29.1703 6.01908,0.9434 10.54833,1.90035 16.5625,2.84375 -0.2381,-22.02381 0.2381,-54.41369 0,-76.4375 -12.85768,-9.56154 -31.12908,-1.75165 -44.25,1.15625 -9.57672,-0.11914 -19.13954,-0.584 -28.71875,-0.6875 -9.50582,-0.36221 -19.02881,-0.61404 -28.53125,-0.84375 -6.32439,-0.62012 -14.3194,-14.95924 -20.8125,-13.7 -1.70758,-1.29788 -0.3533,-7.91275 -2.03125,-14.28603 32.68858,-11.16122 54.49547,-20.69637 48.8217,-48.72844 -3.63281,-17.94842 0.008,-29.71654 -23.0717,-55.78553 l -5.46875,-40.90625 -2.3125,-0.0312 c -17.66825,-40.52354 -45.16712,-55.76388 -78.8125,-54.4186 z"
       id="path4350"
       inkscape:connector-curvature="0"
       sodipodi:nodetypes="ccccsccccccccssccccccccscccc" />
    <path
       style="fill:#eeeeec;stroke:none"
       d="m 182.72671,465.53192 c -1.81999,-0.0399 -3.60431,0.18495 -5.25,0.78125 -11.54208,8.34248 -12.55926,15.63947 -11.53125,31.0625 11.10562,18.50199 46.85038,17.88298 61.5625,10.375 28.6868,-12.65666 36.27709,-8.03697 59.84375,0 14.71212,7.50798 50.42563,8.12699 61.53125,-10.375 1.02801,-15.42303 0.0421,-22.72002 -11.5,-31.0625 -1.64569,-0.59629 -3.43001,-0.8211 -5.25,-0.78125 -7.88664,0.17267 -16.71251,5.56889 -20.5625,9.75 -6.56886,6.64811 -28.36723,20.88543 -54.38208,20.88545 -26.01484,3e-5 -47.33031,-14.23734 -53.89917,-20.88545 -3.84999,-4.18111 -12.67586,-9.57733 -20.5625,-9.75 z"
       id="path4623"
       inkscape:connector-curvature="0"
       sodipodi:nodetypes="cccccccscccc" />
    <path
       style="fill:#babdb6;stroke:#555753;stroke-width:5;stroke-linecap:butt;stroke-linejoin:miter;stroke-miterlimit:4;stroke-opacity:1;stroke-dasharray:none"
       d="m 453.72707,428.91413 -230.70123,242.62297 -3.05166,-2.89361 c -42.87831,-44.76564 -13.72589,-50.60022 27.55378,-85.93534 2.27293,-8.83588 3.61031,-7.5201 -5.12555,-8.24362 -79.46714,46.00263 -91.44394,41.04298 -39.78477,114.07974 l 3.59004,4.09251 -56.09123,64.81192 c -5.96002,14.63503 9.02756,27.23695 22.6058,19.71575 l 56.69623,-64.52375 3.55665,2.37998 c 77.94541,50.95419 73.43636,20.98198 107.61228,-54.92372 -2.55627,-9.79787 -0.68447,-9.24724 -8.86388,-3.95731 -31.95541,52.48351 -28.60939,68.16678 -81.39185,38.98027 l -3.42344,-2.77781 209.17395,-261.37396 c 0.8438,-1.72469 -0.31489,-3.0816 -2.35512,-2.05402 z"
       id="path3798"
       inkscape:connector-curvature="0"
       sodipodi:nodetypes="ccccccccccccccccc" />
    <path
       style="fill:#2e3436;fill-opacity:1;stroke:none"
       d="m 213.78125,626.01843 c -10.01462,0.21674 -22.30108,5.54345 -32.90625,15.15625 -3.20012,2.90067 -6.03575,5.99501 -8.4375,9.15625 -6.30135,-3.69859 -15.83772,-3.07718 -24.25,2.25 -5.93044,3.75552 -10.07864,9.09031 -11.90625,14.53125 l -0.0312,0.125 c -0.31642,0.9606 -0.58285,1.91648 -0.75,2.875 l -10.6875,40.84375 -9.03125,11.25 -21.7813,7.65625 0,118.15625 74.125,-43.34375 46.09375,-29 c 13.30198,-4.33166 24.55659,-13.22756 31,-25.84375 9.36321,-2.10927 20.26285,-8.87447 29.5,-19.15625 15.69499,-17.46994 20.65637,-38.47219 11.0625,-46.90625 -9.49497,-8.34711 -29.6829,-1.2385 -45.3125,15.84375 -17.12309,0.20302 -22.97956,-10.84398 -22.9375,-25.21875 14.7474,-14.99128 19.71438,-33.71027 10.9375,-43.0625 -3.49848,-3.72782 -8.67873,-5.44255 -14.6875,-5.3125 z"
       id="path4397"
       inkscape:connector-curvature="0" />
    <path
       style="fill:#babdb6;stroke:#555753;stroke-width:5;stroke-linecap:butt;stroke-linejoin:miter;stroke-miterlimit:4;stroke-opacity:1;stroke-dasharray:none"
       d="m 10.172397,1036.4341 277.644213,-187.09013 -2.3452,-3.49081 c -37.00257,-49.73248 -47.60901,-21.95824 -89.32325,12.8628 -9.09098,0.77021 -8.01619,2.30797 -7.27528,-6.42642 58.59031,-70.69967 55.69378,-83.33501 119.11109,-20.23763 l 3.43773,4.22127 73.24553,-44.5186 c 15.42302,-3.44041 25.35394,13.43598 15.67719,25.5726 l -73.06208,45.16314 1.75466,3.90324 c 37.2668,85.34052 8.46351,75.90462 -72.07251,96.96684 -9.23556,-4.15174 -9.00423,-2.2144 -2.42643,-9.39898 57.07102,-22.77203 71.97837,-16.86176 51.98638,-73.7666 l -2.1691,-3.83813 -292.549659,162.74161 c -1.8411052,0.5449 -2.9861362,-0.8236 -1.633284,-2.6642 z"
       id="path3798-3"
       inkscape:connector-curvature="0"
       sodipodi:nodetypes="ccccccccccccccccc" />
    <path
       style="fill:#2e3436;fill-opacity:1;stroke:none"
       d="M 448,676.875 372.8468,734.04534 349.5,736.15625 307.3125,736.5 c -6.52147,-0.50981 -14.10671,2.26526 -20.15625,8 -7.23183,6.85552 -10.1758,15.95098 -8.125,22.96875 -3.65373,1.55387 -7.34074,3.51436 -10.9375,5.90625 -19.0698,12.68165 -28.57019,32.26906 -21.21875,43.75 5.8106,9.07456 20.43769,10.36838 35.71875,4.25 0.91666,0.3309 1.91699,0.59512 3,0.8125 13.99082,2.80816 24.07618,10.04222 22.21875,24.59375 -18.96006,11.03317 -29.66891,27.9318 -24.125,38.75 5.82576,11.36821 27.37275,11.7164 48.15625,0.78125 9.47302,-4.98419 17.12932,-11.45288 22.125,-18.09375 16.14179,-3.51333 29.02532,-14.60438 36.28125,-29.40625 l 0.0625,0.0937 57.6875,-42.5 z"
       transform="translate(0,28.362183)"
       id="path4397-5"
       inkscape:connector-curvature="0"
       sodipodi:nodetypes="ccccscsscscssccccc" />
    <path
       style="fill:#555753;stroke:none"
       d="m 195.51503,369.38542 c 9.08674,-13.91246 26.60244,-18.43588 41.46437,-23.56753 19.29597,-5.41688 40.42254,-6.68533 59.74663,-0.95014 13.4897,5.29156 23.62258,16.89159 28.61722,30.33776 13.4254,14.03691 -20.68211,19.4345 -29.96152,19.81671 3.65354,0.71067 36.39569,1.97244 44.4557,-4.86171 -6.18006,-15.65753 -16.00135,-28.93149 -26.27953,-37.85871 -28.38489,-23.93012 -73.81199,-19.80817 -101.76074,-2.8051 -15.02163,8.49889 -25.47262,23.84281 -28.80106,38.76247 12.90249,5.81708 30.67343,3.44112 43.97584,4.9244 -8.56818,-8.00353 -26.35652,-1.3513 -34.35754,-11.01812 -2.17345,-3.67925 -1.25205,-10.6836 2.90063,-12.78003 z"
       id="path4663"
       inkscape:connector-curvature="0"
       sodipodi:nodetypes="cccccccccccc" />
    <path
       style="fill:#555753;stroke:none"
       d="m 204.30384,391.26747 19.46983,1.32648 3.46878,0.62442 -2.1944,0.75792 -26.15146,0.11448 c -6.13458,-0.25105 -9.81916,-2.12089 -14.80515,-2.18422 -4.17373,0.0895 -3.19565,12.61856 -4.71594,16.45985 -0.59064,6.88172 -1.86087,13.28804 -2.15679,19.37073 0.42535,1.95203 -0.16304,2.68224 -3.40711,0.5413 -0.95252,-5.21833 1.99707,-12.92394 2.20721,-18.09939 0.92812,-5.34942 1.0436,-18.92658 2.81132,-23.54567 0.55812,-1.45837 3.48229,0.58163 7.40542,1.74378 3.92313,1.16216 10.88156,1.53894 18.06829,2.89032 z"
       id="path4573-0"
       inkscape:connector-curvature="0"
       sodipodi:nodetypes="ccccccccccscc" />
    <path
       style="fill:#555753;stroke:none"
       d="m 318.62876,393.05851 -19.46983,1.32648 -3.84378,0.62442 2.5694,0.75792 26.15146,0.11448 c 6.13458,-0.25105 9.81916,-2.12089 14.80515,-2.18422 4.17373,0.0895 3.19565,12.61856 4.71594,16.45985 0.59064,6.88172 2.04837,14.03804 2.34429,20.12073 -0.42535,1.95203 0.16304,2.68224 3.40711,0.5413 0.95252,-5.21833 -2.18457,-13.67394 -2.39471,-18.84939 -0.92812,-5.34942 -1.4186,-18.55158 -3.18632,-23.17067 -0.55812,-1.45837 -3.10729,0.20663 -7.03042,1.36878 -3.92313,1.16216 -10.88156,1.53894 -18.06829,2.89032 z"
       id="path4573-0-5"
       inkscape:connector-curvature="0"
       sodipodi:nodetypes="ccccccccccscc" />
    <path
       style="fill:#000000;fill-opacity:1;stroke:none"
       d="m 297.30039,394.24776 c 3.90669,-0.20805 12.0787,-2.55151 3.26819,-2.00414 -3.6574,0.79204 -7.55064,-0.81668 -1.65766,-2.20577 2.28328,-4.88409 -14.24181,-1.28671 -13.68005,-5.41713 3.32125,-7e-4 9.54503,-3.87129 2.63803,-4.0057 -3.99256,-0.072 -8.96456,-1.86744 -2.24367,-2.74561 3.39091,-3.83654 -9.77561,-2.94129 -12.68132,-3.10986 -10.50831,-1.02034 -21.06354,-2.84189 -31.60601,-0.99711 -3.60823,0.41497 -17.69917,1.75804 -7.5984,3.67364 4.31452,1.83483 -16.18837,2.05483 -5.48797,4.76957 3.95496,4.47428 -12.01518,0.85511 -10.60392,4.48294 2.63817,-0.18673 14.48973,2.4762 6.11208,3.06722 -8.39637,-0.23907 10.78097,3.76159 1.50447,4.45538 z"
       id="path3221"
       inkscape:connector-curvature="0"
       sodipodi:nodetypes="cccccccccccccc" />
    <path
       sodipodi:type="arc"
       style="fill:#555753;fill-opacity:1;stroke:none"
       id="path3995"
       sodipodi:cx="290.98706"
       sodipodi:cy="326.30026"
       sodipodi:rx="17.361998"
       sodipodi:ry="10.038391"
       d="m 308.34906,326.30026 a 17.361998,10.038391 0 1 1 -34.724,0 17.361998,10.038391 0 1 1 34.724,0 z"
       transform="matrix(0.90545455,0,0,1.1509434,27.637651,-22.911021)" />
    <path
       style="fill:#000000;fill-opacity:1;stroke:none"
       d="m 209.84493,438.94701 c 12.31886,-0.20401 35.18305,-3.25838 47.52895,-3.21902 17.59321,-0.74829 24.52687,0.72826 41.923,2.81601 5.71071,0.61799 11.49137,1.06146 17.22225,1.42745 4.31322,0.43396 1.15015,2.99025 -1.27594,3.26419 -5.87116,0.50229 -22.62287,-0.2866 -17.6069,1.7728 2.76689,0.56387 6.48947,1.60524 5.79461,3.16581 -0.89096,1.53889 -8.94497,1.14563 -13.76029,2.4677 -5.64785,0.94766 6.35905,2.27822 0.58879,3.94975 -9.83295,1.605 -20.05911,1.25349 -30.09331,1.27748 -10.83281,-0.14803 -21.68252,-1.02096 -32.43933,-0.16076 -7.38118,-0.51159 -2.78305,-3.19 -0.86189,-3.8438 3.0568,-2.04563 -10.71955,0.29451 -13.36401,-2.53681 -0.63795,-2.00752 7.11821,-4.83157 0.91302,-4.71694 -4.97929,-0.12486 -9.61647,-0.30201 -12.76224,-1.64462 -2.88625,-2.2964 4.91751,-3.52821 8.19329,-4.01924 z"
       id="path4007"
       inkscape:connector-curvature="0"
       sodipodi:nodetypes="cccccccccccccccc" />
    <path
       style="fill:#eeeeec;stroke:none"
       d="m 320.30775,406.8236 c -4.86177,11.44741 -12.77932,20.13059 -25.0314,16.9673 -6.10715,-1.52545 -14.27052,-7.00524 -14.35141,-13.00372 6.88716,-2.98681 31.89065,-6.68417 39.38281,-3.96358 z"
       id="path5344-1"
       inkscape:connector-curvature="0"
       sodipodi:nodetypes="cccc" />
    <path
       style="fill:#eeeeec;stroke:none"
       d="m 200.448,406.82391 c 4.86177,11.44741 12.77932,20.13059 25.0314,16.9673 6.10715,-1.52545 14.27052,-7.00524 14.35141,-13.00372 -6.88716,-2.98681 -31.89065,-6.68417 -39.38281,-3.96358 z"
       id="path5344-1-4"
       inkscape:connector-curvature="0"
       sodipodi:nodetypes="cccc" />
  </g>
</svg>
