<?xml version="1.0" encoding="UTF-8" standalone="no"?>
<!-- Created with Inkscape (http://www.inkscape.org/) -->

<svg
   xmlns:dc="http://purl.org/dc/elements/1.1/"
   xmlns:cc="http://creativecommons.org/ns#"
   xmlns:rdf="http://www.w3.org/1999/02/22-rdf-syntax-ns#"
   xmlns:svg="http://www.w3.org/2000/svg"
   xmlns="http://www.w3.org/2000/svg"
   xmlns:sodipodi="http://sodipodi.sourceforge.net/DTD/sodipodi-0.dtd"
   xmlns:inkscape="http://www.inkscape.org/namespaces/inkscape"
   version="1.1"
   width="512"
   height="512"
   id="svg2"
   style="display:inline;enable-background:new"
   inkscape:version="0.48.2 r9819"
   sodipodi:docname="b_flag2.svg"
   inkscape:export-xdpi="90"
   inkscape:export-ydpi="90">
  <sodipodi:namedview
     pagecolor="#000000"
     bordercolor="#666666"
     borderopacity="1"
     objecttolerance="10"
     gridtolerance="10"
     guidetolerance="10"
     inkscape:pageopacity="0"
     inkscape:pageshadow="2"
     inkscape:window-width="1152"
     inkscape:window-height="810"
     id="namedview3075"
     showgrid="false"
     inkscape:zoom="0.8369272"
     inkscape:cx="301.29986"
     inkscape:cy="233.51452"
     inkscape:window-x="0"
     inkscape:window-y="26"
     inkscape:window-maximized="1"
     inkscape:current-layer="svg2" />
  <defs
     id="defs9" />
  <metadata
     id="metadata7">
    <rdf:RDF>
      <cc:Work
         rdf:about="">
        <dc:format>image/svg+xml</dc:format>
        <dc:type
           rdf:resource="http://purl.org/dc/dcmitype/StillImage" />
        <dc:title />
      </cc:Work>
    </rdf:RDF>
  </metadata>
  <path
     style="fill:#204a87;fill-opacity:1;stroke:#000000;stroke-width:3.79429817;stroke-miterlimit:4;stroke-opacity:1;stroke-dasharray:none"
     d="m 69.897149,1.8971457 0,508.2056943 440.205701,0 0,-508.2056943 -440.205701,0 z M 414.26472,98.201251 485.23741,199.56741 432.88255,311.74514 309.61746,322.4942 238.70723,221.06554 290.99962,108.95031 414.26472,98.201251 z M 221.089,249.31308 l 52.04249,74.36852 -38.36025,82.24282 -90.40273,7.87433 -52.042486,-74.30603 38.360246,-82.30533 90.40273,-7.87431 z"
     id="rect3168"
     inkscape:connector-curvature="0" />
  <rect
     style="fill:#204a87;fill-opacity:1;stroke:#000000;stroke-width:4.01058722;stroke-miterlimit:4;stroke-opacity:1;stroke-dasharray:none"
     id="rect3938"
     width="66.98941"
     height="507.98944"
     x="2.0052936"
     y="2.0052655" />
  <path
     sodipodi:type="arc"
     style="fill:#000000;fill-opacity:1;stroke:#000000;stroke-width:2;stroke-linejoin:round;stroke-miterlimit:4;stroke-opacity:1;stroke-dasharray:none;stroke-dashoffset:0"
     id="path3940"
     sodipodi:cx="17.953794"
     sodipodi:cy="14.996699"
     sodipodi:rx="8.2376242"
     sodipodi:ry="2.7458746"
     d="m 26.191419,14.996699 a 8.2376242,2.7458746 0 1 1 -16.4752487,0 8.2376242,2.7458746 0 1 1 16.4752487,0 z"
     transform="matrix(2,0,0,2,-1.4323406,4.4922554)" />
  <path
     transform="matrix(2,0,0,2,-1.4323406,447.47626)"
     sodipodi:type="arc"
     style="fill:#000000;fill-opacity:1;stroke:#000000;stroke-width:2;stroke-linejoin:round;stroke-miterlimit:4;stroke-opacity:1;stroke-dasharray:none;stroke-dashoffset:0;display:inline;enable-background:new"
     id="path3940-9"
     sodipodi:cx="17.953794"
     sodipodi:cy="14.996699"
     sodipodi:rx="8.2376242"
     sodipodi:ry="2.7458746"
     d="m 26.191419,14.996699 a 8.2376242,2.7458746 0 1 1 -16.4752487,0 8.2376242,2.7458746 0 1 1 16.4752487,0 z" />
  <path
     sodipodi:type="arc"
     style="opacity:0.25;fill:#2e3436;fill-opacity:1;stroke:none"
     id="path3789"
     sodipodi:cx="158.41583"
     sodipodi:cy="109.835"
     sodipodi:rx="11.40594"
     sodipodi:ry="10.138614"
     d="m 169.82177,109.835 a 11.40594,10.138614 0 1 1 -22.81188,0 11.40594,10.138614 0 1 1 22.81188,0 z"
     transform="matrix(0.74934196,0,0,0.83333334,35.034827,100.77453)" />
  <path
     sodipodi:type="arc"
     style="opacity:0.15;fill:#2e3436;fill-opacity:1;stroke:none"
     id="path3791"
     sodipodi:cx="168.97688"
     sodipodi:cy="150.81189"
     sodipodi:rx="21.12211"
     sodipodi:ry="18.165016"
     d="m 190.09899,150.81189 a 21.12211,18.165016 0 1 1 -42.24422,0 21.12211,18.165016 0 1 1 42.24422,0 z"
     transform="matrix(1.0814214,0,0,0.74384376,112.87824,-71.639515)" />
  <path
     sodipodi:type="arc"
     style="opacity:0.25;fill:#2e3436;fill-opacity:1;stroke:none"
     id="path3801"
     sodipodi:cx="281.76895"
     sodipodi:cy="475.24753"
     sodipodi:rx="11.40594"
     sodipodi:ry="8.8712864"
     d="m 293.17489,475.24753 a 11.40594,8.8712864 0 1 1 -22.81188,0 11.40594,8.8712864 0 1 1 22.81188,0 z"
     transform="matrix(0.77777778,0,0,1,60.08067,0)" />
  <path
     sodipodi:type="arc"
     style="opacity:0.2;fill:#2e3436;fill-opacity:1;stroke:none"
     id="path3803"
     sodipodi:cx="303.31351"
     sodipodi:cy="449.901"
     sodipodi:rx="9.2937288"
     sodipodi:ry="8.8712864"
     d="m 312.60724,449.901 a 9.2937288,8.8712864 0 1 1 -18.58746,0 9.2937288,8.8712864 0 1 1 18.58746,0 z" />
  <path
     sodipodi:type="arc"
     style="opacity:0.15;fill:#2e3436;fill-opacity:1;stroke:none"
     id="path3805"
     sodipodi:cx="331.61716"
     sodipodi:cy="477.35974"
     sodipodi:rx="17.320131"
     sodipodi:ry="19.432343"
     d="m 348.93729,477.35974 a 17.320131,19.432343 0 1 1 -34.64026,0 17.320131,19.432343 0 1 1 34.64026,0 z"
     transform="matrix(1,0,0,0.89130435,0,49.774717)" />
  <path
     sodipodi:type="arc"
     style="opacity:0.15;fill:#2e3436;fill-opacity:1;stroke:none"
     id="path3807"
     sodipodi:cx="391.90982"
     sodipodi:cy="418.80194"
     sodipodi:rx="75.275368"
     sodipodi:ry="71.690826"
     d="m 467.18519,418.80194 a 75.275368,71.690826 0 1 1 -150.55074,0 75.275368,71.690826 0 1 1 150.55074,0 z"
     transform="matrix(0.36622749,0,0,0.37549065,271.81433,277.99824)" />
  <path
     sodipodi:type="arc"
     style="opacity:0.25;fill:#2e3436;fill-opacity:1;stroke:none"
     id="path3866"
     sodipodi:cx="129.68976"
     sodipodi:cy="441.8746"
     sodipodi:rx="2.1122112"
     sodipodi:ry="2.5346534"
     d="m 131.80197,441.8746 a 2.1122112,2.5346534 0 1 1 -4.22442,0 2.1122112,2.5346534 0 1 1 4.22442,0 z"
     transform="matrix(2.4999999,0,0,1.9583333,-191.36631,-421.03411)" />
  <path
     sodipodi:type="arc"
     style="opacity:0.25;fill:#2e3436;fill-opacity:1;stroke:none"
     id="path3868"
     sodipodi:cx="172.9901"
     sodipodi:cy="466.27063"
     sodipodi:rx="7.8151813"
     sodipodi:ry="4.541254"
     d="m 180.80528,466.27063 a 7.8151813,4.541254 0 1 1 -15.63036,0 7.8151813,4.541254 0 1 1 15.63036,0 z"
     transform="matrix(1.027027,0,0,1.6511628,-4.4641874,-300.66098)" />
  <path
     sodipodi:type="arc"
     style="opacity:0.25;fill:#2e3436;fill-opacity:1;stroke:none"
     id="path3870"
     sodipodi:cx="440.18481"
     sodipodi:cy="46.046223"
     sodipodi:rx="8.4488449"
     sodipodi:ry="10.561055"
     d="m 448.63366,46.046223 a 8.4488449,10.561055 0 1 1 -16.89769,0 8.4488449,10.561055 0 1 1 16.89769,0 z"
     transform="matrix(0.74748739,0,0,0.55050242,-162.01202,148.58523)" />
  <path
     sodipodi:type="arc"
     style="opacity:0.2;fill:#2e3436;fill-opacity:1;stroke:none"
     id="path3874"
     sodipodi:cx="324.01318"
     sodipodi:cy="33.795399"
     sodipodi:rx="14.785478"
     sodipodi:ry="5.9141912"
     d="m 338.79866,33.795399 a 14.785478,5.9141912 0 1 1 -29.57095,0 14.785478,5.9141912 0 1 1 29.57095,0 z"
     transform="matrix(0.66213202,0,0,1.5808377,68.705201,16.617293)" />
  <path
     sodipodi:type="arc"
     style="opacity:0.15;fill:#2e3436;fill-opacity:1;stroke:none"
     id="path3876"
     sodipodi:cx="208.79951"
     sodipodi:cy="140.40257"
     sodipodi:rx="8.065218"
     sodipodi:ry="8.3639297"
     d="m 216.86473,140.40257 a 8.065218,8.3639297 0 1 1 -16.13043,0 8.065218,8.3639297 0 1 1 16.13043,0 z"
     transform="matrix(1.6965782,0,0,1.5057558,-110.53257,-153.67914)" />
  <path
     sodipodi:type="arc"
     style="opacity:0.25;fill:#2e3436;fill-opacity:1;stroke:none;display:inline;enable-background:new"
     id="path3866-3"
     sodipodi:cx="129.68976"
     sodipodi:cy="441.8746"
     sodipodi:rx="2.1122112"
     sodipodi:ry="2.5346534"
     d="m 131.80197,441.8746 a 2.1122112,2.5346534 0 1 1 -4.22442,0 2.1122112,2.5346534 0 1 1 4.22442,0 z"
     transform="matrix(2.4999999,0,0,1.9583333,122.29706,-486.61827)" />
  <path
     sodipodi:type="arc"
     style="opacity:0.25;fill:#2e3436;fill-opacity:1;stroke:none;display:inline;enable-background:new"
     id="path3866-3-4"
     sodipodi:cx="129.68976"
     sodipodi:cy="441.8746"
     sodipodi:rx="2.1122112"
     sodipodi:ry="2.5346534"
     d="m 131.80197,441.8746 a 2.1122112,2.5346534 0 1 1 -4.22442,0 2.1122112,2.5346534 0 1 1 4.22442,0 z"
     transform="matrix(1.1,0,0,1.1666667,322.45017,-146.62268)" />
  <path
     sodipodi:type="arc"
     style="opacity:0.25;fill:#2e3436;fill-opacity:1;stroke:none;display:inline;enable-background:new"
     id="path3866-3-4-0"
     sodipodi:cx="129.68976"
     sodipodi:cy="441.8746"
     sodipodi:rx="2.1122112"
     sodipodi:ry="2.5346534"
     d="m 131.80197,441.8746 a 2.1122112,2.5346534 0 1 1 -4.22442,0 2.1122112,2.5346534 0 1 1 4.22442,0 z"
     transform="matrix(2.0545941,0,0,1.8148479,-158.40083,-735.16508)" />
  <path
     sodipodi:type="arc"
     style="opacity:0.25;fill:#2e3436;fill-opacity:1;stroke:none;display:inline;enable-background:new"
     id="path3866-3-4-09"
     sodipodi:cx="129.68976"
     sodipodi:cy="441.8746"
     sodipodi:rx="2.1122112"
     sodipodi:ry="2.5346534"
     d="m 131.80197,441.8746 a 2.1122112,2.5346534 0 1 1 -4.22442,0 2.1122112,2.5346534 0 1 1 4.22442,0 z"
     transform="matrix(1.1,0,0,1.1666667,-23.771452,-441.43183)" />
  <path
     sodipodi:type="arc"
     style="opacity:0.25;fill:#2e3436;fill-opacity:1;stroke:none;display:inline;enable-background:new"
     id="path3866-3-4-8"
     sodipodi:cx="129.68976"
     sodipodi:cy="441.8746"
     sodipodi:rx="2.1122112"
     sodipodi:ry="2.5346534"
     d="m 131.80197,441.8746 a 2.1122112,2.5346534 0 1 1 -4.22442,0 2.1122112,2.5346534 0 1 1 4.22442,0 z"
     transform="matrix(1.4535534,0,0,1.1666667,226.84772,-114.93988)" />
  <path
     sodipodi:type="arc"
     style="opacity:0.25;fill:#2e3436;fill-opacity:1;stroke:none;display:inline;enable-background:new"
     id="path3866-3-4-0-7"
     sodipodi:cx="129.68976"
     sodipodi:cy="441.8746"
     sodipodi:rx="2.1122112"
     sodipodi:ry="2.5346534"
     d="m 131.80197,441.8746 a 2.1122112,2.5346534 0 1 1 -4.22442,0 2.1122112,2.5346534 0 1 1 4.22442,0 z"
     transform="matrix(1.1,0,0,1.0488156,324.60115,-387.86285)" />
  <path
     sodipodi:type="arc"
     style="opacity:0.25;fill:#2e3436;fill-opacity:1;stroke:none;display:inline;enable-background:new"
     id="path3866-3-4-0-5"
     sodipodi:cx="129.68976"
     sodipodi:cy="441.8746"
     sodipodi:rx="2.1122112"
     sodipodi:ry="2.5346534"
     d="m 131.80197,441.8746 a 2.1122112,2.5346534 0 1 1 -4.22442,0 2.1122112,2.5346534 0 1 1 4.22442,0 z"
     transform="matrix(2.0545941,0,0,1.8148479,-242.98463,-505.68384)" />
  <path
     sodipodi:type="arc"
     style="opacity:0.25;fill:#2e3436;fill-opacity:1;stroke:none;display:inline;enable-background:new"
     id="path3866-3-4-09-2"
     sodipodi:cx="129.68976"
     sodipodi:cy="441.8746"
     sodipodi:rx="2.1122112"
     sodipodi:ry="2.5346534"
     d="m 131.80197,441.8746 a 2.1122112,2.5346534 0 1 1 -4.22442,0 2.1122112,2.5346534 0 1 1 4.22442,0 z"
     transform="matrix(1.1,0,0,1.1666667,-108.35525,-211.95059)" />
</svg>
