<?xml version="1.0" encoding="UTF-8" standalone="no"?>
<!-- Created with Inkscape (http://www.inkscape.org/) -->

<svg
   xmlns:dc="http://purl.org/dc/elements/1.1/"
   xmlns:cc="http://creativecommons.org/ns#"
   xmlns:rdf="http://www.w3.org/1999/02/22-rdf-syntax-ns#"
   xmlns:svg="http://www.w3.org/2000/svg"
   xmlns="http://www.w3.org/2000/svg"
   xmlns:sodipodi="http://sodipodi.sourceforge.net/DTD/sodipodi-0.dtd"
   xmlns:inkscape="http://www.inkscape.org/namespaces/inkscape"
   width="512"
   height="512"
   id="svg2"
   version="1.1"
   inkscape:version="0.48.2 r9819"
   sodipodi:docname="Clover_blue.svg">
  <defs
     id="defs4" />
  <sodipodi:namedview
     id="base"
     pagecolor="#000000"
     bordercolor="#666666"
     borderopacity="1.0"
     inkscape:pageopacity="0"
     inkscape:pageshadow="2"
     inkscape:zoom="0.9899495"
     inkscape:cx="300.69152"
     inkscape:cy="244.87191"
     inkscape:document-units="px"
     inkscape:current-layer="layer1"
     showgrid="false"
     showguides="true"
     inkscape:guide-bbox="true"
     inkscape:window-width="1152"
     inkscape:window-height="810"
     inkscape:window-x="0"
     inkscape:window-y="26"
     inkscape:window-maximized="1" />
  <metadata
     id="metadata7">
    <rdf:RDF>
      <cc:Work
         rdf:about="">
        <dc:format>image/svg+xml</dc:format>
        <dc:type
           rdf:resource="http://purl.org/dc/dcmitype/StillImage" />
        <dc:title />
      </cc:Work>
    </rdf:RDF>
  </metadata>
  <g
     inkscape:label="Layer 1"
     inkscape:groupmode="layer"
     id="layer1">
    <path
       style="fill:#204a87;stroke:#000000;stroke-width:15.39000034000000028;stroke-linecap:butt;stroke-linejoin:miter;stroke-miterlimit:4;stroke-opacity:0;stroke-dasharray:none"
       d="M 145.13014,27.031028 C 96.39969,1.4369925 -22.878124,173.10001 17.733941,213.47842 c 57.984311,31.3627 140.005889,40.3116 189.884419,35.12034 39.11924,-4.9946 47.81256,-17.97694 38.93898,-61.45542 C 235.95738,139.25066 197.95111,69.63797 145.13014,27.031028 z"
       id="path2989-1"
       inkscape:connector-curvature="0"
       sodipodi:nodetypes="ccccc" />
    <path
       style="fill:#204a87;stroke:#000000;stroke-width:15.39000034000000028;stroke-linecap:butt;stroke-linejoin:miter;stroke-miterlimit:4;stroke-opacity:0;stroke-dasharray:none"
       d="m 142.65383,445.93542 c 6.35976,54.67418 215.38779,56.3119 225.81505,0 -6.8175,-65.56918 -45.70214,-138.3401 -78.12798,-176.59432 -26.19344,-29.48162 -41.81692,-29.33526 -72.70942,2.52024 -33.56317,35.77124 -69.5982,106.42446 -74.97765,174.07408 z"
       id="path2989"
       inkscape:connector-curvature="0"
       sodipodi:nodetypes="ccccc" />
    <path
       style="fill:#204a87;stroke:#000000;stroke-width:15.39000034000000028;stroke-linecap:butt;stroke-linejoin:miter;stroke-miterlimit:4;stroke-opacity:0;stroke-dasharray:none"
       d="M 366.86986,27.03102 C 415.60032,1.4369855 534.87812,173.1 494.26606,213.47842 c -57.9843,31.3627 -140.0059,40.3116 -189.88442,35.12034 -39.11926,-4.9946 -47.81256,-17.97694 -38.93898,-61.45543 10.59996,-47.89267 48.60622,-117.505366 101.4272,-160.11231 z"
       id="path2989-1-8"
       inkscape:connector-curvature="0"
       sodipodi:nodetypes="ccccc" />
    <path
       style="fill:#204a87;stroke:#000000;stroke-width:11.28600025000000073;stroke-linecap:butt;stroke-linejoin:miter;stroke-miterlimit:4;stroke-opacity:0;stroke-dasharray:none"
       d="m 332.73014,265.61098 c 79.65618,36.42266 100.07208,87.02318 142.04156,159.5159 -23.15886,32.65948 -23.40472,35.21678 -56.56854,16.66752 -13.76042,-83.0229 -37.4263,-111.7754 -98.2067,-162.577 l -19.47608,-18.6318 z"
       id="path3827"
       inkscape:connector-curvature="0"
       sodipodi:nodetypes="cccccc" />
  </g>
</svg>
