<?xml version="1.0" encoding="UTF-8" standalone="no"?>
<!-- Created with Inkscape (http://www.inkscape.org/) -->

<svg
   xmlns:dc="http://purl.org/dc/elements/1.1/"
   xmlns:cc="http://creativecommons.org/ns#"
   xmlns:rdf="http://www.w3.org/1999/02/22-rdf-syntax-ns#"
   xmlns:svg="http://www.w3.org/2000/svg"
   xmlns="http://www.w3.org/2000/svg"
   version="1.1"
   width="256"
   height="256"
   id="svg2">
  <defs
     id="defs4" />
  <metadata
     id="metadata7">
    <rdf:RDF>
      <cc:Work
         rdf:about="">
        <dc:format>image/svg+xml</dc:format>
        <dc:type
           rdf:resource="http://purl.org/dc/dcmitype/StillImage" />
        <dc:title></dc:title>
      </cc:Work>
    </rdf:RDF>
  </metadata>
  <g
     id="layer1" />
  <path
     d="m 241.54902,141.58664 c -0.57903,-37.55721 -29.46031,-64.478322 -53.08377,-94.479007 -2.41637,27.793348 14.64198,61.359957 5.05076,87.883277 -14.63034,3.2327 -31.57559,2.28185 -46.97209,-0.50508 -11.53077,-2.7114 -11.29869,-77.357099 -13.63706,-113.642163 -0.4258,-1.713069 -1.40049,-0.648715 -2.02031,0.505076 -18.76529,30.837223 -24.35729,74.094456 -26.26398,109.096477 0,0.16836 0.11905,0.38603 0,0.50508 -0.11904,0.11905 -0.33671,0 -0.50507,0 -6.67925,1.96477 -40.429736,9.03521 -44.951787,-1.51523 C 51.819365,106.45821 56.135255,81.332997 56.135255,58.219311 40.753185,78.073924 18.638013,109.95724 18.759611,137.01122 38.353073,272.85857 215.56433,274.31836 241.54902,141.58664 z"
     id="path2818"
     style="fill:#204a87;stroke:#000000;stroke-width:7.69500017;stroke-linecap:butt;stroke-linejoin:miter;stroke-miterlimit:4;stroke-opacity:1;stroke-dasharray:none" />
</svg>
