<?xml version="1.0" encoding="UTF-8" standalone="no"?>
<!-- Created with Inkscape (http://www.inkscape.org/) -->

<svg
   xmlns:dc="http://purl.org/dc/elements/1.1/"
   xmlns:cc="http://creativecommons.org/ns#"
   xmlns:rdf="http://www.w3.org/1999/02/22-rdf-syntax-ns#"
   xmlns:svg="http://www.w3.org/2000/svg"
   xmlns="http://www.w3.org/2000/svg"
   xmlns:xlink="http://www.w3.org/1999/xlink"
   xmlns:sodipodi="http://sodipodi.sourceforge.net/DTD/sodipodi-0.dtd"
   xmlns:inkscape="http://www.inkscape.org/namespaces/inkscape"
   version="1.1"
   width="128"
   height="128"
   id="svg3896"
   style="display:inline;enable-background:new"
   inkscape:version="0.48.0 r9654"
   sodipodi:docname="iconf.svg">
  <sodipodi:namedview
     pagecolor="#ffffff"
     bordercolor="#666666"
     borderopacity="1"
     objecttolerance="10"
     gridtolerance="10"
     guidetolerance="10"
     inkscape:pageopacity="0"
     inkscape:pageshadow="2"
     inkscape:window-width="1152"
     inkscape:window-height="782"
     id="namedview4015"
     showgrid="false"
     inkscape:zoom="2.1171875"
     inkscape:cx="45.334233"
     inkscape:cy="83.888192"
     inkscape:window-x="0"
     inkscape:window-y="27"
     inkscape:window-maximized="1"
     inkscape:current-layer="layer4" />
  <defs
     id="defs3898">
    <filter
       color-interpolation-filters="sRGB"
       id="filter3944">
      <feBlend
         in2="BackgroundImage"
         mode="multiply"
         id="feBlend3946" />
    </filter>
    <filter
       color-interpolation-filters="sRGB"
       id="filter3951">
      <feBlend
         in2="BackgroundImage"
         mode="multiply"
         id="feBlend3953" />
    </filter>
  </defs>
  <metadata
     id="metadata3901">
    <rdf:RDF>
      <cc:Work
         rdf:about="">
        <dc:format>image/svg+xml</dc:format>
        <dc:type
           rdf:resource="http://purl.org/dc/dcmitype/StillImage" />
        <dc:title></dc:title>
      </cc:Work>
    </rdf:RDF>
  </metadata>
  <g
     inkscape:groupmode="layer"
     id="layer0"
     inkscape:label="Layer 1"
     style="display:inline">
    <rect
       style="fill:#b3b3b3;fill-opacity:1;stroke:#000000;stroke-width:3.96961856;stroke-miterlimit:4;stroke-opacity:1;stroke-dasharray:none"
       id="rect4929"
       y="1.9847981"
       x="1.9848093"
       ry="0"
       rx="62.01519"
       height="124.03038"
       width="124.03038" />
    <path
       inkscape:connector-curvature="0"
       style="fill:#ffffff;fill-opacity:1;stroke:#000000;stroke-width:4;stroke-linecap:butt;stroke-linejoin:miter;stroke-miterlimit:4;stroke-opacity:1;stroke-dasharray:none"
       id="path5441-7"
       d="M 13.73601,27.528113 C 57.60965,36.458871 64.04409,-1.1910242 91.2169,19.989215 l 5.12653,57.452426 C 64.58096,65.325924 57.26112,99.675719 20.27031,90.855223 16.90728,57.184126 15.52004,46.332483 13.73601,27.528113 z" />
    <path
       inkscape:connector-curvature="0"
       style="fill:none;stroke:#000000;stroke-width:4;stroke-linecap:butt;stroke-linejoin:miter;stroke-miterlimit:4;stroke-opacity:1;stroke-dasharray:none"
       id="path5480"
       d="m 112.00001,115.25 -8.5,-96.25" />
    <path
       inkscape:connector-curvature="0"
       style="fill:#000000;fill-opacity:1;stroke:none"
       id="path5482"
       d="m 110.03101,13.96875 a 7,5.96875 0 0 1 -14,0 7,5.96875 0 1 1 14,0 z" />
  </g>
  <g
     inkscape:groupmode="layer"
     id="layer4"
     inkscape:label="Blue"
     style="display:none;filter:url(#filter3944)">
    <rect
       width="128"
       height="128"
       rx="0"
       ry="128"
       x="0"
       y="0"
       id="rect3174"
       style="fill:#3333ff;fill-opacity:1;stroke:none" />
  </g>
  <g
     inkscape:groupmode="layer"
     id="layer5"
     inkscape:label="Red"
     style="display:none;filter:url(#filter3951)">
    <rect
       width="128"
       height="128"
       rx="0"
       ry="128"
       x="0"
       y="0"
       id="rect3949"
       style="fill:#ff3333;fill-opacity:1;stroke:none" />
  </g>
  <g
     inkscape:groupmode="layer"
     id="g3822"
     inkscape:label="?"
     style="display:inline">
    <path
       style="fill:#000000;fill-opacity:1;stroke:none"
       d="m 48.436728,70.415687 -0.01159,-6.098522 6.343663,-0.02433 -0.02007,6.096563 -6.312008,0.02625 z"
       id="path3864"
       inkscape:connector-curvature="0"
       sodipodi:nodetypes="cccccc" />
    <path
       style="fill:none;stroke:#000000;stroke-width:6.30000019;stroke-linecap:butt;stroke-linejoin:miter;stroke-miterlimit:4;stroke-opacity:1;stroke-dasharray:none"
       d="m 44.640539,41.233292 c 0.658945,-1.397541 1.799449,-2.432679 3.044983,-3.117908 1.380284,-0.759361 2.887656,-1.23925 4.351059,-1.348344 1.580063,-0.11779 3.19012,0.111219 4.646751,0.844363 1.688459,0.849826 3.01421,2.679059 3.119803,4.457208 0.06957,1.17151 0.190417,4.175564 0.135139,5.430218 -0.196324,4.456028 -2.955193,5.20458 -7.572913,6.075817 -1.05115,0.198323 -0.798825,1.155323 -0.798825,2.159563 0,1.896677 0,3.793354 0,5.690031"
       id="path3893"
       inkscape:connector-curvature="0"
       sodipodi:nodetypes="cssssssss" />
  </g>
  <g
     style="display:none"
     inkscape:label="X"
     id="g3037"
     inkscape:groupmode="layer">
    <path
       inkscape:connector-curvature="0"
       id="path3043"
       d="M 63.000178,32.93428 52.112167,47.290022 41.343112,33.092988 35.570227,35.810239 48.130625,52.532153 35.40229,69.31178 41.846928,71.490389 52.112167,57.827185 62.489365,71.644287 68.934003,69.470486 56.08671,52.532153 68.766065,35.656342 63.000178,32.93428 z"
       style="fill:#000000;fill-opacity:1;stroke:none" />
  </g>
</svg>
