<?xml version="1.0" encoding="UTF-8" standalone="no"?>
<!-- Created with Inkscape (http://www.inkscape.org/) -->

<svg
   xmlns:dc="http://purl.org/dc/elements/1.1/"
   xmlns:cc="http://creativecommons.org/ns#"
   xmlns:rdf="http://www.w3.org/1999/02/22-rdf-syntax-ns#"
   xmlns:svg="http://www.w3.org/2000/svg"
   xmlns="http://www.w3.org/2000/svg"
   xmlns:sodipodi="http://sodipodi.sourceforge.net/DTD/sodipodi-0.dtd"
   xmlns:inkscape="http://www.inkscape.org/namespaces/inkscape"
   version="1.1"
   width="256"
   height="256"
   id="svg3896"
   style="display:inline;enable-background:new"
   inkscape:version="0.48.2 r9819"
   sodipodi:docname="iconf_neutral2.svg">
  <sodipodi:namedview
     pagecolor="#000000"
     bordercolor="#666666"
     borderopacity="1"
     objecttolerance="10"
     gridtolerance="10"
     guidetolerance="10"
     inkscape:pageopacity="0"
     inkscape:pageshadow="2"
     inkscape:window-width="1920"
     inkscape:window-height="1026"
     id="namedview4015"
     showgrid="false"
     inkscape:zoom="2.9941552"
     inkscape:cx="106.763"
     inkscape:cy="135.03885"
     inkscape:window-x="0"
     inkscape:window-y="26"
     inkscape:window-maximized="1"
     inkscape:current-layer="g3822" />
  <defs
     id="defs3898">
    <filter
       color-interpolation-filters="sRGB"
       id="filter3944">
      <feBlend
         in2="BackgroundImage"
         mode="multiply"
         id="feBlend3946" />
    </filter>
    <filter
       color-interpolation-filters="sRGB"
       id="filter3951">
      <feBlend
         in2="BackgroundImage"
         mode="multiply"
         id="feBlend3953" />
    </filter>
  </defs>
  <metadata
     id="metadata3901">
    <rdf:RDF>
      <cc:Work
         rdf:about="">
        <dc:format>image/svg+xml</dc:format>
        <dc:type
           rdf:resource="http://purl.org/dc/dcmitype/StillImage" />
        <dc:title />
      </cc:Work>
    </rdf:RDF>
  </metadata>
  <g
     inkscape:groupmode="layer"
     id="layer0"
     inkscape:label="Layer 1"
     style="display:inline"
     transform="translate(0,128)">
    <path
       inkscape:connector-curvature="0"
       style="fill:#eeeeec;fill-opacity:1;stroke:#2e3436;stroke-width:4;stroke-linecap:butt;stroke-linejoin:miter;stroke-miterlimit:4;stroke-opacity:1;stroke-dasharray:none"
       id="path5441-7"
       d="M 27.472021,-72.943751 C 115.2193,-55.082235 128.08818,-130.38203 182.4338,-88.021547 L 192.68686,26.883305 C 129.16192,2.6518714 114.52224,71.351461 40.540621,53.710471 c -6.72606,-67.342196 -9.50054,-89.045482 -13.0686,-126.654222 z" />
    <path
       inkscape:connector-curvature="0"
       style="fill:none;stroke:#2e3436;stroke-width:8;stroke-linecap:butt;stroke-linejoin:miter;stroke-miterlimit:4;stroke-opacity:1;stroke-dasharray:none"
       id="path5480"
       d="m 224.00002,102.50002 -17,-192.499997" />
    <path
       inkscape:connector-curvature="0"
       style="fill:#c4a000;fill-opacity:1;stroke:#2e3436;stroke-width:2;stroke-miterlimit:4;stroke-dasharray:none"
       id="path5482"
       d="m 220.06202,-100.06248 a 14,11.9375 0 0 1 -28,0 14,11.9375 0 1 1 28,0 z" />
  </g>
  <g
     inkscape:groupmode="layer"
     id="g3822"
     inkscape:label="?"
     style="display:inline"
     transform="translate(0,128)">
    <path
       style="fill:#000000;fill-opacity:1;stroke:none"
       d="m 96.873457,12.831397 -0.02318,-12.19704356 12.687323,-0.04866 -0.0401,12.19312556 -12.624013,0.0525 z"
       id="path3864"
       inkscape:connector-curvature="0"
       sodipodi:nodetypes="cccccc" />
    <path
       style="fill:none;stroke:#000000;stroke-width:12.60000038000000089;stroke-linecap:butt;stroke-linejoin:miter;stroke-miterlimit:4;stroke-opacity:1;stroke-dasharray:none"
       d="m 89.281079,-45.533393 c 1.31789,-2.795082 3.598898,-4.865358 6.089966,-6.235816 2.760568,-1.518722 5.775315,-2.4785 8.702115,-2.696688 3.16013,-0.23558 6.38024,0.222438 9.2935,1.688726 3.37692,1.699652 6.02842,5.358118 6.23961,8.914416 0.13914,2.34302 0.38084,8.351128 0.27028,10.860436 -0.39265,8.912056 -5.91039,10.40916 -15.14583,12.151634 -2.1023,0.396646 -1.59765,2.310646 -1.59765,4.319126 0,3.793354 0,7.5867084 0,11.3800624"
       id="path3893"
       inkscape:connector-curvature="0"
       sodipodi:nodetypes="cssssssss" />
  </g>
  <g
     style="display:none"
     inkscape:label="X"
     id="g3037"
     inkscape:groupmode="layer"
     transform="translate(0,128)">
    <path
       inkscape:connector-curvature="0"
       id="path3043"
       d="m 126.00036,-62.131417 -21.77603,28.711484 -21.538105,-28.394068 -11.54577,5.434502 25.120796,33.443828 -25.45667,33.559254 12.889276,4.357218 20.530473,-27.326408 20.7544,27.634204 12.88928,-4.347602 -25.69459,-33.876666 25.35871,-33.751622 -11.53177,-5.444124 z"
       style="fill:#2e3436;fill-opacity:1;stroke:none" />
  </g>
</svg>
