<?xml version="1.0" encoding="UTF-8" standalone="no"?>
<!-- Created with Inkscape (http://www.inkscape.org/) -->

<svg
   xmlns:dc="http://purl.org/dc/elements/1.1/"
   xmlns:cc="http://creativecommons.org/ns#"
   xmlns:rdf="http://www.w3.org/1999/02/22-rdf-syntax-ns#"
   xmlns:svg="http://www.w3.org/2000/svg"
   xmlns="http://www.w3.org/2000/svg"
   version="1.1"
   width="128"
   height="128"
   id="svg2">
  <defs
     id="defs4" />
  <metadata
     id="metadata7">
    <rdf:RDF>
      <cc:Work
         rdf:about="">
        <dc:format>image/svg+xml</dc:format>
        <dc:type
           rdf:resource="http://purl.org/dc/dcmitype/StillImage" />
        <dc:title></dc:title>
      </cc:Work>
    </rdf:RDF>
  </metadata>
  <g
     id="layer1">
    <path
       d="m 22.810483,11.973044 c 9.910269,9.771802 18.46894,18.670273 25.953647,27.707273 l 16.659436,20.51741 28.057998,34.897136 c 1.58452,2.22232 12.183556,13.437147 13.678256,13.502907 0.71292,0.19971 1.04151,0.38147 1.4029,0.70145 0.40079,7.32916 -3.6122,8.24204 -8.06667,9.29421 -1.126966,-0.27884 -2.324956,-1.11534 -2.981146,-2.10435 -1.73217,-6.69764 -7.35023,-12.63937 -11.924657,-17.010157 C 76.691407,90.411173 66.940835,79.304623 58.58443,70.894838 52.796414,64.572773 45.897274,56.633286 39.645281,50.213025 29.286036,38.322377 18.072195,24.907701 15.094544,18.121737 c 1.025999,-4.633188 4.304883,-6.102053 7.715939,-6.148693 z"
       id="path2996"
       style="fill:#b9874a;fill-opacity:1;stroke:none" />
  </g>
</svg>
