<?xml version="1.0" encoding="UTF-8" standalone="no"?>
<!-- Created with Inkscape (http://www.inkscape.org/) -->

<svg
   xmlns:dc="http://purl.org/dc/elements/1.1/"
   xmlns:cc="http://creativecommons.org/ns#"
   xmlns:rdf="http://www.w3.org/1999/02/22-rdf-syntax-ns#"
   xmlns:svg="http://www.w3.org/2000/svg"
   xmlns="http://www.w3.org/2000/svg"
   xmlns:xlink="http://www.w3.org/1999/xlink"
   xmlns:sodipodi="http://sodipodi.sourceforge.net/DTD/sodipodi-0.dtd"
   xmlns:inkscape="http://www.inkscape.org/namespaces/inkscape"
   width="128"
   height="128"
   id="svg4045"
   version="1.1"
   inkscape:version="0.48.0 r9654"
   sodipodi:docname="shurikenlaser.svg"
   inkscape:export-filename="/home/zack/Turtle_Arena_svn/trunk/base/icons/shurikenlaser.png"
   inkscape:export-xdpi="90"
   inkscape:export-ydpi="90">
  <defs
     id="defs4047">
    <linearGradient
       id="linearGradient4371">
      <stop
         style="stop-color:#5c3566;stop-opacity:1;"
         offset="0"
         id="stop4373" />
      <stop
         style="stop-color:#ffffff;stop-opacity:1;"
         offset="1"
         id="stop4375" />
    </linearGradient>
    <radialGradient
       inkscape:collect="always"
       xlink:href="#linearGradient4371"
       id="radialGradient4377"
       cx="64.465508"
       cy="64.198051"
       fx="64.465508"
       fy="64.198051"
       r="61.168759"
       gradientTransform="matrix(3.1211865,-3.1890277,1.3473847,1.3189342,-223.45834,184.72178)"
       gradientUnits="userSpaceOnUse" />
  </defs>
  <sodipodi:namedview
     id="base"
     pagecolor="#ffffff"
     bordercolor="#666666"
     borderopacity="1.0"
     inkscape:pageopacity="0.0"
     inkscape:pageshadow="2"
     inkscape:zoom="5.6568543"
     inkscape:cx="76.369478"
     inkscape:cy="65.03417"
     inkscape:current-layer="layer1"
     showgrid="true"
     inkscape:grid-bbox="true"
     inkscape:document-units="px"
     inkscape:window-width="1152"
     inkscape:window-height="782"
     inkscape:window-x="0"
     inkscape:window-y="27"
     inkscape:window-maximized="1" />
  <metadata
     id="metadata4050">
    <rdf:RDF>
      <cc:Work
         rdf:about="">
        <dc:format>image/svg+xml</dc:format>
        <dc:type
           rdf:resource="http://purl.org/dc/dcmitype/StillImage" />
        <dc:title></dc:title>
      </cc:Work>
    </rdf:RDF>
  </metadata>
  <g
     id="layer1"
     inkscape:label="Layer 1"
     inkscape:groupmode="layer">
    <path
       style="fill:url(#radialGradient4377);fill-opacity:1;stroke:none"
       d="M 63.6899,3.3207968 C 62.758109,4.3571836 62.575497,5.9207648 61.959958,7.1585973 56.862267,20.378725 51.987628,33.70167 46.984225,46.964554 c -14.486663,5.5067 -29.096116,10.753662 -43.5091638,16.46233 -1.3516029,0.429114 -0.1830811,1.392121 0.622763,1.440908 14.2284868,5.520524 28.5810298,10.765012 42.8753528,16.1318 5.418214,14.415818 10.756862,28.870198 16.213737,43.266098 0.371338,1.46108 1.534828,0.86061 1.62966,-0.32041 5.58139,-14.20443 10.772222,-28.611911 16.202689,-42.89597 14.574047,-5.515593 29.200547,-10.911511 43.774327,-16.429184 0.80643,-0.379408 0.2617,-1.365743 -0.45851,-1.419737 C 109.95977,57.736223 95.46258,52.484742 81.124224,46.942457 75.548744,32.756753 70.48438,18.325317 64.833147,4.1624968 64.656584,3.6745172 64.218328,2.1958979 63.6899,3.3207968 z m 8.252985,52.7367082 c 2.653492,2.651651 5.306983,5.303301 7.960475,7.954952 -5.303569,5.286409 -10.569043,10.611477 -15.915426,15.854659 -5.344352,-5.24154 -10.609005,-10.563733 -15.909903,-15.849135 5.30186,-5.306582 10.605161,-10.611725 15.909903,-15.915427 2.65165,2.65165 5.3033,5.303301 7.954951,7.954951 z"
       id="path4367"
       inkscape:connector-curvature="0"
       sodipodi:nodetypes="cccccccccccccccccccc" />
    <path
       style="font-size:medium;font-style:normal;font-variant:normal;font-weight:normal;font-stretch:normal;text-indent:0;text-align:start;text-decoration:none;line-height:normal;letter-spacing:normal;word-spacing:normal;text-transform:none;direction:ltr;block-progression:tb;writing-mode:lr-tb;text-anchor:start;baseline-shift:baseline;color:#000000;fill:#5c3566;fill-opacity:1;fill-rule:nonzero;stroke:none;stroke-width:1px;marker:none;visibility:visible;display:inline;overflow:visible;enable-background:accumulate;font-family:Sans;-inkscape-font-specification:Sans"
       d="M 64,0.0625 63.53125,1.3125 46.59375,46.59375 1.3125,63.53125 0.0625,64 l 1.25,0.46875 45.28125,16.9375 16.9375,45.28125 0.46875,1.25 0.46875,-1.25 16.9375,-45.28125 45.28125,-16.9375 1.25,-0.46875 -1.25,-0.46875 L 81.40625,46.59375 64.46875,1.3125 64,0.0625 z m 0,2.875 16.53125,44.25 0.09375,0.1875 0.1875,0.09375 L 125.0625,64 80.8125,80.53125 80.625,80.625 80.53125,80.8125 64,125.0625 47.46875,80.8125 47.375,80.625 47.1875,80.53125 2.9375,64 47.1875,47.46875 47.375,47.375 47.46875,47.1875 64,2.9375 z m 0,44.34375 -0.34375,0.375 -16,16 -0.375,0.34375 0.375,0.34375 16,16 0.34375,0.375 0.34375,-0.375 16,-16 0.375,-0.34375 -0.375,-0.34375 -16,-16 L 64,47.28125 z M 64,48.6875 79.3125,64 64,79.3125 48.6875,64 64,48.6875 z"
       inkscape:connector-curvature="0" />
  </g>
</svg>
