<?xml version="1.0" encoding="UTF-8" standalone="no"?>
<!-- Created with Inkscape (http://www.inkscape.org/) -->

<svg
   xmlns:dc="http://purl.org/dc/elements/1.1/"
   xmlns:cc="http://creativecommons.org/ns#"
   xmlns:rdf="http://www.w3.org/1999/02/22-rdf-syntax-ns#"
   xmlns:svg="http://www.w3.org/2000/svg"
   xmlns="http://www.w3.org/2000/svg"
   xmlns:sodipodi="http://sodipodi.sourceforge.net/DTD/sodipodi-0.dtd"
   xmlns:inkscape="http://www.inkscape.org/namespaces/inkscape"
   width="128"
   height="128"
   id="svg2"
   version="1.1"
   inkscape:version="0.48.0 r9654"
   sodipodi:docname="patrol.svg"
   inkscape:export-filename="/home/zack/Turtle_Arena_svn/trunk/base-src/ui/assets/statusbar/patrol.png"
   inkscape:export-xdpi="90"
   inkscape:export-ydpi="90">
  <defs
     id="defs4" />
  <sodipodi:namedview
     id="base"
     pagecolor="#ffffff"
     bordercolor="#666666"
     borderopacity="1.0"
     inkscape:pageopacity="0.0"
     inkscape:pageshadow="2"
     inkscape:zoom="5.6"
     inkscape:cx="66.863721"
     inkscape:cy="64.374086"
     inkscape:document-units="px"
     inkscape:current-layer="layer1"
     showgrid="false"
     inkscape:window-width="1152"
     inkscape:window-height="782"
     inkscape:window-x="0"
     inkscape:window-y="27"
     inkscape:window-maximized="1" />
  <metadata
     id="metadata7">
    <rdf:RDF>
      <cc:Work
         rdf:about="">
        <dc:format>image/svg+xml</dc:format>
        <dc:type
           rdf:resource="http://purl.org/dc/dcmitype/StillImage" />
        <dc:title></dc:title>
      </cc:Work>
    </rdf:RDF>
  </metadata>
  <g
     inkscape:label="Layer 1"
     inkscape:groupmode="layer"
     id="layer1">
    <path
       sodipodi:type="arc"
       style="fill:#ffffff;fill-opacity:1;stroke:none"
       id="path3817"
       sodipodi:cx="65.407379"
       sodipodi:cy="69.032349"
       sodipodi:rx="31.062191"
       sodipodi:ry="25.75889"
       d="m 96.46957,69.032349 a 31.062191,25.75889 0 1 1 -62.124382,0 31.062191,25.75889 0 1 1 62.124382,0 z"
       transform="matrix(1.0081301,0,0,1.0588235,-1.668189,-5.5759552)" />
    <path
       sodipodi:type="arc"
       style="fill:#2e3436;fill-opacity:1;stroke:#000000;stroke-opacity:1"
       id="path3819"
       sodipodi:cx="67.364548"
       sodipodi:cy="66.633232"
       sodipodi:rx="8.7757006"
       sodipodi:ry="8.207489"
       d="m 76.140248,66.633232 a 8.7757006,8.207489 0 1 1 -17.551401,0 8.7757006,8.207489 0 1 1 17.551401,0 z"
       transform="matrix(1.1151079,0,0,1,-7.249116,-0.50507628)" />
    <path
       style="fill:#ffffff;fill-opacity:1;stroke:none"
       id="path3857"
       d="m 18.544189,59.640926 c 0.07243,1.134939 -0.06767,2.285731 0.01697,3.419598 0.03176,0.425516 0.257343,0.815415 0.341158,1.233802 1.362932,11.237818 3.314688,24.950247 12.605628,29.566326 0.979123,1.035778 2.017212,2.009835 3.022507,3.011146 0.987664,1.041656 2.030141,2.026623 3.040204,3.036246 -0.09982,-0.101652 -0.420511,-0.380104 -0.29947,-0.304957 1.337201,0.830193 2.575241,1.905863 3.758225,2.936763 0.07297,0.0543 0.159619,0.23193 0.218919,0.16295 0.04313,-0.0502 -0.489671,-0.4056 -0.453072,-0.38967 1.082692,0.47121 2.087851,1.08336 3.096205,1.69029 0.715192,0.41694 1.606783,0.9646 2.250556,1.21243 1.595454,0.49612 3.039321,1.44782 4.623799,1.95197 14.880836,1.67627 27.477638,0.96231 40.566298,-5.94921 9.383604,-3.819348 16.442214,-13.089906 21.295264,-20.512226 11.16841,-17.755441 4.57183,-20.835736 -6.23258,-39.599342 -1.72456,-1.345009 -0.39162,-0.577955 -2.21997,-1.621756 0.0217,0.02736 0.0961,0.09843 0.0652,0.08209 -1.04246,-0.551235 -2.60743,-1.619865 -3.41121,-2.067267 0.0364,0.03277 0.15419,0.117362 0.1091,0.09831 C 99.653879,37.055198 98.572949,36.61919 97.264122,36.148085 95.972146,35.840631 94.838087,34.870652 93.535164,34.66898 91.825702,34.20513 90.297708,33.209798 88.626467,32.667453 87.514712,32.363665 86.52628,31.7693 85.380105,31.60234 83.386761,31.283662 82.12552,30.133136 80.188898,29.563329 78.71821,29.010492 76.898961,28.131075 75.383277,27.724017 73.502361,27.377429 71.459805,27.317002 69.58885,26.914722 c -1.553201,-0.309907 -2.603252,-0.814391 -4.181625,-0.860813 -1.940485,-0.03935 -4.327969,-0.120125 -6.268734,-0.117325 -2.022447,0.0039 -4.312753,0.809571 -6.335203,0.810671 -1.63291,0.005 -3.343596,0.53303 -4.939365,0.812342 -1.432274,0.486757 -2.804127,1.164729 -4.182901,1.797308 -1.467315,0.422107 -2.578384,1.359339 -3.779214,2.231928 -1.565041,1.041238 -3.186521,1.974075 -4.817364,2.893871 0.809371,-0.369603 -2.614596,1.960524 -2.738913,2.095993 -1.258557,0.809866 -2.594387,1.643128 -3.748471,2.470157 -0.459127,0.654455 -1.528613,1.7768 -2.188869,2.686817 0.241404,-0.4255 -2.13094,2.646922 -1.727849,2.300225 -0.90772,1.616797 -1.903546,3.115753 -2.803706,4.550653 -0.308147,0.717821 -0.743388,1.642553 -1.017673,2.570079 -0.187786,1.048085 -2.090743,2.830643 -2.125591,3.892206 C 1.6173114,53.718266 4.5011983,58.505557 8.3743848,47.340047 c 0.7335747,-2.020407 1.512237,-4.042901 2.6452482,-5.882156 0.883513,-1.469819 1.206112,-1.850864 1.86237,-2.895099 0.949444,-1.793498 2.044577,-3.567707 3.461272,-5.01927 1.409857,-1.723666 3.441846,-2.729096 5.100374,-4.225267 1.40572,-1.073601 2.873551,-2.046925 4.376501,-2.976471 1.176692,-0.81956 2.606195,-1.944135 4.246076,-3.04841 1.162131,-0.631252 2.297729,-1.223554 3.398156,-1.958131 1.984857,-1.394545 4.482096,-1.71647 6.808376,-2.498362 2.576713,-1.168879 5.139592,-2.40816 7.938924,-2.963319 2.4156,-0.386722 4.197504,-1.214619 6.640331,-1.147416 2.018175,-0.0012 3.152467,-0.634545 5.17064,-0.638445 2.101481,-0.003 3.69824,-0.0119 5.799342,0.0355 2.48787,0.07971 4.349816,0.48071 6.790568,1.004391 2.087167,0.456652 3.663963,0.376676 5.758129,0.800522 1.832713,0.475528 3.71574,0.760218 5.486401,1.458605 -0.551812,0.07405 -0.12391,2.79e-4 1.032378,0.262463 0.525903,0.119246 1.017796,0.373142 1.548719,0.467552 0.435088,0.07737 0.875878,0.118265 1.313817,0.177398 2.107601,0.416333 4.058172,1.126325 5.979892,1.830462 1.496041,0.609954 2.285952,1.027183 3.637318,1.57429 2.068641,0.643239 1.947085,2.035642 3.742753,2.665937 1.65664,0.543492 2.70996,1.671832 4.37817,2.44838 1.96113,1.115314 1.33439,1.899744 3.38753,2.898088 1.66387,1.072617 1.24792,2.970434 2.68407,4.333348 3.92815,2.251566 3.94475,1.794371 5.71956,6.223123 0.19834,0.340069 3.7742,4.381487 3.01442,3.25161 1.06055,1.006236 0.82677,3.681852 1.847,4.725349 8.85929,17.562909 5.1421,38.078237 -5.77661,51.569148 -9.21294,9.553233 -33.105319,21.272543 -44.890047,21.313923 -4.170531,-0.0265 -8.222753,1.1533 -12.05265,1.20955 -14.798564,0.35297 -25.814447,-5.0076 -35.024072,-14.42145 -1.040391,-0.99172 -2.051574,-2.01141 -3.050922,-3.03726 -1.21735,-1.1706 -2.409589,-2.37545 -3.496818,-3.66996 -1.312314,-1.607952 -2.60169,-3.327376 -3.343902,-5.286464 C 13.724701,94.39248 4.6497805,90.425448 4.0329535,88.822312 -4.8644696,63.915358 20.755831,6.1485199 18.544189,59.640926 z"
       inkscape:connector-curvature="0"
       sodipodi:nodetypes="csccccsccccccccccccccccccccccccccccccccccccccccccccccccccssccccccccccccccccccc" />
    <path
       style="fill:#2e3436;stroke:#000000;stroke-width:1px;stroke-linecap:butt;stroke-linejoin:miter;stroke-opacity:1"
       d="M 4.5456864,51.354676 C 11.086893,37.99101 23.69841,16.917538 65.849319,12.526937 100.05613,14.909093 111.83907,29.764117 120.96576,44.914953 105.66791,32.465199 93.113913,22.535193 65.596781,20.734427 32.338327,20.801232 22.69425,38.927497 4.5456864,51.354676 z"
       id="path3821"
       inkscape:connector-curvature="0"
       sodipodi:nodetypes="ccccc" />
    <path
       style="fill:#2e3436;stroke:#000000;stroke-width:1px;stroke-linecap:butt;stroke-linejoin:miter;stroke-opacity:1"
       d="M 125.00637,84.153066 C 120.8554,99.689143 106.70929,118.75203 61.303627,123.35961 25.96211,121.35398 13.282287,104.44549 4.4194224,89.203829 19.342084,97.52652 34.228438,114.80345 61.745569,116.60421 94.753988,115.28723 106.79562,96.269283 125.00637,84.153066 z"
       id="path3821-7"
       inkscape:connector-curvature="0"
       sodipodi:nodetypes="ccccc" />
  </g>
</svg>
