<?xml version="1.0" encoding="UTF-8" standalone="no"?>
<!-- Created with Inkscape (http://www.inkscape.org/) -->

<svg
   xmlns:dc="http://purl.org/dc/elements/1.1/"
   xmlns:cc="http://creativecommons.org/ns#"
   xmlns:rdf="http://www.w3.org/1999/02/22-rdf-syntax-ns#"
   xmlns:svg="http://www.w3.org/2000/svg"
   xmlns="http://www.w3.org/2000/svg"
   xmlns:sodipodi="http://sodipodi.sourceforge.net/DTD/sodipodi-0.dtd"
   xmlns:inkscape="http://www.inkscape.org/namespaces/inkscape"
   width="512"
   height="1024"
   id="svg4283"
   version="1.1"
   inkscape:version="0.48.2 r9819"
   sodipodi:docname="char_don.svg"
   inkscape:export-xdpi="90"
   inkscape:export-ydpi="90">
  <defs
     id="defs4285" />
  <sodipodi:namedview
     id="base"
     pagecolor="#ffffff"
     bordercolor="#666666"
     borderopacity="1.0"
     inkscape:pageopacity="0.0"
     inkscape:pageshadow="2"
     inkscape:zoom="1.4"
     inkscape:cx="314.20659"
     inkscape:cy="481.94003"
     inkscape:document-units="px"
     inkscape:current-layer="layer1"
     showgrid="false"
     inkscape:window-width="1920"
     inkscape:window-height="1026"
     inkscape:window-x="0"
     inkscape:window-y="26"
     inkscape:window-maximized="1" />
  <metadata
     id="metadata4288">
    <rdf:RDF>
      <cc:Work
         rdf:about="">
        <dc:format>image/svg+xml</dc:format>
        <dc:type
           rdf:resource="http://purl.org/dc/dcmitype/StillImage" />
        <dc:title></dc:title>
      </cc:Work>
    </rdf:RDF>
  </metadata>
  <g
     inkscape:label="Layer 1"
     inkscape:groupmode="layer"
     id="layer1"
     transform="translate(0,-28.362183)">
    <path
       style="fill:#5c3566;fill-opacity:1;stroke:none"
       d="m 63.968751,60.362165 383.999999,0 0,960.000035 -383.999999,0 z"
       id="rect4291-5"
       inkscape:connector-curvature="0"
       sodipodi:nodetypes="ccccc" />
    <path
       style="fill:#2e3436;stroke:#555753;stroke-width:3;stroke-miterlimit:4;stroke-dasharray:none"
       d="m 75.968741,559.36214 c 33.633029,-26.7755 72.026119,-34.3877 112.698079,-44.367 47.35126,-8.53 95.70242,-3.9228 142.87375,3.5804 38.93767,11.7482 78.13219,16.3573 100.92818,41.2866 -57.09303,17.7202 -117.00009,15.7422 -175.50016,23.6131 z"
       id="path4690"
       inkscape:connector-curvature="0"
       sodipodi:nodetypes="cccccc" />
    <path
       sodipodi:type="arc"
       style="fill:#2e3436;fill-opacity:1;stroke:#555753"
       id="path4565"
       sodipodi:cx="385.81512"
       sodipodi:cy="362.05966"
       sodipodi:rx="36.32761"
       sodipodi:ry="12.28598"
       d="m 422.14273,362.05966 a 36.32761,12.28598 0 1 1 -72.65522,0 36.32761,12.28598 0 1 1 72.65522,0 z"
       transform="matrix(-1.9419672,-0.2801969,-0.36341425,0.96659242,1077.9269,153.33488)" />
    <path
       style="fill:#2e3436;fill-opacity:1;stroke:none"
       d="m 63.968751,578.76214 383.999999,0 0,441.60006 -383.999999,0 z"
       id="rect4451"
       inkscape:connector-curvature="0"
       sodipodi:nodetypes="ccccc" />
    <text
       xml:space="preserve"
       style="font-size:144px;font-style:normal;font-variant:normal;font-weight:500;font-stretch:normal;line-height:125%;letter-spacing:0px;word-spacing:0px;fill:#ad7fa8;fill-opacity:1;stroke:none;font-family:'M+ 1mn';-inkscape-font-specification:'M+ 1mn Medium'"
       x="148.576"
       y="220.68217"
       id="text4293-8"
       sodipodi:linespacing="125%"><tspan
         sodipodi:role="line"
         id="tspan4295-6"
         x="148.576"
         y="220.68217">Don</tspan></text>
    <path
       sodipodi:type="arc"
       style="fill:#2e3436;fill-opacity:1;stroke:#555753"
       id="path4567"
       sodipodi:cx="397.30563"
       sodipodi:cy="398.74081"
       sodipodi:rx="48.17165"
       sodipodi:ry="14.672465"
       d="m 445.47728,398.74081 a 48.17165,14.672465 0 1 1 -96.3433,0 48.17165,14.672465 0 1 1 96.3433,0 z"
       transform="matrix(-1.744058,0.12628074,0.07221721,0.99738893,845.88124,-31.198567)" />
    <path
       style="fill:#2e3436;fill-opacity:1;stroke:#555753;stroke-width:3;stroke-miterlimit:4;stroke-opacity:1;stroke-dasharray:none"
       d="m 261.28125,336.13116 c -38.50183,0 -70.64045,20.49856 -78.3125,52.19975 l -2.6875,-0.0312 -5.10907,41.18046 c -17.16892,20.50705 -30.72606,43.24089 -30.91238,58.49968 -0.38452,31.49069 17.67418,30.32069 46.1777,44.39629 -1.30475,5.4275 -0.9736,11.1082 -2.03125,15.6611 -6.58908,-1.7802 -14.86636,12.9055 -21.375,13.5437 -9.50244,0.2297 -19.02543,0.4816 -28.53125,0.8438 -9.57921,0.1035 -19.14203,0.5683 -28.71875,0.6875 -13.120939,-2.9079 -31.42358,-10.7178 -44.28125,-1.1563 -0.2381,22.0238 0.2381,54.3825 0,76.4063 16.69755,-2.6193 9.463151,-1.7246 26.187491,-4.3438 14.639379,-40.856 127.416669,-45.7934 163.769779,-24.8123 5.23484,3.0213 7.87567,3.9546 11.89291,-0.4205 25.10352,-27.3394 158.68147,-6.7474 162.55607,29.1703 6.01908,0.9434 10.57957,1.9004 16.59375,2.8438 -0.23811,-22.0238 0.2381,-54.4137 0,-76.4375 -12.85768,-9.5616 -31.16034,-1.7517 -44.28125,1.1562 -9.57673,-0.1191 -19.13955,-0.584 -28.71875,-0.6875 -9.50582,-0.3622 -19.02882,-0.614 -28.53125,-0.8437 -6.32439,-0.6202 -14.3194,-14.9593 -20.8125,-13.7 -1.70759,-1.2979 -0.3533,-7.9128 -2.03125,-14.2861 32.68858,-11.1612 54.49546,-20.6963 48.82169,-48.7284 -3.6328,-17.94842 0.008,-29.71654 -23.07169,-55.78553 l -5.46875,-40.90625 -2.3125,-0.0312 c -17.66826,-40.52354 -45.16713,-55.76388 -78.8125,-54.4186 z"
       id="path4350"
       inkscape:connector-curvature="0"
       sodipodi:nodetypes="ccccsccccccccssccccccccscccc" />
    <path
       style="fill:#555753;stroke:none"
       d="m 195.48378,369.3854 c 9.08674,-13.91246 26.60244,-18.43588 41.46437,-23.56753 19.29597,-5.41688 40.42254,-6.68533 59.74663,-0.95014 13.4897,5.29156 23.62258,16.89159 28.61722,30.33776 13.42539,14.03691 -20.68212,19.4345 -29.96152,19.81671 3.65354,0.71067 36.39569,1.97244 44.4557,-4.86171 -6.18006,-15.65753 -16.00135,-28.93149 -26.27953,-37.85871 -28.38489,-23.93012 -73.81199,-19.80817 -101.76074,-2.8051 -15.02163,8.49889 -25.47262,23.84281 -28.80106,38.76247 12.90249,5.81758 30.49144,3.62226 43.97584,4.9244 -8.56818,-8.00353 -26.35652,-1.3513 -34.35754,-11.01812 -2.17345,-3.67925 -1.25205,-10.6836 2.90063,-12.78003 z"
       id="path4663"
       inkscape:connector-curvature="0"
       sodipodi:nodetypes="cccccccccccc" />
    <path
       style="fill:#555753;stroke:none"
       d="m 204.27258,391.26745 19.46983,1.32648 3.46878,0.62442 -2.1944,0.75792 -26.15145,0.11448 c -6.13458,-0.25105 -9.81917,-2.12089 -14.80516,-2.18422 -4.17373,0.0895 -3.19565,12.61856 -4.71594,16.45985 -0.59064,6.88172 -1.86086,13.28804 -2.15679,19.37073 0.42535,1.95203 -0.16304,2.68224 -3.40711,0.5413 -0.95251,-5.21833 1.99708,-12.92394 2.20721,-18.09939 0.92812,-5.34942 1.0436,-18.92658 2.81132,-23.54567 0.55812,-1.45837 3.48229,0.58163 7.40542,1.74378 3.92314,1.16216 10.88156,1.53894 18.06829,2.89032 z"
       id="path4573-0"
       inkscape:connector-curvature="0"
       sodipodi:nodetypes="ccccccccccscc" />
    <path
       style="fill:#555753;stroke:none"
       d="m 318.5975,393.05849 -19.46983,1.32648 -3.84377,0.62442 2.56939,0.75792 26.15147,0.11448 c 6.13458,-0.25105 9.81916,-2.12089 14.80515,-2.18422 4.17373,0.0895 3.19565,12.61856 4.71594,16.45985 0.59064,6.88172 2.04837,14.03804 2.34429,20.12073 -0.42535,1.95203 0.16304,2.68224 3.40711,0.5413 0.95252,-5.21833 -2.18457,-13.67394 -2.39471,-18.84939 -0.92812,-5.34942 -1.4186,-18.55158 -3.18632,-23.17067 -0.55812,-1.45837 -3.10729,0.20663 -7.03043,1.36878 -3.92313,1.16216 -10.88156,1.53894 -18.06829,2.89032 z"
       id="path4573-0-5"
       inkscape:connector-curvature="0"
       sodipodi:nodetypes="ccccccccccscc" />
    <g
       id="g3794"
       transform="matrix(0.63400358,-0.77333012,0.77333012,0.63400358,-324.78038,634.50341)">
      <path
         sodipodi:nodetypes="csccc"
         inkscape:connector-curvature="0"
         id="path3772"
         d="m 496.89382,90.576438 c 9.74459,-10.496486 5.65358,-22.809629 1.76106,-28.997459 -5.89154,-9.365604 -22.45036,-18.842989 -33.45506,-11.730606 l -2.74238,21.648961 z"
         style="fill:#e9b96e;stroke:none" />
      <path
         sodipodi:nodetypes="ccccc"
         inkscape:connector-curvature="0"
         id="path3002"
         d="m 28.670966,1067.5007 c -32.1786403,7.7775 -48.14775,-1.2663 -30.0000003,-45.7143 L 464.76092,48.43098 c -1.36635,11.37804 -8.0224,21.40291 30,42.85714 z"
         style="fill:#8f5902;stroke:#c17d11;stroke-width:5;stroke-linecap:butt;stroke-linejoin:miter;stroke-miterlimit:4;stroke-opacity:1;stroke-dasharray:none" />
    </g>
    <path
       style="fill:#000000;fill-opacity:1;stroke:none"
       d="m 297.30046,394.24776 c 3.90669,-0.20805 12.0787,-2.55151 3.26819,-2.00414 -3.6574,0.79204 -7.55064,-0.81668 -1.65766,-2.20577 2.28328,-4.88409 -14.24181,-1.28671 -13.68005,-5.41713 3.32125,-7e-4 9.54503,-3.87129 2.63803,-4.0057 -3.99256,-0.072 -8.96456,-1.86744 -2.24367,-2.74561 3.39091,-3.83654 -9.77561,-2.94129 -12.68132,-3.10986 -10.50831,-1.02034 -21.06354,-2.84189 -31.60601,-0.99711 -3.60823,0.41497 -17.69917,1.75804 -7.5984,3.67364 4.31452,1.83483 -16.18837,2.05483 -5.48797,4.76957 3.95496,4.47428 -12.01518,0.85511 -10.60392,4.48294 2.63817,-0.18673 14.48973,2.4762 6.11208,3.06722 -8.39637,-0.23907 10.78097,3.76159 1.50447,4.45538 z"
       id="path3221"
       inkscape:connector-curvature="0"
       sodipodi:nodetypes="cccccccccccccc" />
    <path
       sodipodi:type="arc"
       style="fill:#555753;fill-opacity:1;stroke:none"
       id="path3995"
       sodipodi:cx="290.98706"
       sodipodi:cy="326.30026"
       sodipodi:rx="17.361998"
       sodipodi:ry="10.038391"
       d="m 308.34906,326.30026 a 17.361998,10.038391 0 1 1 -34.724,0 17.361998,10.038391 0 1 1 34.724,0 z"
       transform="matrix(0.90545455,0,0,1.1509434,27.637708,-22.911028)" />
    <path
       style="fill:#000000;fill-opacity:1;stroke:none"
       d="m 209.84493,438.94701 c 12.31886,-0.20401 35.18305,-3.25838 47.52895,-3.21902 17.59321,-0.74829 24.52687,0.72826 41.923,2.81601 5.71071,0.61799 11.49137,1.06146 17.22225,1.42745 4.31322,0.43396 1.15015,2.99025 -1.27594,3.26419 -5.87116,0.50229 -22.62287,-0.2866 -17.6069,1.7728 2.76689,0.56387 6.48947,1.60524 5.79461,3.16581 -0.89096,1.53889 -8.94497,1.14563 -13.76029,2.4677 -5.64785,0.94766 6.35905,2.27822 0.58879,3.94975 -9.83295,1.605 -20.05911,1.25349 -30.09331,1.27748 -10.83281,-0.14803 -21.68252,-1.02096 -32.43933,-0.16076 -7.38118,-0.51159 -2.78305,-3.19 -0.86189,-3.8438 3.0568,-2.04563 -10.71955,0.29451 -13.36401,-2.53681 -0.63795,-2.00752 7.11821,-4.83157 0.91302,-4.71694 -4.97929,-0.12486 -9.61647,-0.30201 -12.76224,-1.64462 -2.88625,-2.2964 4.91751,-3.52821 8.19329,-4.01924 z"
       id="path4007"
       inkscape:connector-curvature="0"
       sodipodi:nodetypes="cccccccccccccccc" />
    <path
       style="fill:#eeeeec;stroke:none"
       d="m 320.30775,406.8236 c -4.86177,11.44741 -12.77932,20.13059 -25.0314,16.9673 -6.10715,-1.52545 -14.27052,-7.00524 -14.35141,-13.00372 5.98922,-8.14996 31.88575,-6.71233 39.38281,-3.96358 z"
       id="path5344-1"
       inkscape:connector-curvature="0"
       sodipodi:nodetypes="cccc" />
    <path
       style="fill:#eeeeec;stroke:none"
       d="m 200.448,406.82391 c 4.86177,11.44741 12.77932,20.13059 25.0314,16.9673 6.10715,-1.52545 14.27052,-7.00524 14.35141,-13.00372 -5.4243,-8.62928 -31.85279,-6.83019 -39.38281,-3.96358 z"
       id="path5344-1-4"
       inkscape:connector-curvature="0"
       sodipodi:nodetypes="cccc" />
    <path
       style="fill:#d3d7cf;stroke:#eeeeec;stroke-width:5;stroke-linecap:butt;stroke-linejoin:miter;stroke-miterlimit:4;stroke-opacity:1;stroke-dasharray:none"
       d="m 162.8098,650.05213 c 16.45459,-11.71078 34.2657,-18.67793 54.84914,-15.95046 l 149.89849,319.22388 c -15.10887,10.4987 -34.01983,15.26419 -56.28737,14.96826 z"
       id="path3780"
       inkscape:connector-curvature="0"
       sodipodi:nodetypes="ccccc" />
    <path
       style="fill:#2e3436;fill-opacity:1;stroke:none"
       d="m 234.21875,623.5 c -6.20187,0.0665 -12.9288,1.17577 -19.71875,3.4375 -4.09778,1.36497 -7.93415,3.0435 -11.40625,4.96875 -9.54349,2.27422 -18.0917,13.1399 -27.9375,14.625 -6.94103,1.04691 -8.04085,-18.08665 -11.90625,-13.84375 l -0.0937,0.125 c -0.67673,0.75161 -1.30449,1.50265 -1.84375,2.3125 l -26.25,33.0625 -12.78125,6.65625 L 99.25,673.09375 64,753.125 l 0,26.6875 72.9375,-8.375 53.875,-7.96875 c 13.91957,1.39672 27.79971,-2.20684 38.78125,-11.15625 9.4192,1.84314 22.12122,0.0308 34.71875,-5.65625 21.40463,-9.6629 34.4124,-26.88351 29.03125,-38.46875 -5.32567,-11.46586 -26.65522,-13.08445 -47.84375,-3.75 -15.75271,-6.71517 -16.67554,-19.20511 -10.84375,-32.34375 19.53847,-7.77642 31.63839,-22.90369 27.375,-35 -1.69938,-4.8217 -5.76089,-8.47866 -11.3125,-10.78125 -4.62632,-1.91889 -10.29813,-2.87903 -16.5,-2.8125 z"
       transform="translate(0,28.362183)"
       id="path4397"
       inkscape:connector-curvature="0" />
    <path
       style="fill:#2e3436;fill-opacity:1;stroke:none"
       d="M 448,781.625 388.46875,805 365.4375,800.65625 324.75,789.46875 c -6.13449,-2.27108 -17.49442,0.1286 -17.375,1.21875 1.76095,16.07433 -8.87209,18.29357 -18.28125,20.84375 -3.93916,0.49714 -8.01182,1.36857 -12.125,2.6875 -21.80784,6.99293 -36.31232,23.26059 -32.375,36.3125 3.11204,10.31632 16.84775,15.526 33.21875,13.8125 0.79147,0.56861 1.67374,1.12015 2.65625,1.625 12.69243,6.52159 19.69758,16.22724 13.9375,29.71875 -15.89497,4.72265 -24.72316,14.82914 -22.34375,26.75 2.50037,12.52691 23.1142,18.75112 46.09375,13.90625 10.47397,-2.20825 19.63093,-6.35057 26.25,-11.375 16.48774,1.02752 21.19697,-2.17925 32.21875,-14.4375 l 0.0312,0.0937 L 443.75,885.5 448,870.53125 448,781.625 z"
       transform="translate(0,28.362183)"
       id="path4397-5"
       inkscape:connector-curvature="0" />
  </g>
</svg>
